<svg width="60" height="60" viewBox="0 0 60 60" fill="none" xmlns="http://www.w3.org/2000/svg">
<g id="quarantee">
<path id="Union" fill-rule="evenodd" clip-rule="evenodd" d="M31.3741 0.437847C30.4867 0.113168 29.5129 0.113166 28.6255 0.437841L9.15604 7.56074L9.15603 7.56071L9.1485 7.56354C9.01988 7.61177 8.89181 7.65949 8.76454 7.70692L8.76444 7.70696C7.93148 8.01736 7.13287 8.31496 6.439 8.65825C5.62028 9.0633 4.8702 9.56663 4.27724 10.3177C3.08978 11.8218 2.74978 14.0378 3.00216 17.5711C3.01579 17.7619 3.0301 17.991 3.04663 18.2557C3.2239 21.0936 3.65643 28.0183 6.23668 35.5789C9.05924 43.8495 14.4824 52.9745 25.0289 58.3823C27.4269 59.7113 29.3862 60.0231 31.0665 59.804C32.5481 59.6107 33.7431 59.0044 34.6622 58.5381L34.6622 58.5381L34.6624 58.538C34.7603 58.4883 34.8552 58.4402 34.9469 58.3943L34.9469 58.3943L34.9556 58.3899C45.5119 52.983 50.9388 43.8534 53.7626 35.5789C56.3429 28.0184 56.7754 21.0937 56.9527 18.2558V18.2557C56.9692 17.991 56.9835 17.7619 56.9972 17.5711C57.2495 14.0378 56.9095 11.8218 55.7221 10.3177C55.1291 9.56663 54.379 9.0633 53.5603 8.65825C52.8664 8.31496 52.0678 8.01736 51.2349 7.70696C51.1076 7.65952 50.9795 7.61178 50.8508 7.56354L50.8508 7.56351L50.8433 7.56074L31.3741 0.437847ZM29.3126 2.31609C29.7564 2.15375 30.2432 2.15375 30.687 2.31609L50.1486 9.4362L50.1523 9.4376C50.2865 9.48791 50.4169 9.53658 50.5439 9.58395C51.3893 9.89943 52.0791 10.1568 52.6734 10.4509C53.3391 10.7802 53.8078 11.1206 54.1523 11.557C54.8399 12.4279 55.2499 13.9619 55.0022 17.4286C54.9882 17.6245 54.9736 17.8571 54.9569 18.1237C54.7788 20.9591 54.3592 27.6386 51.8698 34.933C49.1497 42.9033 43.989 51.5143 34.048 56.6077C33.9557 56.6539 33.864 56.7001 33.7727 56.7461L33.7727 56.7461C32.8302 57.2214 31.9325 57.6741 30.8078 57.8208C29.6165 57.9762 28.0804 57.7897 25.9853 56.6257L25.9705 56.6175L25.9555 56.6098C16.0118 51.5167 10.85 42.9044 8.12949 34.933C5.64009 27.6386 5.22053 20.959 5.04243 18.1237C5.02568 17.8571 5.01107 17.6245 4.99708 17.4286C4.74946 13.9619 5.15946 12.4279 5.847 11.557C6.19154 11.1206 6.66021 10.7802 7.32587 10.4509C7.92024 10.1568 8.60997 9.89943 9.45542 9.58396L9.45543 9.58396C9.58234 9.5366 9.71277 9.48793 9.8469 9.43763L29.3126 2.31609ZM31.3585 6.42726C30.4805 6.11022 29.5193 6.11021 28.6413 6.42725L13.1504 12.0211L13.1504 12.0211L13.1429 12.0239C13.0401 12.0619 12.9374 12.0997 12.835 12.1374L12.8349 12.1374C12.1652 12.3837 11.5117 12.624 10.9435 12.9015C10.2701 13.2303 9.63815 13.6461 9.13536 14.2747C8.12615 15.5364 7.85936 17.3711 8.06321 20.1881C8.07374 20.3335 8.08496 20.5105 8.09801 20.7164C8.14706 21.49 8.22193 22.6709 8.38234 24.1106C8.44349 24.6595 8.93802 25.0549 9.48691 24.9937C10.0358 24.9326 10.4312 24.438 10.37 23.8891C10.2157 22.5036 10.1448 21.3885 10.0955 20.6122L10.0955 20.6122C10.0818 20.3959 10.0697 20.2059 10.058 20.0437C9.85918 17.2963 10.1964 16.1501 10.6972 15.5239C10.9495 15.2086 11.299 14.9536 11.8211 14.6987C12.2905 14.4695 12.8358 14.2686 13.518 14.0173C13.62 13.9797 13.7251 13.941 13.8334 13.9009L29.3206 8.30836C29.7596 8.14984 30.2402 8.14985 30.6792 8.30837L46.1624 13.8995L46.1662 13.9009C46.2745 13.941 46.3796 13.9797 46.4816 14.0173L46.4816 14.0173C47.1638 14.2686 47.7092 14.4695 48.1785 14.6987C48.7006 14.9536 49.0501 15.2086 49.3024 15.5239C49.8032 16.1501 50.1404 17.2963 49.9416 20.0437C49.9304 20.1986 49.9187 20.3815 49.9053 20.5903C49.6745 24.1902 48.9493 35.5043 41.8392 44.1032C41.4873 44.5289 41.5471 45.1592 41.9727 45.5111C42.3983 45.8631 43.0287 45.8033 43.3806 45.3777C50.9258 36.2525 51.6747 24.3306 51.9004 20.7371L51.9005 20.7357C51.9139 20.5232 51.9254 20.3399 51.9364 20.1881C52.1402 17.3711 51.8734 15.5364 50.8642 14.2747C50.3614 13.6461 49.7295 13.2303 49.0561 12.9015C48.4879 12.624 47.8344 12.3837 47.1647 12.1374C47.0948 12.1117 47.0247 12.0859 46.9546 12.06C46.922 12.048 46.8893 12.036 46.8567 12.0239L46.8567 12.0238L46.8492 12.0211L31.3585 6.42726ZM18.4997 29.4999C18.4997 23.2014 23.5941 18.4999 29.9997 18.4999C36.4053 18.4999 41.4997 23.2014 41.4997 29.4999C41.4997 35.8511 36.351 40.9999 29.9997 40.9999C23.6484 40.9999 18.4997 35.8511 18.4997 29.4999ZM29.9997 16.4999C22.5982 16.4999 16.4997 21.9912 16.4997 29.4999C16.4997 36.9557 22.5439 42.9999 29.9997 42.9999C37.4555 42.9999 43.4997 36.9557 43.4997 29.4999C43.4997 21.9912 37.4012 16.4999 29.9997 16.4999ZM37.1745 23.7603C35.9721 22.558 34.0118 22.5942 32.8548 23.8403L28.4209 28.6152L27.1691 27.5422C25.9111 26.4639 24.0172 26.6096 22.939 27.8676L22.5421 28.3306C21.4639 29.5885 21.6095 31.4824 22.8675 32.5607L26.9062 36.0225C28.119 37.0619 29.9335 36.9689 31.0336 35.8109L37.8822 28.6019C39.0027 27.4224 38.9789 25.5647 37.8285 24.4143L37.1745 23.7603ZM34.3204 25.2012C34.706 24.7858 35.3595 24.7737 35.7603 25.1745L36.4143 25.8286C36.7977 26.212 36.8057 26.8312 36.4322 27.2244L29.5836 34.4334C29.2169 34.8194 28.612 34.8504 28.2078 34.5039L24.1691 31.0422C23.7498 30.6828 23.7012 30.0515 24.0606 29.6321L24.4575 29.1692C24.8169 28.7498 25.4482 28.7013 25.8675 29.0607L27.1193 30.1337C27.9345 30.8324 29.1559 30.7629 29.8865 29.9761L34.3204 25.2012ZM11.8845 31.7261C11.7333 31.1949 11.1801 30.8869 10.6489 31.0381C10.1178 31.1893 9.80975 31.7425 9.96096 32.2737C11.9952 39.4195 16.3588 47.9623 25.9098 52.7973C27.8693 53.8686 29.4855 54.1273 30.8825 53.9475C32.1088 53.7896 33.099 53.2934 33.8379 52.9231L33.838 52.923C33.9171 52.8834 33.9932 52.8452 34.0665 52.8091L34.0665 52.8091L34.0751 52.8048C35.5274 52.0705 36.8618 51.2494 38.0876 50.3588C38.5344 50.0342 38.6334 49.4088 38.3088 48.962C37.9842 48.5152 37.3588 48.4161 36.912 48.7408C35.7732 49.5682 34.5314 50.3327 33.1768 51.0178C33.1031 51.0542 33.0302 51.0905 32.9579 51.1264C32.1959 51.5055 31.5004 51.8514 30.6271 51.9638C29.7122 52.0816 28.5144 51.9446 26.8565 51.0355L26.8418 51.0274L26.8269 51.0199C17.9519 46.5331 13.8363 38.5821 11.8845 31.7261ZM10.4999 28.9998C10.314 29.1858 10.056 29.2928 9.79301 29.2928C9.53001 29.2928 9.27201 29.1858 9.08601 28.9998C8.89991 28.8138 8.79301 28.5558 8.79301 28.2928C8.79301 28.0288 8.90001 27.7718 9.08601 27.5858C9.27201 27.3988 9.53001 27.2928 9.79301 27.2928C10.056 27.2928 10.314 27.3988 10.4999 27.5858C10.686 27.7718 10.793 28.0288 10.793 28.2928C10.793 28.5558 10.6859 28.8138 10.4999 28.9998ZM40.9137 47.9999C40.7278 48.1859 40.4698 48.2929 40.2068 48.2929C39.9438 48.2929 39.6858 48.1859 39.4998 47.9999C39.3137 47.8139 39.2068 47.5559 39.2068 47.2929C39.2068 47.0289 39.3138 46.7719 39.4998 46.5859C39.6858 46.3989 39.9438 46.2929 40.2068 46.2929C40.4698 46.2929 40.7278 46.3989 40.9137 46.5859C41.0998 46.7719 41.2068 47.0289 41.2068 47.2929C41.2068 47.5559 41.0997 47.8139 40.9137 47.9999Z" fill="#202020"/>
</g>
</svg>
