<svg width="60" height="60" viewBox="0 0 60 60" fill="none" xmlns="http://www.w3.org/2000/svg">
<g id="speed" clip-path="url(#clip0_1_12811)">
<path id="Union" fill-rule="evenodd" clip-rule="evenodd" d="M25.6239 0.834903C26.5793 0.209466 27.8037 0 29 0H31C32.1963 0 33.4207 0.209466 34.3761 0.834903C35.2103 1.38095 35.7659 2.19749 35.9408 3.25564C40.7301 4.95083 43.8852 9.01634 44.4335 14.1259C45.9133 14.5344 47 15.8903 47 17.5C47 18.6288 46.4656 19.6328 45.6361 20.2728C46.4774 21.0904 47 22.2342 47 23.5C47 25.9853 44.9853 28 42.5 28H41.8248C41.1228 31.3164 39.7936 34.024 37.5 35.7903V38.5002H41.5C43.5814 38.5002 45.3575 38.8362 46.868 39.434C50.5909 40.9074 52.501 43.8822 53.4698 46.7729C54.4328 49.6461 54.5 52.5242 54.5 54.0003V59.0003V60.0003H53.5H46.5H41.5H30H20C19.9419 60.0003 19.8849 59.9953 19.8295 59.9858C19.674 59.9952 19.5172 60 19.3594 60C15.8595 60 12.9093 57.6469 12.0045 54.4365L11.9711 54.4417C11.5257 54.5096 11.0636 54.5312 10.7656 54.5312C4.81993 54.5312 0 49.7113 0 43.7656C0 37.8199 4.81993 33 10.7656 33C14.7987 33 18.3138 35.2177 20.1579 38.5002H22.5V35.7935C20.2107 34.0665 18.4594 31.3976 17.6822 28H16.5C14.0147 28 12 25.9853 12 23.5C12 22.2342 12.5226 21.0904 13.3639 20.2728C12.5344 19.6328 12 18.6288 12 17.5C12 15.8879 13.09 14.5303 14.5732 14.124C15.2141 8.9185 19.2956 4.91517 24.0594 3.25397C24.2347 2.19663 24.7902 1.38067 25.6239 0.834903ZM21.0271 40.5002C21.3546 41.5301 21.5312 42.6273 21.5312 43.7656C21.5312 44.0636 21.5096 44.5258 21.4417 44.9711L21.4365 45.0045C24.6469 45.9093 27 48.8596 27 52.3594C27 54.5932 26.0414 56.6032 24.5131 58.0003H29V46.8929L23.0639 40.5002H21.0271ZM24 5.4144C20.2329 6.96332 17.2485 10.1303 16.6119 14H42.404C41.8731 10.0625 39.5344 6.94941 36 5.42573V11C36 11.5523 35.5523 12 35 12C34.4477 12 34 11.5523 34 11V4C34 3.21538 33.7081 2.78802 33.2807 2.50824C32.7884 2.18597 32.0128 2 31 2H29C27.9872 2 27.2116 2.18597 26.7193 2.50824C26.2919 2.78802 26 3.21538 26 4V11C26 11.5523 25.5523 12 25 12C24.4477 12 24 11.5523 24 11V5.4144ZM16.4704 19.0001L15.5001 19H15.5C14.6716 19 14 18.3284 14 17.5C14 16.6716 14.6716 16 15.5 16H43.5C44.3284 16 45 16.6716 45 17.5C45 18.3284 44.3284 19 43.5 19L42.5005 19H42.5L41.5 19L17.9841 19.0002L16.5002 19H16.5L16.4704 19.0001ZM16.4778 21.0001C15.1073 21.012 14 22.1267 14 23.5C14 24.8807 15.1193 26 16.5 26H17.3339C17.1262 24.4514 17.02 22.7792 16.9918 21.0001L16.4778 21.0001ZM18.9921 21.0002C19.0274 23.1536 19.1807 25.1009 19.4848 26.8264C20.1078 30.3615 21.8614 32.9509 24.064 34.4551C25.5018 35.437 27.4199 36.0002 30 36.0002C32.58 36.0002 34.4982 35.437 35.936 34.455C38.0679 32.9991 39.3731 30.4696 40.0152 26.8264C40.3188 25.1035 40.4606 23.1573 40.4927 21L18.9921 21.0002ZM42.493 21C42.4673 22.7765 42.3695 24.4494 42.1648 26H42.5C43.8807 26 45 24.8807 45 23.5C45 22.1194 43.8809 21.0002 42.5004 21H42.5H42.493ZM24.5 36.973V39.1076L30 45.0306L35.5 39.1076V36.9729C33.9439 37.6585 32.116 38.0002 30 38.0002C27.884 38.0002 26.0561 37.6586 24.5 36.973ZM36.9361 40.5002L31 46.8929V58.0003H40.5V55C40.5 54.4477 40.9477 54 41.5 54C42.0523 54 42.5 54.4477 42.5 55V58.0003H45.5V41.0682C44.6281 40.7897 43.6342 40.6005 42.5 40.5304V48C42.5 48.5523 42.0523 49 41.5 49C40.9477 49 40.5 48.5523 40.5 48V40.5002H36.9361ZM47.5 41.9718V58.0003H52.5V54.0003C52.5 52.5716 52.4294 49.9621 51.5735 47.4085C50.8632 45.2892 49.636 43.271 47.5 41.9718ZM41.5 52.5C41.763 52.5 42.021 52.393 42.2069 52.207C42.3929 52.021 42.5 51.763 42.5 51.5C42.5 51.236 42.393 50.979 42.2069 50.793C42.021 50.606 41.763 50.5 41.5 50.5C41.237 50.5 40.979 50.606 40.793 50.793C40.607 50.979 40.5 51.236 40.5 51.5C40.5 51.763 40.6069 52.021 40.793 52.207C40.979 52.393 41.237 52.5 41.5 52.5ZM2 43.7656C2 38.9245 5.9245 35 10.7656 35C15.6067 35 19.5312 38.9245 19.5312 43.7656C19.5312 43.9885 19.5138 44.3466 19.4646 44.6695C19.4627 44.6818 19.4608 44.6938 19.4589 44.7057C19.4581 44.7103 19.4574 44.7148 19.4566 44.7194C19.4243 44.719 19.3918 44.7188 19.3594 44.7188C15.1396 44.7188 11.7188 48.1396 11.7188 52.3594C11.7188 52.3918 11.719 52.4243 11.7194 52.4566C11.7031 52.4593 11.6865 52.462 11.6694 52.4646C11.3466 52.5138 10.9885 52.5312 10.7656 52.5312C5.9245 52.5312 2 48.6067 2 43.7656ZM11.7655 36.3438C11.7655 35.7915 11.3178 35.3438 10.7655 35.3438C10.2133 35.3438 9.76554 35.7915 9.76554 36.3438L9.76554 37.125C9.76554 37.6773 10.2133 38.125 10.7655 38.125C11.3178 38.125 11.7655 37.6773 11.7655 37.125L11.7655 36.3438ZM7.92071 36.8379C7.64457 36.3596 7.03298 36.1957 6.55469 36.4718C6.0764 36.748 5.91252 37.3596 6.18866 37.8379L6.57929 38.5144C6.85543 38.9927 7.46702 39.1566 7.94531 38.8805C8.4236 38.6043 8.58748 37.9927 8.31134 37.5144L7.92071 36.8379ZM15.3427 37.8379C15.6188 37.3596 15.455 36.748 14.9767 36.4719C14.4984 36.1957 13.8868 36.3596 13.6106 36.8379L13.22 37.5145C12.9439 37.9928 13.1078 38.6044 13.586 38.8805C14.0643 39.1566 14.6759 38.9928 14.9521 38.5145L15.3427 37.8379ZM17.6932 40.9207C18.1715 40.6445 18.3354 40.0329 18.0593 39.5546C17.7831 39.0764 17.1715 38.9125 16.6932 39.1886L16.0167 39.5792C15.5384 39.8554 15.3745 40.467 15.6506 40.9453C15.9268 41.4236 16.5384 41.5874 17.0167 41.3113L17.6932 40.9207ZM4.83805 39.1887C4.35976 38.9126 3.74817 39.0765 3.47203 39.5548C3.19589 40.033 3.35976 40.6446 3.83805 40.9208L4.51463 41.3114C4.99292 41.5875 5.60452 41.4237 5.88066 40.9454C6.1568 40.4671 5.99293 39.8555 5.51463 39.5794L4.83805 39.1887ZM11.7655 40.0546C11.7655 39.5023 11.3178 39.0546 10.7655 39.0546C10.2132 39.0547 9.76553 39.5024 9.76554 40.0547L9.76555 40.9862C8.62674 41.396 7.81244 42.4857 7.81244 43.7657C7.81244 45.3966 9.1346 46.7188 10.7656 46.7188C12.3965 46.7188 13.7187 45.3966 13.7187 43.7657C13.7187 42.4857 12.9044 41.3959 11.7656 40.9862L11.7655 40.0546ZM9.81244 43.7657C9.81244 43.2393 10.2392 42.8126 10.7656 42.8126C11.292 42.8126 11.7187 43.2393 11.7187 43.7657C11.7187 44.2921 11.292 44.7188 10.7656 44.7188C10.2392 44.7188 9.81244 44.2921 9.81244 43.7657ZM3.34375 42.7654C2.79147 42.7654 2.34375 43.2131 2.34375 43.7654C2.34375 44.3177 2.79147 44.7654 3.34375 44.7654H4.125C4.67728 44.7654 5.125 44.3177 5.125 43.7654C5.125 43.2131 4.67728 42.7654 4.125 42.7654H3.34375ZM17.4062 42.7656C16.8539 42.7656 16.4062 43.2133 16.4062 43.7656C16.4062 44.3179 16.8539 44.7656 17.4062 44.7656L18.1874 44.7656C18.7397 44.7656 19.1874 44.3179 19.1874 43.7656C19.1874 43.2133 18.7397 42.7656 18.1874 42.7656L17.4062 42.7656ZM13.7188 52.3594C13.7188 49.2441 16.2441 46.7188 19.3594 46.7188C22.4746 46.7188 25 49.2441 25 52.3594C25 55.4746 22.4746 58 19.3594 58C16.2441 58 13.7188 55.4746 13.7188 52.3594ZM5.51471 47.952C5.99301 47.6759 6.15688 47.0643 5.88074 46.586C5.6046 46.1077 4.99301 45.9438 4.51471 46.22L3.83813 46.6106C3.35984 46.8867 3.19596 47.4983 3.47211 47.9766C3.74825 48.4549 4.35984 48.6188 4.83813 48.3427L5.51471 47.952ZM20.3594 49.0156C20.3594 48.4633 19.9117 48.0156 19.3594 48.0156C18.8071 48.0156 18.3594 48.4633 18.3594 49.0156V52.75V53.75H19.3594H21.9219C22.4742 53.75 22.9219 53.3023 22.9219 52.75C22.9219 52.1977 22.4742 51.75 21.9219 51.75H20.3594V49.0156ZM8.31142 50.0169C8.58756 49.5386 8.42369 48.927 7.94539 48.6508C7.4671 48.3747 6.85551 48.5386 6.57937 49.0169L6.18874 49.6935C5.9126 50.1718 6.07648 50.7833 6.55477 51.0595C7.03306 51.3356 7.64465 51.1718 7.92079 50.6935L8.31142 50.0169ZM11.7656 50.4062C11.7656 49.8539 11.3178 49.4062 10.7656 49.4062C10.2133 49.4062 9.76556 49.8539 9.76556 50.4062V51.1875C9.76556 51.7397 10.2133 52.1875 10.7656 52.1875C11.3178 52.1875 11.7656 51.7397 11.7656 51.1875V50.4062Z" fill="#202020"/>
</g>
<defs>
<clipPath id="clip0_1_12811">
<rect width="60" height="60" fill="white"/>
</clipPath>
</defs>
</svg>
