<svg width="60" height="60" viewBox="0 0 60 60" fill="none" xmlns="http://www.w3.org/2000/svg">
<g id="free">
<path id="Union" fill-rule="evenodd" clip-rule="evenodd" d="M18 7C18 5.94752 18.9223 4.70126 21.0939 3.65888C23.1935 2.65108 26.1643 2 29.5 2C32.8357 2 35.8065 2.65108 37.9061 3.65888C40.0777 4.70126 41 5.94752 41 7C41 8.05248 40.0777 9.29874 37.9061 10.3411C35.8065 11.3489 32.8357 12 29.5 12C28.8448 12 28.2024 11.9749 27.577 11.9266C26.5688 11.8488 25.606 11.7109 24.7053 11.522C23.6657 11.304 22.7132 11.0189 21.8716 10.682C20.5792 10.1648 19.5839 9.54008 18.9268 8.88124C18.2741 8.22667 18 7.58911 18 7ZM39.0626 12C39.7724 11.6372 40.4317 11.2159 41 10.7395V12H39.5H39.0626ZM43 7V12H44C46.7614 12 49 14.2386 49 17V25C49 27.7614 46.7614 30 44 30H18.5H10H9V29V21V20H10H18.5H20.1779C19.8672 19.8438 19.5757 19.6795 19.3026 19.5075C17.0223 18.0712 16.0731 16.1206 16.0006 14.0347L16 14.0174V14V7C16 4.73877 17.876 2.98503 20.2284 1.85584C22.653 0.692062 25.9322 0 29.5 0C33.0678 0 36.347 0.692062 38.7716 1.85584C41.124 2.98503 43 4.73877 43 7ZM41.5 14.5V14H40.5V14.5C40.5 15.0523 40.0523 15.5 39.5 15.5C38.9477 15.5 38.5 15.0523 38.5 14.5V14H37.5V16C37.5 16.5523 37.0523 17 36.5 17C35.9477 17 35.5 16.5523 35.5 16V14H34.5V14.5C34.5 15.0523 34.0523 15.5 33.5 15.5C32.9477 15.5 32.5 15.0523 32.5 14.5V14H31.5V14.5C31.5 15.0523 31.0523 15.5 30.5 15.5C29.9477 15.5 29.5 15.0523 29.5 14.5V14C29.1637 14 28.8302 13.9939 28.5 13.9818V15.9236C28.5 16.4759 28.0523 16.9236 27.5 16.9236C26.9477 16.9236 26.5 16.4759 26.5 15.9236V13.8328C26.1617 13.7944 25.8282 13.7496 25.5 13.6987V14.0007C25.5 14.553 25.0523 15.0007 24.5 15.0007C23.9477 15.0007 23.5 14.553 23.5 14.0007V13.2972C23.1585 13.212 22.8249 13.1195 22.5 13.0202V13.1104C22.5 13.6627 22.0523 14.1104 21.5 14.1104C20.9477 14.1104 20.5 13.6627 20.5 13.1104V12.2709C19.5461 11.838 18.6972 11.3264 18 10.7414V13.9819C18.0537 15.4044 18.6595 16.7387 20.3685 17.8152C22.1484 18.9363 25.1572 19.7925 30.0212 20H30.5H33.5H36.5H39.5H42.5H44C45.6569 20 47 18.6569 47 17C47 15.3431 45.6569 14 44 14H43.5V14.5C43.5 15.0523 43.0523 15.5 42.5 15.5C41.9477 15.5 41.5 15.0523 41.5 14.5ZM22.5 22H23.5V22.5C23.5 23.0523 23.9477 23.5 24.5 23.5C25.0523 23.5 25.5 23.0523 25.5 22.5V22H26.5V24C26.5 24.5523 26.9477 25 27.5 25C28.0523 25 28.5 24.5523 28.5 24V22H29.5V22.5C29.5 23.0523 29.9477 23.5 30.5 23.5C31.0523 23.5 31.5 23.0523 31.5 22.5V22H32.5V22.5C32.5 23.0523 32.9477 23.5 33.5 23.5C34.0523 23.5 34.5 23.0523 34.5 22.5V22H35.5V24C35.5 24.5523 35.9477 25 36.5 25C37.0523 25 37.5 24.5523 37.5 24V22H38.5V22.5C38.5 23.0523 38.9477 23.5 39.5 23.5C40.0523 23.5 40.5 23.0523 40.5 22.5V22H41.5V22.5C41.5 23.0523 41.9477 23.5 42.5 23.5C43.0523 23.5 43.5 23.0523 43.5 22.5V22H44C45.1256 22 46.1643 21.6281 47 21.0004V25C47 26.6569 45.6569 28 44 28H19.5V22H20.5V22.5C20.5 23.0523 20.9477 23.5 21.5 23.5C22.0523 23.5 22.5 23.0523 22.5 22.5V22ZM17.5 22V28H11V22H17.5ZM24 7C24 6.86954 24.1179 6.46911 25.2386 6.07098C26.2657 5.70607 27.7644 5.5 29.5 5.5C31.2356 5.5 32.7343 5.70607 33.7614 6.07098C34.8821 6.46911 35 6.86954 35 7C35 7.13046 34.8821 7.53089 33.7614 7.92902C32.7343 8.29393 31.2356 8.5 29.5 8.5C27.7644 8.5 26.2657 8.29393 25.2386 7.92902C24.1179 7.53089 24 7.13046 24 7ZM29.5 3.5C27.6457 3.5 25.8944 3.7155 24.569 4.18638C23.3371 4.62404 22 5.47361 22 7C22 8.52639 23.3371 9.37596 24.569 9.81362C25.8944 10.2845 27.6457 10.5 29.5 10.5C31.3543 10.5 33.1056 10.2845 34.431 9.81362C35.6629 9.37596 37 8.52639 37 7C37 5.47361 35.6629 4.62404 34.431 4.18638C33.1056 3.7155 31.3543 3.5 29.5 3.5ZM18.0387 35.843L9 42.0273V51H13H13.1085L13.2144 51.0233L33.2622 55.424L42.7377 48.2046C43.177 47.8699 43.8045 47.9547 44.1392 48.394C44.4739 48.8333 44.3891 49.4607 43.9498 49.7954L34.106 57.2954L33.7378 57.576L33.2856 57.4767L12.8915 53H9V54.4997C9 56.1566 7.65685 57.4997 6 57.4997H3C1.34315 57.4997 0 56.1566 0 54.4997V40.4999C0 38.843 1.34314 37.4999 3 37.4999H6C7.37308 37.4999 8.53071 38.4223 8.88697 39.6813L16.9353 34.1746L16.9599 34.1577L16.9855 34.1424C19.654 32.5413 25.3625 32.0542 30.3952 36.1122C31.0902 36.6725 31.8782 36.9999 32.657 36.9999H32.6702H32.6834H32.6967H32.7099H32.7231H32.7364H32.7496H32.7628H32.776H32.7892H32.8025H32.8157H32.8289H32.8421H32.8553H32.8685H32.8817H32.8949H32.908H32.9212H32.9344H32.9476H32.9607H32.9739H32.9871H33.0002H33.0134H33.0265H33.0397H33.0528H33.066H33.0791H33.0922H33.1054H33.1185H33.1316H33.1447H33.1578H33.1709H33.184H33.1971H33.2102H33.2233H33.2364H33.2495H33.2625H33.2756H33.2887H33.3017H33.3148H33.3278H33.3409H33.3539H33.3669H33.38H33.393H33.406H33.419H33.432H33.445H33.458H33.471H33.484H33.497H33.5099H33.5229H33.5359H33.5488H33.5618H33.5747H33.5876H33.6006H33.6135H33.6264H33.6393H33.6522H33.6651H33.678H33.6909H33.7038H33.7166H33.7295H33.7424H33.7552H33.7681H33.7809H33.7937H33.8066H33.8194H33.8322H33.845H33.8578H33.8706H33.8834H33.8961H33.9089H33.9217H33.9344H33.9472H33.9599H33.9726H33.9854H33.9981H34.0108H34.0235H34.0362H34.0489H34.0615H34.0742H34.0869H34.0995H34.1122H34.1248H34.1374H34.1501H34.1627H34.1753H34.1879H34.2005H34.213H34.2256H34.2382H34.2507H34.2633H34.2758H34.2883H34.3009H34.3134H34.3259H34.3384H34.3508H34.3633H34.3758H34.3882H34.4007H34.4131H34.4255H34.438H34.4504H34.4628H34.4752H34.4875H34.4999H34.5123H34.5246H34.537H34.5493H34.5616H34.5739H34.5862H34.5985H34.6108H34.6231H34.6354H34.6476H34.6599H34.6721H34.6843H34.6965H34.7087H34.7209H34.7331H34.7453H34.7574H34.7696H34.7817H34.7938H34.806H34.8181H34.8302H34.8422H34.8543H34.8664H34.8784H34.8905H34.9025H34.9145H34.9265H34.9385H34.9505H34.9625H34.9744H34.9864H34.9983H35.0102H35.0221H35.034H35.0459H35.0578H35.0697H35.0815H35.0934H35.1052H35.117H35.1288H35.1406H35.1524H35.1642H35.1759H35.1877H35.1994H35.2111H35.2229H35.2346H35.2462H35.2579H35.2696H35.2812H35.2928H35.3045H35.3161H35.3277H35.3392H35.3508H35.3624H35.3739H35.3854H35.3969H35.4084H35.4199H35.4314H35.4429H35.4543H35.4658H35.4772H35.4886H35.5H35.5114H35.5227H35.5341H35.5454H35.5567H35.568H35.5793H35.5906H35.6019H35.6132H35.6244H35.6356H35.6468H35.658H35.6692H35.6804H35.6915H35.7027H35.7138H35.7249H35.736H35.7471H35.7581H35.7692H35.7802H35.7913H35.8023H35.8133H35.8242H35.8352H35.8461H35.8571H35.868H35.8789H35.8898H35.9006H35.9115H35.9223H35.9332H35.944H35.9548H35.9655H35.9763H35.987H35.9978H36.0085H36.0192H36.0298H36.0405H36.0512H36.0618H36.0724H36.083H36.0936H36.1042H36.1147H36.1252H36.1358H36.1463H36.1567H36.1672H36.1777H36.1881H36.1985H36.2089H36.2193H36.2297H36.24H36.2504H36.2607H36.271H36.2812H36.2915H36.3018H36.312H36.3222H36.3324H36.3426H36.3527H36.3629H36.373H36.3831H36.3932H36.4033H36.4133H36.4234H36.4334H36.4434H36.4534H36.4633H36.4733H36.4832H36.4931H36.503H36.5129H36.5227H36.5326H36.5424H36.5522H36.562H36.5717H36.5815H36.5912H36.6009H36.6106H36.6203H36.6299H36.6395H36.6491H36.6587H36.6683H36.6779H36.6874H36.6969H36.7064H36.7159H36.7253H36.7348H36.7442H36.7536H36.763H36.7723H36.7817H36.791H36.8003H36.8096H36.8189H36.8281H36.8373H36.8465H36.8557H36.8649H36.874H36.8831H36.8922H36.9013H36.9104H36.9194H36.9284H36.9374H36.9464H36.9554H36.9643H36.9732H36.9821H36.991H36.9998H37.0087H37.0175H37.0263H37.035H37.0438H37.0525H37.0612H37.0699H37.0786H37.0872H37.0958H37.1044H37.113H37.1216H37.1301H37.1386H37.1471H37.1556H37.164H37.1725H37.1809H37.1893H37.1976H37.206H37.2143H37.2226H37.2308H37.2391H37.2473H37.2555H37.2637H37.2719H37.28H37.2881H37.2962H37.3043H37.3123H37.3204H37.3284H37.3364H37.3443H37.3522H37.3602H37.368H37.3759H37.3838H37.3916H37.3994H37.4071H37.4149H37.4226H37.4303H37.438H37.4457H37.4533H37.4609H37.4685H37.4761H37.4836H37.4911H37.4986H37.5061H37.5135H37.5209H37.5283H37.5357H37.543H37.5504H37.5577H37.5649H37.5722H37.5794H37.5866H37.5938H37.6009H37.6081H37.6152H37.6222H37.6293H37.6363H37.6433H37.6503H37.6573H37.6642H37.6711H37.678H37.6848H37.6917H37.6985H37.7052H37.712H37.7187H37.7254H37.7321H37.7388H37.7454H37.752H37.7586H37.7651H37.7716H37.7781H37.7846H37.7911H37.7975H37.8039H37.8102H37.8166H37.8229H37.8292H37.8354H37.8417H37.8479H37.8541H37.8602H37.8664H37.8725H37.8786H37.8846H37.8906H37.8966H37.9026H37.9086H37.9145H37.9204H37.9262H37.9321H37.9379H37.9437H37.9494H37.9551H37.9608H37.9665H37.9722H37.9778H37.9834H37.989H37.9945H38H38.0006C39.3434 37.0007 40.4701 37.6735 41.2361 38.5144C41.5958 38.9094 41.9001 39.3675 42.1198 39.853C43.2254 39.0744 45.0937 37.7405 47.9118 35.691C50.3654 33.9066 52.7981 33.6954 54.8306 34.2047C56.8175 34.7026 58.3837 35.8756 59.2433 36.8308L59.9708 37.6391L59.1044 38.2964L49.5032 45.5803C49.0632 45.9141 48.4359 45.828 48.1021 45.388C47.7683 44.948 47.8544 44.3207 48.2944 43.9869L56.9441 37.4249C56.2732 36.9068 55.3775 36.4036 54.3444 36.1447C52.8519 35.7707 51.0346 35.8929 49.0882 37.3085C45.4276 39.9707 43.3482 41.4412 42.4542 42.0593C42.3137 42.9321 41.8607 43.8024 41.2399 44.4851C40.4741 45.3276 39.3468 46 38 46H24C23.4477 46 23 45.5523 23 45C23 44.4477 23.4477 44 24 44H38C38.6532 44 39.2759 43.6724 39.7601 43.1398C40.2564 42.5938 40.5 41.9491 40.5 41.4999C40.5 41.0523 40.2556 40.4081 39.7575 39.8612C39.2713 39.3275 38.648 39.0003 37.9994 38.9999H37.9945H37.989H37.9834H37.9778H37.9722H37.9665H37.9608H37.9551H37.9494H37.9437H37.9379H37.9321H37.9262H37.9204H37.9145H37.9086H37.9026H37.8966H37.8906H37.8846H37.8786H37.8725H37.8664H37.8602H37.8541H37.8479H37.8417H37.8354H37.8292H37.8229H37.8166H37.8102H37.8039H37.7975H37.7911H37.7846H37.7781H37.7716H37.7651H37.7586H37.752H37.7454H37.7388H37.7321H37.7254H37.7187H37.712H37.7052H37.6985H37.6917H37.6848H37.678H37.6711H37.6642H37.6573H37.6503H37.6433H37.6363H37.6293H37.6222H37.6152H37.6081H37.6009H37.5938H37.5866H37.5794H37.5722H37.5649H37.5577H37.5504H37.543H37.5357H37.5283H37.5209H37.5135H37.5061H37.4986H37.4911H37.4836H37.4761H37.4685H37.4609H37.4533H37.4457H37.438H37.4303H37.4226H37.4149H37.4071H37.3994H37.3916H37.3838H37.3759H37.368H37.3602H37.3522H37.3443H37.3364H37.3284H37.3204H37.3123H37.3043H37.2962H37.2881H37.28H37.2719H37.2637H37.2555H37.2473H37.2391H37.2308H37.2226H37.2143H37.206H37.1976H37.1893H37.1809H37.1725H37.164H37.1556H37.1471H37.1386H37.1301H37.1216H37.113H37.1044H37.0958H37.0872H37.0786H37.0699H37.0612H37.0525H37.0438H37.035H37.0263H37.0175H37.0087H36.9998H36.991H36.9821H36.9732H36.9643H36.9554H36.9464H36.9374H36.9284H36.9194H36.9104H36.9013H36.8922H36.8831H36.874H36.8649H36.8557H36.8465H36.8373H36.8281H36.8189H36.8096H36.8003H36.791H36.7817H36.7723H36.763H36.7536H36.7442H36.7348H36.7253H36.7159H36.7064H36.6969H36.6874H36.6779H36.6683H36.6587H36.6491H36.6395H36.6299H36.6203H36.6106H36.6009H36.5912H36.5815H36.5717H36.562H36.5522H36.5424H36.5326H36.5227H36.5129H36.503H36.4931H36.4832H36.4733H36.4633H36.4534H36.4434H36.4334H36.4234H36.4133H36.4033H36.3932H36.3831H36.373H36.3629H36.3527H36.3426H36.3324H36.3222H36.312H36.3018H36.2915H36.2812H36.271H36.2607H36.2504H36.24H36.2297H36.2193H36.2089H36.1985H36.1881H36.1777H36.1672H36.1567H36.1463H36.1358H36.1252H36.1147H36.1042H36.0936H36.083H36.0724H36.0618H36.0512H36.0405H36.0298H36.0192H36.0085H35.9978H35.987H35.9763H35.9655H35.9548H35.944H35.9332H35.9223H35.9115H35.9006H35.8898H35.8789H35.868H35.8571H35.8461H35.8352H35.8242H35.8133H35.8023H35.7913H35.7802H35.7692H35.7581H35.7471H35.736H35.7249H35.7138H35.7027H35.6915H35.6804H35.6692H35.658H35.6468H35.6356H35.6244H35.6132H35.6019H35.5906H35.5793H35.568H35.5567H35.5454H35.5341H35.5227H35.5114H35.5H35.4886H35.4772H35.4658H35.4543H35.4429H35.4314H35.4199H35.4084H35.3969H35.3854H35.3739H35.3624H35.3508H35.3392H35.3277H35.3161H35.3045H35.2928H35.2812H35.2696H35.2579H35.2462H35.2346H35.2229H35.2111H35.1994H35.1877H35.1759H35.1642H35.1524H35.1406H35.1288H35.117H35.1052H35.0934H35.0815H35.0697H35.0578H35.0459H35.034H35.0221H35.0102H34.9983H34.9864H34.9744H34.9625H34.9505H34.9385H34.9265H34.9145H34.9025H34.8905H34.8784H34.8664H34.8543H34.8422H34.8302H34.8181H34.806H34.7938H34.7817H34.7696H34.7574H34.7453H34.7331H34.7209H34.7087H34.6965H34.6843H34.6721H34.6599H34.6476H34.6354H34.6231H34.6108H34.5985H34.5862H34.5739H34.5616H34.5493H34.537H34.5246H34.5123H34.4999H34.4875H34.4752H34.4628H34.4504H34.438H34.4255H34.4131H34.4007H34.3882H34.3758H34.3633H34.3508H34.3384H34.3259H34.3134H34.3009H34.2883H34.2758H34.2633H34.2507H34.2382H34.2256H34.213H34.2005H34.1879H34.1753H34.1627H34.1501H34.1374H34.1248H34.1122H34.0995H34.0869H34.0742H34.0615H34.0489H34.0362H34.0235H34.0108H33.9981H33.9854H33.9726H33.9599H33.9472H33.9344H33.9217H33.9089H33.8961H33.8834H33.8706H33.8578H33.845H33.8322H33.8194H33.8066H33.7937H33.7809H33.7681H33.7552H33.7424H33.7295H33.7166H33.7038H33.6909H33.678H33.6651H33.6522H33.6393H33.6264H33.6135H33.6006H33.5876H33.5747H33.5618H33.5488H33.5359H33.5229H33.5099H33.497H33.484H33.471H33.458H33.445H33.432H33.419H33.406H33.393H33.38H33.3669H33.3539H33.3409H33.3278H33.3148H33.3017H33.2887H33.2756H33.2625H33.2495H33.2364H33.2233H33.2102H33.1971H33.184H33.1709H33.1578H33.1447H33.1316H33.1185H33.1054H33.0922H33.0791H33.066H33.0528H33.0397H33.0265H33.0134H33.0002H32.9871H32.9739H32.9607H32.9476H32.9344H32.9212H32.908H32.8949H32.8817H32.8685H32.8553H32.8421H32.8289H32.8157H32.8025H32.7892H32.776H32.7628H32.7496H32.7364H32.7231H32.7099H32.6967H32.6834H32.6702H32.657C31.314 38.9999 30.0967 38.4406 29.1399 37.6691C24.7575 34.1355 19.9808 34.6967 18.0387 35.843ZM3 39.4999C2.44772 39.4999 2 39.9476 2 40.4999V54.4997C2 55.052 2.44772 55.4997 3 55.4997H6C6.55228 55.4997 7 55.052 7 54.4997V52V41.4999V40.4999C7 39.9476 6.55228 39.4999 6 39.4999H3ZM46 48C46.263 48 46.521 47.893 46.7069 47.707C46.8929 47.521 47 47.263 47 47C47 46.736 46.893 46.479 46.7069 46.293C46.521 46.106 46.263 46 46 46C45.737 46 45.479 46.106 45.293 46.293C45.107 46.479 45 46.736 45 47C45 47.263 45.1069 47.521 45.293 47.707C45.479 47.893 45.737 48 46 48Z" fill="#202020"/>
</g>
</svg>
