<svg width="60" height="60" viewBox="0 0 60 60" fill="none" xmlns="http://www.w3.org/2000/svg">
<g id="email" clip-path="url(#clip0_1_11589)">
<path id="Union" fill-rule="evenodd" clip-rule="evenodd" d="M3.15211 31.4363L32.8203 1.76812C32.8517 1.73257 32.8857 1.69927 32.9218 1.66849C34.8801 -0.202612 37.9847 -0.175573 39.9099 1.74962L58.3197 20.1594C60.2538 22.0935 60.2316 25.2355 58.2718 27.1421L29.064 56.3499L28.9437 56.4738C26.9997 58.4744 23.7946 58.4975 21.8221 56.525L13.3793 48.0821L1.70566 59.708C1.31433 60.0977 0.681168 60.0964 0.291445 59.7051C-0.0982773 59.3138 -0.0969799 58.6806 0.294344 58.2909L11.9651 46.6679L9.58188 44.2847L4.64873 49.2677C4.26018 49.6602 3.62702 49.6634 3.23454 49.2748C2.84206 48.8863 2.83887 48.2531 3.22743 47.8606L8.16765 42.8705L3.15211 37.855C1.37965 36.0825 1.37965 33.2088 3.15211 31.4363ZM56.9055 21.5736C57.9627 22.6309 58.0328 24.2976 57.1245 25.4358L49.107 25.5434L34.6804 25.4742L34.5817 4.91346L34.5719 2.88648C35.7473 2.001 37.4253 2.09345 38.4957 3.16383L56.9055 21.5736ZM34.69 27.4742L46.6668 27.5317L41.9741 32.1115C41.5789 32.4972 41.5712 33.1303 41.9569 33.5256C42.3426 33.9208 42.9758 33.9285 43.371 33.5428L49.5239 27.538L55.1226 27.4629L29.3403 53.2452L29.2443 33.2653L29.7273 33.2677L29.7275 33.2677C32.4821 33.2809 34.7072 31.0557 34.694 28.3011L34.69 27.4742ZM27.2443 33.2555L27.3498 55.2327C26.1738 56.2793 24.3674 56.2418 23.2363 55.1108L14.0878 45.9623L10.2854 42.1599L4.56632 36.4407C3.66816 35.5426 3.58368 34.1389 4.31287 33.1456L6.33979 33.1553L6.33985 33.1553L11.3159 33.1789H11.316L18.2824 33.2127H18.2825L27.2443 33.2555ZM6.34933 31.1554L6.2619 31.1549L32.5813 4.83557L32.5817 4.92307L32.6852 26.4742L32.694 28.3107C32.7019 29.9532 31.3797 31.2755 29.7373 31.2677H29.7371L28.2445 31.2602L28.2443 31.2602L20.69 31.2242L24.4418 27.4721C24.8323 27.0815 24.8323 26.4484 24.4418 26.0579C24.0513 25.6674 23.4181 25.6674 23.0276 26.0579L17.8751 31.2107L13.7233 31.1906L24.4084 20.5056C24.7989 20.115 24.7989 19.4819 24.4084 19.0913C24.0178 18.7008 23.3847 18.7008 22.9941 19.0913L10.9085 31.177L6.34939 31.1554H6.34933ZM8.25465 58.3308C7.86413 58.7214 7.86413 59.3545 8.25465 59.7451C8.64518 60.1356 9.27834 60.1356 9.66887 59.7451L15.1163 54.2976C15.5068 53.9071 15.5068 53.2739 15.1163 52.8834C14.7258 52.4929 14.0926 52.4929 13.7021 52.8834L8.25465 58.3308ZM27.4139 17.4997C27.228 17.6857 26.97 17.7927 26.707 17.7927C26.444 17.7927 26.186 17.6857 26 17.4997C25.8139 17.3137 25.707 17.0557 25.707 16.7927C25.707 16.5287 25.814 16.2717 26 16.0857C26.186 15.8987 26.444 15.7927 26.707 15.7927C26.97 15.7927 27.228 15.8987 27.4139 16.0857C27.6 16.2717 27.707 16.5287 27.707 16.7927C27.707 17.0557 27.5999 17.3137 27.4139 17.4997ZM1.91393 51.9134C1.72803 52.0994 1.47003 52.2064 1.20703 52.2064C0.944033 52.2064 0.686033 52.0994 0.500033 51.9134C0.313933 51.7274 0.207033 51.4694 0.207033 51.2064C0.207033 50.9424 0.314033 50.6854 0.500033 50.4994C0.686033 50.3124 0.944033 50.2064 1.20703 50.2064C1.47003 50.2064 1.72803 50.3124 1.91393 50.4994C2.10003 50.6854 2.20703 50.9424 2.20703 51.2064C2.20703 51.4694 2.09993 51.7274 1.91393 51.9134Z" fill="#202020"/>
</g>
<defs>
<clipPath id="clip0_1_11589">
<rect width="60" height="60" fill="white"/>
</clipPath>
</defs>
</svg>
