<svg width="282" height="61" viewBox="0 0 282 61" fill="none" xmlns="http://www.w3.org/2000/svg">
<g filter="url(#filter0_d_1_12854)">
<path d="M158.052 5.2V15H156.26V6.74H151.178V15H149.386V5.2H158.052ZM164.763 7.44C165.491 7.44 166.14 7.59867 166.709 7.916C167.288 8.23333 167.741 8.68133 168.067 9.26C168.394 9.83867 168.557 10.506 168.557 11.262C168.557 12.018 168.394 12.69 168.067 13.278C167.741 13.8567 167.288 14.3047 166.709 14.622C166.14 14.9393 165.491 15.098 164.763 15.098C163.755 15.098 162.957 14.762 162.369 14.09V17.716H160.619V7.524H162.285V8.504C162.575 8.14933 162.929 7.88333 163.349 7.706C163.779 7.52867 164.25 7.44 164.763 7.44ZM164.567 13.6C165.211 13.6 165.739 13.3853 166.149 12.956C166.569 12.5267 166.779 11.962 166.779 11.262C166.779 10.562 166.569 9.99733 166.149 9.568C165.739 9.13867 165.211 8.924 164.567 8.924C164.147 8.924 163.769 9.022 163.433 9.218C163.097 9.40467 162.831 9.67533 162.635 10.03C162.439 10.3847 162.341 10.7953 162.341 11.262C162.341 11.7287 162.439 12.1393 162.635 12.494C162.831 12.8487 163.097 13.124 163.433 13.32C163.769 13.5067 164.147 13.6 164.567 13.6ZM173.631 15.098C172.875 15.098 172.194 14.9347 171.587 14.608C170.98 14.2813 170.504 13.8287 170.159 13.25C169.823 12.662 169.655 11.9993 169.655 11.262C169.655 10.5247 169.823 9.86667 170.159 9.288C170.504 8.70933 170.98 8.25667 171.587 7.93C172.194 7.60333 172.875 7.44 173.631 7.44C174.396 7.44 175.082 7.60333 175.689 7.93C176.296 8.25667 176.767 8.70933 177.103 9.288C177.448 9.86667 177.621 10.5247 177.621 11.262C177.621 11.9993 177.448 12.662 177.103 13.25C176.767 13.8287 176.296 14.2813 175.689 14.608C175.082 14.9347 174.396 15.098 173.631 15.098ZM173.631 13.6C174.275 13.6 174.807 13.3853 175.227 12.956C175.647 12.5267 175.857 11.962 175.857 11.262C175.857 10.562 175.647 9.99733 175.227 9.568C174.807 9.13867 174.275 8.924 173.631 8.924C172.987 8.924 172.455 9.13867 172.035 9.568C171.624 9.99733 171.419 10.562 171.419 11.262C171.419 11.962 171.624 12.5267 172.035 12.956C172.455 13.3853 172.987 13.6 173.631 13.6ZM186.35 11.304C186.35 11.4253 186.34 11.598 186.322 11.822H180.456C180.558 12.3727 180.824 12.8113 181.254 13.138C181.692 13.4553 182.234 13.614 182.878 13.614C183.699 13.614 184.376 13.3433 184.908 12.802L185.846 13.88C185.51 14.2813 185.085 14.5847 184.572 14.79C184.058 14.9953 183.48 15.098 182.836 15.098C182.014 15.098 181.291 14.9347 180.666 14.608C180.04 14.2813 179.555 13.8287 179.21 13.25C178.874 12.662 178.706 11.9993 178.706 11.262C178.706 10.534 178.869 9.88067 179.196 9.302C179.532 8.714 179.994 8.25667 180.582 7.93C181.17 7.60333 181.832 7.44 182.57 7.44C183.298 7.44 183.946 7.60333 184.516 7.93C185.094 8.24733 185.542 8.7 185.86 9.288C186.186 9.86667 186.35 10.5387 186.35 11.304ZM182.57 8.84C182.01 8.84 181.534 9.008 181.142 9.344C180.759 9.67067 180.526 10.1093 180.442 10.66H184.684C184.609 10.1187 184.38 9.68 183.998 9.344C183.615 9.008 183.139 8.84 182.57 8.84ZM191.372 12.004H190.014V15H188.264V7.524H190.014V10.548H191.414L193.626 7.524H195.502L192.786 11.122L195.684 15H193.626L191.372 12.004ZM202.744 9.008H200.126V15H198.376V9.008H195.744V7.524H202.744V9.008ZM204.014 7.524H205.764V12.452L209.894 7.524H211.49V15H209.74V10.072L205.624 15H204.014V7.524ZM217.988 7.44C218.716 7.44 219.365 7.59867 219.934 7.916C220.513 8.23333 220.965 8.68133 221.292 9.26C221.619 9.83867 221.782 10.506 221.782 11.262C221.782 12.018 221.619 12.69 221.292 13.278C220.965 13.8567 220.513 14.3047 219.934 14.622C219.365 14.9393 218.716 15.098 217.988 15.098C216.98 15.098 216.182 14.762 215.594 14.09V17.716H213.844V7.524H215.51V8.504C215.799 8.14933 216.154 7.88333 216.574 7.706C217.003 7.52867 217.475 7.44 217.988 7.44ZM217.792 13.6C218.436 13.6 218.963 13.3853 219.374 12.956C219.794 12.5267 220.004 11.962 220.004 11.262C220.004 10.562 219.794 9.99733 219.374 9.568C218.963 9.13867 218.436 8.924 217.792 8.924C217.372 8.924 216.994 9.022 216.658 9.218C216.322 9.40467 216.056 9.67533 215.86 10.03C215.664 10.3847 215.566 10.7953 215.566 11.262C215.566 11.7287 215.664 12.1393 215.86 12.494C216.056 12.8487 216.322 13.124 216.658 13.32C216.994 13.5067 217.372 13.6 217.792 13.6ZM226.856 15.098C226.1 15.098 225.418 14.9347 224.812 14.608C224.205 14.2813 223.729 13.8287 223.384 13.25C223.048 12.662 222.88 11.9993 222.88 11.262C222.88 10.5247 223.048 9.86667 223.384 9.288C223.729 8.70933 224.205 8.25667 224.812 7.93C225.418 7.60333 226.1 7.44 226.856 7.44C227.621 7.44 228.307 7.60333 228.914 7.93C229.52 8.25667 229.992 8.70933 230.328 9.288C230.673 9.86667 230.846 10.5247 230.846 11.262C230.846 11.9993 230.673 12.662 230.328 13.25C229.992 13.8287 229.52 14.2813 228.914 14.608C228.307 14.9347 227.621 15.098 226.856 15.098ZM226.856 13.6C227.5 13.6 228.032 13.3853 228.452 12.956C228.872 12.5267 229.082 11.962 229.082 11.262C229.082 10.562 228.872 9.99733 228.452 9.568C228.032 9.13867 227.5 8.924 226.856 8.924C226.212 8.924 225.68 9.13867 225.26 9.568C224.849 9.99733 224.644 10.562 224.644 11.262C224.644 11.962 224.849 12.5267 225.26 12.956C225.68 13.3853 226.212 13.6 226.856 13.6ZM237.992 11.108C238.916 11.388 239.378 11.9853 239.378 12.9C239.378 13.572 239.126 14.09 238.622 14.454C238.118 14.818 237.372 15 236.382 15H232.574V7.524H236.228C237.143 7.524 237.857 7.692 238.37 8.028C238.884 8.364 239.14 8.84 239.14 9.456C239.14 9.83867 239.038 10.17 238.832 10.45C238.636 10.73 238.356 10.9493 237.992 11.108ZM234.24 10.646H236.074C236.98 10.646 237.432 10.3333 237.432 9.708C237.432 9.10133 236.98 8.798 236.074 8.798H234.24V10.646ZM236.242 13.726C237.204 13.726 237.684 13.4133 237.684 12.788C237.684 12.4613 237.572 12.2187 237.348 12.06C237.124 11.892 236.774 11.808 236.298 11.808H234.24V13.726H236.242ZM244.028 7.44C245.13 7.44 245.97 7.706 246.548 8.238C247.136 8.76067 247.43 9.554 247.43 10.618V15H245.778V14.09C245.564 14.4167 245.256 14.6687 244.854 14.846C244.462 15.014 243.986 15.098 243.426 15.098C242.866 15.098 242.376 15.0047 241.956 14.818C241.536 14.622 241.21 14.356 240.976 14.02C240.752 13.6747 240.64 13.2873 240.64 12.858C240.64 12.186 240.888 11.6493 241.382 11.248C241.886 10.8373 242.675 10.632 243.748 10.632H245.68V10.52C245.68 9.99733 245.522 9.596 245.204 9.316C244.896 9.036 244.434 8.896 243.818 8.896C243.398 8.896 242.983 8.96133 242.572 9.092C242.171 9.22267 241.83 9.40467 241.55 9.638L240.864 8.364C241.256 8.06533 241.728 7.83667 242.278 7.678C242.829 7.51933 243.412 7.44 244.028 7.44ZM243.79 13.824C244.229 13.824 244.616 13.726 244.952 13.53C245.298 13.3247 245.54 13.0353 245.68 12.662V11.794H243.874C242.866 11.794 242.362 12.1253 242.362 12.788C242.362 13.1053 242.488 13.3573 242.74 13.544C242.992 13.7307 243.342 13.824 243.79 13.824ZM249.596 7.524H251.346V10.562H255.112V7.524H256.862V15H255.112V12.046H251.346V15H249.596V7.524ZM259.207 7.524H260.957V12.452L265.087 7.524H266.683V15H264.933V10.072L260.817 15H259.207V7.524ZM276.037 11.304C276.037 11.4253 276.028 11.598 276.009 11.822H270.143C270.246 12.3727 270.512 12.8113 270.941 13.138C271.38 13.4553 271.921 13.614 272.565 13.614C273.387 13.614 274.063 13.3433 274.595 12.802L275.533 13.88C275.197 14.2813 274.773 14.5847 274.259 14.79C273.746 14.9953 273.167 15.098 272.523 15.098C271.702 15.098 270.979 14.9347 270.353 14.608C269.728 14.2813 269.243 13.8287 268.897 13.25C268.561 12.662 268.393 11.9993 268.393 11.262C268.393 10.534 268.557 9.88067 268.883 9.302C269.219 8.714 269.681 8.25667 270.269 7.93C270.857 7.60333 271.52 7.44 272.257 7.44C272.985 7.44 273.634 7.60333 274.203 7.93C274.782 8.24733 275.23 8.7 275.547 9.288C275.874 9.86667 276.037 10.5387 276.037 11.304ZM272.257 8.84C271.697 8.84 271.221 9.008 270.829 9.344C270.447 9.67067 270.213 10.1093 270.129 10.66H274.371C274.297 10.1187 274.068 9.68 273.685 9.344C273.303 9.008 272.827 8.84 272.257 8.84ZM149.386 25.2H151.178V32.158L156.442 25.2H158.136V35H156.344V28.056L151.08 35H149.386V25.2ZM165.154 31.108C165.62 31.2387 165.98 31.4533 166.232 31.752C166.493 32.0413 166.624 32.3913 166.624 32.802C166.624 33.2593 166.47 33.6653 166.162 34.02C165.854 34.3653 165.429 34.636 164.888 34.832C164.346 35.028 163.73 35.126 163.04 35.126C162.461 35.126 161.896 35.0607 161.346 34.93C160.795 34.79 160.296 34.594 159.848 34.342L160.352 33.04C160.716 33.2453 161.126 33.404 161.584 33.516C162.041 33.628 162.498 33.684 162.956 33.684C163.544 33.684 164.001 33.5953 164.328 33.418C164.664 33.2313 164.832 32.9793 164.832 32.662C164.832 32.3727 164.701 32.1487 164.44 31.99C164.188 31.8313 163.828 31.752 163.362 31.752H161.906V30.576H163.222C163.66 30.576 164.001 30.5013 164.244 30.352C164.496 30.2027 164.622 29.9927 164.622 29.722C164.622 29.4513 164.472 29.2367 164.174 29.078C163.875 28.9193 163.464 28.84 162.942 28.84C162.195 28.84 161.406 29.022 160.576 29.386L160.128 28.098C161.108 27.6407 162.097 27.412 163.096 27.412C163.73 27.412 164.3 27.5007 164.804 27.678C165.308 27.846 165.7 28.0887 165.98 28.406C166.269 28.714 166.414 29.0687 166.414 29.47C166.414 29.834 166.302 30.1607 166.078 30.45C165.854 30.73 165.546 30.9493 165.154 31.108ZM174.18 29.008H170.19V35H168.44V27.524H174.18V29.008ZM178.457 35.098C177.701 35.098 177.02 34.9347 176.413 34.608C175.807 34.2813 175.331 33.8287 174.985 33.25C174.649 32.662 174.481 31.9993 174.481 31.262C174.481 30.5247 174.649 29.8667 174.985 29.288C175.331 28.7093 175.807 28.2567 176.413 27.93C177.02 27.6033 177.701 27.44 178.457 27.44C179.223 27.44 179.909 27.6033 180.515 27.93C181.122 28.2567 181.593 28.7093 181.929 29.288C182.275 29.8667 182.447 30.5247 182.447 31.262C182.447 31.9993 182.275 32.662 181.929 33.25C181.593 33.8287 181.122 34.2813 180.515 34.608C179.909 34.9347 179.223 35.098 178.457 35.098ZM178.457 33.6C179.101 33.6 179.633 33.3853 180.053 32.956C180.473 32.5267 180.683 31.962 180.683 31.262C180.683 30.562 180.473 29.9973 180.053 29.568C179.633 29.1387 179.101 28.924 178.457 28.924C177.813 28.924 177.281 29.1387 176.861 29.568C176.451 29.9973 176.245 30.562 176.245 31.262C176.245 31.962 176.451 32.5267 176.861 32.956C177.281 33.3853 177.813 33.6 178.457 33.6ZM189.825 29.008H187.207V35H185.457V29.008H182.825V27.524H189.825V29.008ZM194.098 35.098C193.342 35.098 192.661 34.9347 192.054 34.608C191.447 34.2813 190.971 33.8287 190.626 33.25C190.29 32.662 190.122 31.9993 190.122 31.262C190.122 30.5247 190.29 29.8667 190.626 29.288C190.971 28.7093 191.447 28.2567 192.054 27.93C192.661 27.6033 193.342 27.44 194.098 27.44C194.863 27.44 195.549 27.6033 196.156 27.93C196.763 28.2567 197.234 28.7093 197.57 29.288C197.915 29.8667 198.088 30.5247 198.088 31.262C198.088 31.9993 197.915 32.662 197.57 33.25C197.234 33.8287 196.763 34.2813 196.156 34.608C195.549 34.9347 194.863 35.098 194.098 35.098ZM194.098 33.6C194.742 33.6 195.274 33.3853 195.694 32.956C196.114 32.5267 196.324 31.962 196.324 31.262C196.324 30.562 196.114 29.9973 195.694 29.568C195.274 29.1387 194.742 28.924 194.098 28.924C193.454 28.924 192.922 29.1387 192.502 29.568C192.091 29.9973 191.886 30.562 191.886 31.262C191.886 31.962 192.091 32.5267 192.502 32.956C192.922 33.3853 193.454 33.6 194.098 33.6ZM205.235 31.108C206.159 31.388 206.621 31.9853 206.621 32.9C206.621 33.572 206.369 34.09 205.865 34.454C205.361 34.818 204.614 35 203.625 35H199.817V27.524H203.471C204.385 27.524 205.099 27.692 205.613 28.028C206.126 28.364 206.383 28.84 206.383 29.456C206.383 29.8387 206.28 30.17 206.075 30.45C205.879 30.73 205.599 30.9493 205.235 31.108ZM201.483 30.646H203.317C204.222 30.646 204.675 30.3333 204.675 29.708C204.675 29.1013 204.222 28.798 203.317 28.798H201.483V30.646ZM203.485 33.726C204.446 33.726 204.927 33.4133 204.927 32.788C204.927 32.4613 204.815 32.2187 204.591 32.06C204.367 31.892 204.017 31.808 203.541 31.808H201.483V33.726H203.485ZM215.261 27.524V35H213.511V29.008H210.711L210.641 30.492C210.594 31.4813 210.501 32.312 210.361 32.984C210.23 33.6467 210.001 34.174 209.675 34.566C209.357 34.9487 208.919 35.14 208.359 35.14C208.097 35.14 207.775 35.0887 207.393 34.986L207.477 33.516C207.607 33.544 207.719 33.558 207.813 33.558C208.167 33.558 208.433 33.418 208.611 33.138C208.788 32.8487 208.9 32.508 208.947 32.116C209.003 31.7147 209.049 31.1453 209.087 30.408L209.213 27.524H215.261ZM224.617 31.304C224.617 31.4253 224.608 31.598 224.589 31.822H218.723C218.826 32.3727 219.092 32.8113 219.521 33.138C219.96 33.4553 220.501 33.614 221.145 33.614C221.967 33.614 222.643 33.3433 223.175 32.802L224.113 33.88C223.777 34.2813 223.353 34.5847 222.839 34.79C222.326 34.9953 221.747 35.098 221.103 35.098C220.282 35.098 219.559 34.9347 218.933 34.608C218.308 34.2813 217.823 33.8287 217.477 33.25C217.141 32.662 216.973 31.9993 216.973 31.262C216.973 30.534 217.137 29.8807 217.463 29.302C217.799 28.714 218.261 28.2567 218.849 27.93C219.437 27.6033 220.1 27.44 220.837 27.44C221.565 27.44 222.214 27.6033 222.783 27.93C223.362 28.2473 223.81 28.7 224.127 29.288C224.454 29.8667 224.617 30.5387 224.617 31.304ZM220.837 28.84C220.277 28.84 219.801 29.008 219.409 29.344C219.027 29.6707 218.793 30.1093 218.709 30.66H222.951C222.877 30.1187 222.648 29.68 222.265 29.344C221.883 29.008 221.407 28.84 220.837 28.84ZM226.531 27.524H228.281V30.562H232.047V27.524H233.797V35H232.047V32.046H228.281V35H226.531V27.524ZM236.143 27.524H237.893V32.452L242.023 27.524H243.619V35H241.869V30.072L237.753 35H236.143V27.524ZM252.973 31.304C252.973 31.4253 252.964 31.598 252.945 31.822H247.079C247.182 32.3727 247.448 32.8113 247.877 33.138C248.316 33.4553 248.857 33.614 249.501 33.614C250.322 33.614 250.999 33.3433 251.531 32.802L252.469 33.88C252.133 34.2813 251.708 34.5847 251.195 34.79C250.682 34.9953 250.103 35.098 249.459 35.098C248.638 35.098 247.914 34.9347 247.289 34.608C246.664 34.2813 246.178 33.8287 245.833 33.25C245.497 32.662 245.329 31.9993 245.329 31.262C245.329 30.534 245.492 29.8807 245.819 29.302C246.155 28.714 246.617 28.2567 247.205 27.93C247.793 27.6033 248.456 27.44 249.193 27.44C249.921 27.44 250.57 27.6033 251.139 27.93C251.718 28.2473 252.166 28.7 252.483 29.288C252.81 29.8667 252.973 30.5387 252.973 31.304ZM249.193 28.84C248.633 28.84 248.157 29.008 247.765 29.344C247.382 29.6707 247.149 30.1093 247.065 30.66H251.307C251.232 30.1187 251.004 29.68 250.621 29.344C250.238 29.008 249.762 28.84 249.193 28.84ZM158.374 55L158.36 48.504L155.14 53.88H154.328L151.108 48.588V55H149.386V45.2H150.884L154.762 51.682L158.598 45.2H160.082L160.11 55H158.374ZM165.988 55.098C165.232 55.098 164.551 54.9347 163.944 54.608C163.338 54.2813 162.862 53.8287 162.516 53.25C162.18 52.662 162.012 51.9993 162.012 51.262C162.012 50.5247 162.18 49.8667 162.516 49.288C162.862 48.7093 163.338 48.2567 163.944 47.93C164.551 47.6033 165.232 47.44 165.988 47.44C166.754 47.44 167.44 47.6033 168.046 47.93C168.653 48.2567 169.124 48.7093 169.46 49.288C169.806 49.8667 169.978 50.5247 169.978 51.262C169.978 51.9993 169.806 52.662 169.46 53.25C169.124 53.8287 168.653 54.2813 168.046 54.608C167.44 54.9347 166.754 55.098 165.988 55.098ZM165.988 53.6C166.632 53.6 167.164 53.3853 167.584 52.956C168.004 52.5267 168.214 51.962 168.214 51.262C168.214 50.562 168.004 49.9973 167.584 49.568C167.164 49.1387 166.632 48.924 165.988 48.924C165.344 48.924 164.812 49.1387 164.392 49.568C163.982 49.9973 163.776 50.562 163.776 51.262C163.776 51.962 163.982 52.5267 164.392 52.956C164.812 53.3853 165.344 53.6 165.988 53.6ZM171.707 47.524H173.457V50.562H177.223V47.524H178.973V55H177.223V52.046H173.457V55H171.707V47.524ZM187.241 49.008H184.623V55H182.873V49.008H180.241V47.524H187.241V49.008ZM191.296 47.44C192.397 47.44 193.237 47.706 193.816 48.238C194.404 48.7607 194.698 49.554 194.698 50.618V55H193.046V54.09C192.831 54.4167 192.523 54.6687 192.122 54.846C191.73 55.014 191.254 55.098 190.694 55.098C190.134 55.098 189.644 55.0047 189.224 54.818C188.804 54.622 188.477 54.356 188.244 54.02C188.02 53.6747 187.908 53.2873 187.908 52.858C187.908 52.186 188.155 51.6493 188.65 51.248C189.154 50.8373 189.943 50.632 191.016 50.632H192.948V50.52C192.948 49.9973 192.789 49.596 192.472 49.316C192.164 49.036 191.702 48.896 191.086 48.896C190.666 48.896 190.251 48.9613 189.84 49.092C189.439 49.2227 189.098 49.4047 188.818 49.638L188.132 48.364C188.524 48.0653 188.995 47.8367 189.546 47.678C190.097 47.5193 190.68 47.44 191.296 47.44ZM191.058 53.824C191.497 53.824 191.884 53.726 192.22 53.53C192.565 53.3247 192.808 53.0353 192.948 52.662V51.794H191.142C190.134 51.794 189.63 52.1253 189.63 52.788C189.63 53.1053 189.756 53.3573 190.008 53.544C190.26 53.7307 190.61 53.824 191.058 53.824ZM203.962 52.004H202.702V55H200.966V52.004H199.706L197.886 55H195.814L198.264 51.136L195.996 47.524H197.858L199.678 50.548H200.966V47.524H202.702V50.548H203.976L205.81 47.524H207.672L205.404 51.136L207.868 55H205.782L203.962 52.004Z" fill="#202020"/>
<path fill-rule="evenodd" clip-rule="evenodd" d="M3.26493 51.8391L3 52.0477V54.6634L3.26493 54.8504H23.356L23.621 54.6634V52.0477L23.356 51.8391L20.9055 51.7C19.5588 51.6768 18.8854 51.5609 18.8854 50.6568C18.8854 50.4481 18.9406 50.1699 19.051 49.8222C19.1614 49.4513 20.3756 47.3649 22.6937 43.5631L31.7674 28.7151L43.5235 9.48571H44.4176V54.8504H50.5507V5.13909C50.5507 5.13909 37.6841 5.23182 35.5426 5.13909C33.4011 5.04636 32.1317 5 31.7343 5L31.4694 5.24341V6.98206L31.7343 7.22547C35.8407 7.43411 38.3243 7.71229 39.1854 8.06002C40.0684 8.38456 40.51 8.91775 40.51 9.65957C40.51 10.0537 40.3665 10.5057 40.0795 11.0157C39.9641 11.2157 38.4039 13.5862 36.1139 17.0512C35.868 17.1914 33.77 17.3146 27.4955 17.1642C25.3541 17.0715 24.0846 17.0251 23.6872 17.0251L23.4223 17.2685V19.0072L23.6872 19.2506C27.7936 19.4592 30.2773 19.7374 31.1383 20.0851C32.0213 20.4097 32.4629 20.9429 32.4629 21.6847C32.4629 21.9262 32.409 22.3803 32.3012 22.8132C31.0856 24.6489 29.8002 26.5887 28.5014 28.5479L20.1694 28.4437C18.0279 28.351 16.7584 28.3046 16.3611 28.3046L16.0961 28.548V30.2867L16.3611 30.5301C20.4674 30.7387 22.9511 31.0169 23.8121 31.3646C24.6952 31.6892 25.1367 32.2224 25.1367 32.9642C25.1367 33.1429 25.1072 33.4382 25.0481 33.7552C23.9597 35.3959 22.8978 36.996 21.8974 38.5029C21.5112 38.8791 21.1869 39.1014 20.879 39.2798C20.4352 39.5369 17.2669 39.5311 14.7617 39.5265C13.6531 39.5245 12.6744 39.5227 12.1191 39.5441C11.1546 39.5031 9.67266 39.4459 9.27527 39.4459L9.01035 39.6893V41.428L9.27527 41.6714C13.3816 41.88 15.8653 42.1582 16.7263 42.5059C17.6094 42.8305 18.0509 43.3637 18.0509 44.1055C18.0509 44.162 18.048 44.2302 18.0421 44.307C16.7492 46.2519 15.7895 47.6933 15.342 48.3618C14.1499 50.1004 13.2337 50.8075 12.5934 51.1784C12.1477 51.4366 9.67772 51.8878 7 52C6.4888 52 5.66785 51.9524 4.91398 51.9087L4.91375 51.9087H4.91371H4.91364C4.19296 51.8669 3.53363 51.8287 3.26493 51.8391ZM65.0979 50.0007C65.125 49.6589 65.1386 49.3954 65.1386 49.2102C65.1386 48.0423 64.9012 47.0168 64.4265 46.1337C63.9653 45.2364 63.3142 44.5457 62.4733 44.0614C61.6458 43.5629 60.7031 43.3136 59.6451 43.3136C58.5735 43.3136 57.6105 43.5629 56.7559 44.0614C55.9014 44.5599 55.23 45.2578 54.7417 46.1551C54.2669 47.0382 54.0295 48.0352 54.0295 49.1461C54.0295 50.2713 54.2737 51.2826 54.762 52.1799C55.2639 53.063 55.9692 53.7537 56.878 54.2522C57.7868 54.7507 58.838 55 60.0317 55C60.9676 55 61.8086 54.8433 62.5546 54.53C63.3007 54.2166 63.9178 53.7537 64.4061 53.1413L63.0429 51.4962C62.2698 52.3223 61.2864 52.7354 60.0927 52.7354C59.1568 52.7354 58.3701 52.4932 57.7326 52.009C57.1086 51.5105 56.722 50.841 56.5728 50.0007H65.0979ZM57.5698 46.2192C58.1395 45.7065 58.8313 45.4501 59.6451 45.4501C60.4725 45.4501 61.1643 45.7065 61.7204 46.2192C62.2766 46.732 62.6089 47.4014 62.7174 48.2275H56.5525C56.6746 47.3871 57.0137 46.7177 57.5698 46.2192ZM69.8329 54.2522C70.7281 54.7507 71.7386 55 72.8645 55C73.9225 55 74.8516 54.7721 75.6519 54.3163C76.4658 53.8463 77.0829 53.184 77.5034 52.3294L75.5502 51.133C75.2382 51.66 74.8448 52.0588 74.3701 52.3294C73.9089 52.5858 73.4003 52.714 72.8441 52.714C71.8811 52.714 71.0876 52.3935 70.4636 51.7526C69.8532 51.0974 69.548 50.2286 69.548 49.1461C69.548 48.0637 69.86 47.202 70.484 46.561C71.1079 45.9059 71.8946 45.5783 72.8441 45.5783C73.4003 45.5783 73.9089 45.7136 74.3701 45.9842C74.8448 46.2406 75.2382 46.6323 75.5502 47.1592L77.5034 45.9628C77.0965 45.1082 76.4861 44.4531 75.6723 43.9973C74.872 43.5415 73.9361 43.3136 72.8645 43.3136C71.7251 43.3136 70.7078 43.5629 69.8125 44.0614C68.9309 44.5599 68.2391 45.2507 67.7372 46.1337C67.2353 47.0168 66.9844 48.0209 66.9844 49.1461C66.9844 50.2713 67.2353 51.2826 67.7372 52.1799C68.2391 53.063 68.9376 53.7537 69.8329 54.2522ZM89.7568 49.2102C89.7568 49.3954 89.7433 49.6589 89.7161 50.0007H81.191C81.3402 50.841 81.7268 51.5105 82.3508 52.009C82.9883 52.4932 83.775 52.7354 84.7109 52.7354C85.9046 52.7354 86.888 52.3223 87.6612 51.4962L89.0244 53.1413C88.536 53.7537 87.9189 54.2166 87.1729 54.53C86.4268 54.8433 85.5858 55 84.6499 55C83.4563 55 82.405 54.7507 81.4962 54.2522C80.5874 53.7537 79.8821 53.063 79.3802 52.1799C78.8919 51.2826 78.6478 50.2713 78.6478 49.1461C78.6478 48.0352 78.8851 47.0382 79.3599 46.1551C79.8482 45.2578 80.5196 44.5599 81.3742 44.0614C82.2287 43.5629 83.1918 43.3136 84.2633 43.3136C85.3213 43.3136 86.264 43.5629 87.0915 44.0614C87.9324 44.5457 88.5835 45.2364 89.0447 46.1337C89.5195 47.0168 89.7568 48.0423 89.7568 49.2102ZM84.2633 45.4501C83.4495 45.4501 82.7577 45.7065 82.188 46.2192C81.6319 46.7177 81.2928 47.3871 81.1707 48.2275H87.3356C87.2271 47.4014 86.8948 46.732 86.3387 46.2192C85.7825 45.7065 85.0907 45.4501 84.2633 45.4501ZM95.0818 43.4418H92.5385V54.8504H95.0818V50.3425H100.555V54.8504H103.098V43.4418H100.555V48.0779H95.0818V43.4418ZM111.024 50.2785H109.05V54.8504H106.507V43.4418H109.05V48.0565H111.085L114.299 43.4418H117.026L113.079 48.9325L117.29 54.8504H114.299L111.024 50.2785ZM126.597 44.5314C125.756 43.7196 124.535 43.3136 122.934 43.3136C122.039 43.3136 121.191 43.4347 120.391 43.6768C119.591 43.919 118.906 44.2679 118.336 44.7237L119.333 46.6679C119.74 46.3118 120.235 46.034 120.818 45.8346C121.415 45.6352 122.019 45.5355 122.629 45.5355C123.524 45.5355 124.196 45.7492 124.643 46.1765C125.105 46.6038 125.335 47.2162 125.335 48.0138V48.1847H122.527C120.967 48.1847 119.821 48.4981 119.089 49.1248C118.37 49.7372 118.01 50.5562 118.01 51.5817C118.01 52.2369 118.173 52.8279 118.499 53.3549C118.838 53.8677 119.313 54.2736 119.923 54.5727C120.533 54.8576 121.246 55 122.059 55C122.873 55 123.565 54.8718 124.135 54.6154C124.718 54.3448 125.166 53.9603 125.478 53.4618V54.8504H127.878V48.1634C127.878 46.5397 127.451 45.329 126.597 44.5314ZM124.277 52.6072C123.789 52.9063 123.226 53.0558 122.588 53.0558C121.937 53.0558 121.429 52.9134 121.062 52.6285C120.696 52.3437 120.513 51.9591 120.513 51.4749C120.513 50.4636 121.246 49.958 122.71 49.958H125.335V51.2826C125.132 51.8523 124.779 52.2938 124.277 52.6072Z" fill="#202020"/>
<path fill-rule="evenodd" clip-rule="evenodd" d="M127.153 5H86.4601L85.6123 5.89019V34.3762L86.4601 35.2663H127.153L128 34.3762V5.89019L127.153 5ZM120.839 29.7064V27.3268H111.781L117.181 21.6922C118.308 20.5252 119.073 19.4858 119.477 18.5741C119.88 17.6624 120.082 16.6959 120.082 15.6748C120.082 14.0337 119.536 12.739 118.442 11.7908C117.349 10.8243 115.877 10.3411 114.027 10.3411C112.647 10.3411 111.394 10.5964 110.267 11.107C109.157 11.6176 108.257 12.3287 107.567 13.2404L109.283 14.8542C110.343 13.4684 111.848 12.7755 113.799 12.7755C115.011 12.7755 115.936 13.0581 116.575 13.6234C117.231 14.1704 117.559 14.9454 117.559 15.9483C117.559 16.623 117.408 17.2977 117.105 17.9724C116.802 18.6288 116.213 19.4129 115.339 20.3246L108.147 27.8465V29.7064H120.839ZM103.395 19.7502C102.218 18.7109 100.367 18.1912 97.8441 18.1912H95.8759L96.3554 12.9396H104.203V10.5599H94.2358L93.3022 20.5708H97.3142C99.2655 20.5708 100.645 20.8717 101.452 21.4734C102.26 22.0569 102.663 22.9231 102.663 24.0719C102.663 25.1295 102.293 25.9683 101.553 26.5883C100.83 27.19 99.8038 27.4909 98.4749 27.4909C97.4319 27.4909 96.4395 27.3085 95.4975 26.9438C94.5554 26.5609 93.7817 26.0595 93.1761 25.4395L92.0154 27.6003C92.7724 28.3297 93.7312 28.9041 94.8919 29.3235C96.0526 29.7246 97.2553 29.9252 98.5001 29.9252C99.9636 29.9252 101.192 29.6699 102.184 29.1594C103.193 28.6306 103.942 27.9194 104.43 27.0259C104.934 26.1142 105.187 25.093 105.187 23.9625C105.187 22.1755 104.59 20.7714 103.395 19.7502Z" fill="#F98C37"/>
</g>
<defs>
<filter id="filter0_d_1_12854" x="0" y="2" width="281.037" height="58.0981" filterUnits="userSpaceOnUse" color-interpolation-filters="sRGB">
<feFlood flood-opacity="0" result="BackgroundImageFix"/>
<feColorMatrix in="SourceAlpha" type="matrix" values="0 0 0 0 0 0 0 0 0 0 0 0 0 0 0 0 0 0 127 0" result="hardAlpha"/>
<feOffset dx="1" dy="1"/>
<feGaussianBlur stdDeviation="2"/>
<feColorMatrix type="matrix" values="0 0 0 0 0 0 0 0 0 0 0 0 0 0 0 0 0 0 0.15 0"/>
<feBlend mode="normal" in2="BackgroundImageFix" result="effect1_dropShadow_1_12854"/>
<feBlend mode="normal" in="SourceGraphic" in2="effect1_dropShadow_1_12854" result="shape"/>
</filter>
</defs>
</svg>
