<svg width="60" height="60" viewBox="0 0 60 60" fill="none" xmlns="http://www.w3.org/2000/svg">
<g id="place" clip-path="url(#clip0_1_11598)">
<path id="Union" fill-rule="evenodd" clip-rule="evenodd" d="M20.5 12C20.5 6.41507 24.5373 2 30 2C35.4627 2 39.5 6.41507 39.5 12C39.5 13.2846 38.9922 15.014 38.12 16.987C37.2591 18.9341 36.0905 21.0157 34.872 22.9712C33.6239 24.9742 32.3352 26.8263 31.2964 28.2394C30.7826 28.9384 30.3406 29.5153 30 29.9458C29.6594 29.5153 29.2174 28.9384 28.7036 28.2394C27.6648 26.8263 26.3761 24.9742 25.128 22.9712C23.9095 21.0157 22.7409 18.9341 21.88 16.987C21.0078 15.014 20.5 13.2846 20.5 12ZM30 0C23.3125 0 18.5 5.43466 18.5 12C18.5 13.7142 19.1496 15.7571 20.0508 17.7957C20.7351 19.3434 21.5927 20.95 22.5042 22.5H15.5H14V20C14 16.134 10.866 13 7 13C3.13401 13 0 16.134 0 20V27C0 27.5523 0.447715 28 1 28C1.55228 28 2 27.5523 2 27V20C2 17.2386 4.23858 15 7 15C9.76142 15 12 17.2386 12 20V23.5V31V48.101C10.7295 46.8045 8.95869 46 7 46C5.04131 46 3.27052 46.8045 2 48.101V36C2 35.4477 1.55228 35 1 35C0.447715 35 0 35.4477 0 36V53C0 56.866 3.13401 60 7 60H12H23H53C56.866 60 60 56.866 60 53V20C60 16.134 56.866 13 53 13C49.134 13 46 16.134 46 20V22.5H37.4958C38.4073 20.95 39.2649 19.3434 39.9492 17.7957C40.8504 15.7571 41.5 13.7142 41.5 12C41.5 5.43466 36.6875 0 30 0ZM17.9754 24.5H23.7266C24.9121 26.3722 26.111 28.0894 27.0922 29.424C28.1344 30.8418 28.9767 31.8909 29.2929 32.2071L30 32.9142L30.7071 32.2071C31.0233 31.8909 31.8656 30.8418 32.9078 29.424C33.889 28.0894 35.0879 26.3722 36.2734 24.5H46V36.5H30.404L17.9754 24.5ZM30 38.5H46V43.5H37.5H37.0858L36.7929 43.7929L22.5858 58H14.5328L28.1832 45.2303L28.9657 44.4983L28.1814 43.7681L14 30.5647V24.5H15.096L29.3054 38.2194L29.596 38.5H30ZM37.9142 45.5H46V53H48C48 50.2386 50.2386 48 53 48C55.7614 48 58 50.2386 58 53C58 55.7614 55.7614 58 53 58H25.4142L37.9142 45.5ZM53 46C51.0413 46 49.2705 46.8045 48 48.101V44.5V37.5V23.5V20C48 17.2386 50.2386 15 53 15C55.7614 15 58 17.2386 58 20V48.101C56.7295 46.8045 54.9587 46 53 46ZM26.0343 44.5017L11.6052 58H7C4.23858 58 2 55.7614 2 53C2 50.2386 4.23858 48 7 48C9.76142 48 12 50.2386 12 53H14V33.2974L26.0343 44.5017ZM26.5 12C26.5 10.067 28.067 8.5 30 8.5C31.933 8.5 33.5 10.067 33.5 12C33.5 13.933 31.933 15.5 30 15.5C28.067 15.5 26.5 13.933 26.5 12ZM30 6.5C26.9624 6.5 24.5 8.96243 24.5 12C24.5 15.0376 26.9624 17.5 30 17.5C33.0376 17.5 35.5 15.0376 35.5 12C35.5 8.96243 33.0376 6.5 30 6.5ZM1.7069 32.207C1.521 32.393 1.263 32.5 1 32.5C0.737 32.5 0.479 32.393 0.293 32.207C0.1069 32.021 0 31.763 0 31.5C0 31.236 0.107 30.979 0.293 30.793C0.479 30.606 0.737 30.5 1 30.5C1.263 30.5 1.521 30.606 1.7069 30.793C1.893 30.979 2 31.236 2 31.5C2 31.763 1.8929 32.021 1.7069 32.207Z" fill="#202020"/>
</g>
<defs>
<clipPath id="clip0_1_11598">
<rect width="60" height="60" fill="white"/>
</clipPath>
</defs>
</svg>
