<svg width="244" height="270" viewBox="0 0 244 270" fill="none" xmlns="http://www.w3.org/2000/svg">
<path d="M1.15332 13.9727V19.9503L29.9361 63.5872V58.2073L1.15332 13.9727Z" fill="url(#paint0_linear_386_1)"/>
<path d="M46.1264 51.6316L23.1434 16.3097L17.3436 7.39697L1.15332 13.9724L29.9361 58.207L46.1264 51.6316Z" fill="url(#paint1_linear_386_1)"/>
<path d="M153.462 158.034L124.08 113.8C119.482 116.391 109.928 121.571 108.489 121.571L137.872 165.805L153.462 158.034Z" fill="url(#paint2_linear_386_1)"/>
<path d="M139.671 83.3139L124.08 89.8893V77.934L108.49 84.5094V72.5541L92.8989 79.1295V67.1742L77.3082 73.7496V61.7943L61.7175 68.3697V56.4144L46.1268 62.9899V51.6323L29.9365 58.2077V63.5876L131.876 99.1547L139.671 95.8669V83.3139Z" fill="url(#paint3_linear_386_1)"/>
<path d="M169.653 138.906L139.671 95.8667L131.875 99.1544L124.08 102.442L153.463 146.677L169.653 138.906Z" fill="url(#paint4_linear_386_1)"/>
<path d="M153.463 146.677L124.08 102.442V113.8L153.463 158.035V146.677Z" fill="url(#paint5_linear_386_1)"/>
<path d="M139.67 95.8673L169.652 138.906L242.209 108.42L183.444 19.9512L117.483 49.2166L139.67 83.3143V95.8673Z" fill="url(#paint6_linear_386_1)"/>
<path d="M108.489 84.5093L124.08 77.9338L95.2969 33.6992L85.8105 37.7007L108.489 72.554V84.5093Z" fill="url(#paint7_linear_386_1)"/>
<path d="M46.1266 62.9902L61.7173 56.4148L39.0389 21.5615L32.9345 12.1802L23.1436 16.3107L46.1266 51.6327V62.9902Z" fill="url(#paint8_linear_386_1)"/>
<path d="M92.8991 79.1294L108.49 72.554L85.8114 37.7007L79.707 28.3193L70.2207 32.3208L92.8991 67.1741V79.1294Z" fill="url(#paint9_linear_386_1)"/>
<path d="M124.08 89.8891L139.67 83.3137L117.484 49.216L110.888 39.0791L101.52 43.2635L95.2969 33.6992L124.08 77.9338V89.8891Z" fill="url(#paint10_linear_386_1)"/>
<path d="M77.3083 73.7495L92.899 67.1741L70.2206 32.3208L64.1162 22.9395L54.6299 26.9409L77.3083 61.7942V73.7495Z" fill="url(#paint11_linear_386_1)"/>
<path d="M61.7175 68.3691L77.3082 61.7937L54.6297 26.9404L48.5254 17.5591L39.0391 21.5605L61.7175 56.4138V68.3691Z" fill="url(#paint12_linear_386_1)"/>
<path d="M106.69 203.465L77.3076 159.23V170.588L106.69 214.823V203.465Z" fill="url(#paint13_linear_386_1)"/>
<path d="M29.9365 216.018V227.375L59.319 271.61V260.252L29.9365 216.018Z" fill="url(#paint14_linear_386_1)"/>
<path d="M90.5004 233.951L61.118 189.716L46.127 197.487L75.5094 241.722L90.5004 233.951Z" fill="url(#paint15_linear_386_1)"/>
<path d="M137.872 165.805L108.489 121.571V132.928L137.872 177.163V165.805Z" fill="url(#paint16_linear_386_1)"/>
<path d="M75.5093 253.079L46.1268 208.845L29.9365 216.018L59.319 260.253L75.5093 253.079Z" fill="url(#paint17_linear_386_1)"/>
<path d="M169.652 138.905V145.481L242.209 113.799V108.419L169.652 138.905Z" fill="url(#paint18_linear_386_1)"/>
<path d="M153.462 146.677V158.035L137.871 165.806V177.163L122.281 184.336V195.694L106.69 203.465V214.822L90.4997 222.593V233.951L75.5087 241.722V253.079L59.3184 260.253V271.61L65.9144 269.219L169.652 145.482V138.906L153.462 146.677Z" fill="url(#paint19_linear_386_1)"/>
<path d="M75.5094 241.722L46.127 197.487V208.845L75.5094 253.079V241.722Z" fill="url(#paint20_linear_386_1)"/>
<path d="M122.281 184.336L92.8984 140.102V151.459L122.281 195.694V184.336Z" fill="url(#paint21_linear_386_1)"/>
<path d="M137.872 177.163L108.489 132.928L92.8984 140.101L122.281 184.336L137.872 177.163Z" fill="url(#paint22_linear_386_1)"/>
<path d="M106.69 214.823L77.3075 170.588C72.3113 173.179 62.0766 178.359 61.1172 178.359L90.4996 222.593L106.69 214.823Z" fill="url(#paint23_linear_386_1)"/>
<path d="M90.4996 222.594L61.1172 178.359V189.716L90.4996 233.951V222.594Z" fill="url(#paint24_linear_386_1)"/>
<path d="M122.281 195.694L92.8983 151.459L77.3076 159.23L106.69 203.465L122.281 195.694Z" fill="url(#paint25_linear_386_1)"/>
<path d="M30.1392 210.42L59.5217 254.654M30.1392 210.42V221.777L59.5217 266.012M30.1392 210.42L46.3296 203.247M59.5217 254.654V266.012M59.5217 254.654L75.712 247.481M59.5217 266.012L66.1177 263.621L169.856 139.884M46.3296 191.889L75.712 236.124M46.3296 191.889V203.247M46.3296 191.889L61.3206 184.118M75.712 236.124V247.481M75.712 236.124L90.703 228.353M75.712 247.481L46.3296 203.247M61.3206 172.761L90.703 216.995M61.3206 172.761V184.118M61.3206 172.761C62.28 172.761 72.5139 167.58 77.5109 164.99M90.703 216.995V228.353M90.703 216.995L106.893 209.224M90.703 228.353L61.3206 184.118M77.5109 153.632L106.893 197.867M77.5109 153.632V164.99M77.5109 153.632L93.1016 145.861M106.893 197.867V209.224M106.893 197.867L122.484 190.096M106.893 209.224L77.5109 164.99M93.1016 134.504L122.484 178.738M93.1016 134.504V145.861M93.1016 134.504L108.692 127.33M122.484 178.738V190.096M122.484 178.738L138.075 171.565M122.484 190.096L93.1016 145.861M108.692 115.973L138.075 160.208M108.692 115.973V127.33M108.692 115.973C110.131 115.973 119.686 110.792 124.283 108.202M138.075 160.208V171.565M138.075 160.208L153.665 152.437M138.075 171.565L108.692 127.33M124.283 96.8445L153.665 141.079M124.283 96.8445V108.202M124.283 96.8445L132.078 93.5568M153.665 141.079V152.437M153.665 141.079L169.856 133.308M153.665 152.437L124.283 108.202M169.856 139.884V133.308M169.856 139.884L242.412 108.202V102.822M169.856 133.308L139.874 90.2691M169.856 133.308L242.412 102.822M139.874 90.2691V77.716M139.874 90.2691L132.078 93.5568M242.412 102.822L183.647 14.3529L117.687 43.6185M139.874 77.716L124.283 84.2914V72.3361M139.874 77.716L117.687 43.6185M124.283 72.3361L108.692 78.9115V66.9562M124.283 72.3361L95.5002 28.1015M108.692 66.9562L93.1016 73.5316V61.5763M108.692 66.9562L86.0135 32.1025M93.1016 61.5763L77.5109 68.1517V56.1964M93.1016 61.5763L70.4228 26.7226M77.5109 56.1964L61.9202 62.7719V50.8166M77.5109 56.1964L54.8322 21.3427M61.9202 50.8166L46.3296 57.392V46.0344M61.9202 50.8166L39.2415 15.9628M46.3296 46.0344L30.1392 52.6098M46.3296 46.0344L23.3456 10.7117M30.1392 52.6098L1.35645 8.37522M30.1392 52.6098V57.9897M95.5002 28.1015L101.723 37.6657L111.091 33.4814L117.687 43.6185M95.5002 28.1015L86.0135 32.1025M1.35645 8.37522L17.5468 1.7998L23.3456 10.7117M1.35645 8.37522V14.3529L30.1392 57.9897M30.1392 57.9897L132.078 93.5568M86.0135 32.1025L79.9095 22.7216L70.4228 26.7226M70.4228 26.7226L64.3188 17.3417L54.8322 21.3427M54.8322 21.3427L48.7281 11.9618L39.2415 15.9628M39.2415 15.9628L33.1375 6.58193L23.3456 10.7117" stroke="#202020" stroke-width="1.5"/>
<defs>
<linearGradient id="paint0_linear_386_1" x1="-5.63654" y1="56.428" x2="16.3902" y2="37.9608" gradientUnits="userSpaceOnUse">
<stop offset="0.0082" stop-color="#F9E5DA"/>
<stop offset="0.334" stop-color="#F8E1D4"/>
<stop offset="0.5291" stop-color="#F4DCCE"/>
<stop offset="0.59375" stop-color="#F3D9C9"/>
<stop offset="0.6899" stop-color="#F2D5C1"/>
<stop offset="0.8318" stop-color="#F0CEB8"/>
<stop offset="1" stop-color="#F3C7AB"/>
</linearGradient>
<linearGradient id="paint1_linear_386_1" x1="54.949" y1="70.578" x2="1.67453" y2="5.89628" gradientUnits="userSpaceOnUse">
<stop offset="0.0082" stop-color="#F9E5DA"/>
<stop offset="0.334" stop-color="#F8E1D4"/>
<stop offset="0.5291" stop-color="#F2D5C1"/>
<stop offset="0.6899" stop-color="#F0CEB8"/>
<stop offset="0.8318" stop-color="#F3C7AB"/>
<stop offset="0.9602" stop-color="#F3C7AB"/>
<stop offset="1" stop-color="#F4C09F"/>
</linearGradient>
<linearGradient id="paint2_linear_386_1" x1="108.489" y1="139.803" x2="153.462" y2="139.803" gradientUnits="userSpaceOnUse">
<stop offset="0.0082" stop-color="#F9E5DA"/>
<stop offset="0.334" stop-color="#F8E1D4"/>
<stop offset="0.5291" stop-color="#F4DCCE"/>
<stop offset="0.6899" stop-color="#F2D5C1"/>
<stop offset="0.8318" stop-color="#F0CEB8"/>
<stop offset="0.9602" stop-color="#F3C7AB"/>
<stop offset="1" stop-color="#F4C09F"/>
</linearGradient>
<linearGradient id="paint3_linear_386_1" x1="125.9" y1="89.4422" x2="23.7633" y2="49.4489" gradientUnits="userSpaceOnUse">
<stop offset="0.0082" stop-color="#F9E5DA"/>
<stop offset="0.334" stop-color="#F8E1D4"/>
<stop offset="0.5291" stop-color="#F4DCCE"/>
<stop offset="0.6899" stop-color="#F2D5C1"/>
<stop offset="0.8318" stop-color="#F0CEB8"/>
<stop offset="0.9602" stop-color="#F3C7AB"/>
<stop offset="1" stop-color="#F4C09F"/>
</linearGradient>
<linearGradient id="paint4_linear_386_1" x1="124.08" y1="121.272" x2="169.653" y2="121.272" gradientUnits="userSpaceOnUse">
<stop offset="0.0082" stop-color="#F9E5DA"/>
<stop offset="0.334" stop-color="#F8E1D4"/>
<stop offset="0.5291" stop-color="#F4DCCE"/>
<stop offset="0.6899" stop-color="#F2D5C1"/>
<stop offset="0.8318" stop-color="#F0CEB8"/>
<stop offset="0.9602" stop-color="#F3C7AB"/>
<stop offset="1" stop-color="#F4C09F"/>
</linearGradient>
<linearGradient id="paint5_linear_386_1" x1="124.08" y1="130.238" x2="153.463" y2="130.238" gradientUnits="userSpaceOnUse">
<stop offset="0.0082" stop-color="#F9E5DA"/>
<stop offset="0.334" stop-color="#F8E1D4"/>
<stop offset="0.5291" stop-color="#F4DCCE"/>
<stop offset="0.6899" stop-color="#F2D5C1"/>
<stop offset="0.8318" stop-color="#F0CEB8"/>
<stop offset="0.9602" stop-color="#F3C7AB"/>
<stop offset="1" stop-color="#F4C09F"/>
</linearGradient>
<linearGradient id="paint6_linear_386_1" x1="204.153" y1="121.337" x2="135.066" y2="17.8158" gradientUnits="userSpaceOnUse">
<stop offset="0.0082" stop-color="#F9E5DA"/>
<stop offset="0.334" stop-color="#F8E1D4"/>
<stop offset="0.5291" stop-color="#F4DCCE"/>
<stop offset="0.6899" stop-color="#F2D5C1"/>
<stop offset="0.8318" stop-color="#F0CEB8"/>
<stop offset="0.9602" stop-color="#F3C7AB"/>
<stop offset="1" stop-color="#F4C09F"/>
</linearGradient>
<linearGradient id="paint7_linear_386_1" x1="122.876" y1="92.6649" x2="82.5934" y2="22.2797" gradientUnits="userSpaceOnUse">
<stop offset="0.0082" stop-color="#F9E5DA"/>
<stop offset="0.334" stop-color="#F8E1D4"/>
<stop offset="0.5291" stop-color="#F4DCCE"/>
<stop offset="0.6899" stop-color="#F2D5C1"/>
<stop offset="0.8318" stop-color="#F0CEB8"/>
<stop offset="0.9602" stop-color="#F3C7AB"/>
<stop offset="1" stop-color="#F4C09F"/>
</linearGradient>
<linearGradient id="paint8_linear_386_1" x1="57.6862" y1="66.2417" x2="20.0646" y2="0.466908" gradientUnits="userSpaceOnUse">
<stop offset="0.0082" stop-color="#F9E5DA"/>
<stop offset="0.334" stop-color="#F8E1D4"/>
<stop offset="0.5291" stop-color="#F4DCCE"/>
<stop offset="0.6899" stop-color="#F2D5C1"/>
<stop offset="0.8318" stop-color="#F0CEB8"/>
<stop offset="0.9602" stop-color="#F3C7AB"/>
<stop offset="1" stop-color="#74AEB4"/>
<stop offset="1" stop-color="#F4C09F"/>
</linearGradient>
<linearGradient id="paint9_linear_386_1" x1="105.811" y1="84.2565" x2="64.7774" y2="16.3502" gradientUnits="userSpaceOnUse">
<stop offset="0.0082" stop-color="#F9E5DA"/>
<stop offset="0.334" stop-color="#F8E1D4"/>
<stop offset="0.5291" stop-color="#F4DCCE"/>
<stop offset="0.6899" stop-color="#F2D5C1"/>
<stop offset="0.8318" stop-color="#F0CEB8"/>
<stop offset="0.9602" stop-color="#F3C7AB"/>
<stop offset="1" stop-color="#F4C09F"/>
</linearGradient>
<linearGradient id="paint10_linear_386_1" x1="141.22" y1="101.281" x2="96.0876" y2="29.9375" gradientUnits="userSpaceOnUse">
<stop offset="0.0082" stop-color="#F9E5DA"/>
<stop offset="0.334" stop-color="#F8E1D4"/>
<stop offset="0.5291" stop-color="#F4DCCE"/>
<stop offset="0.6899" stop-color="#F2D5C1"/>
<stop offset="0.8318" stop-color="#F0CEB8"/>
<stop offset="0.9602" stop-color="#F3C7AB"/>
<stop offset="1" stop-color="#F4C09F"/>
</linearGradient>
<linearGradient id="paint11_linear_386_1" x1="92.871" y1="83.2945" x2="49.1214" y2="10.5588" gradientUnits="userSpaceOnUse">
<stop offset="0.0082" stop-color="#F9E5DA"/>
<stop offset="0.334" stop-color="#F8E1D4"/>
<stop offset="0.5291" stop-color="#F4DCCE"/>
<stop offset="0.6899" stop-color="#F2D5C1"/>
<stop offset="0.8318" stop-color="#F0CEB8"/>
<stop offset="0.9602" stop-color="#F3C7AB"/>
<stop offset="1" stop-color="#74AEB4"/>
<stop offset="1" stop-color="#F4C09F"/>
</linearGradient>
<linearGradient id="paint12_linear_386_1" x1="75.6645" y1="72.742" x2="32.622" y2="9.95613" gradientUnits="userSpaceOnUse">
<stop offset="0.0082" stop-color="#F9E5DA"/>
<stop offset="0.334" stop-color="#F8E1D4"/>
<stop offset="0.5291" stop-color="#F4DCCE"/>
<stop offset="0.6899" stop-color="#F2D5C1"/>
<stop offset="0.8318" stop-color="#F0CEB8"/>
<stop offset="0.9602" stop-color="#F3C7AB"/>
<stop offset="1" stop-color="#F4C09F"/>
</linearGradient>
<linearGradient id="paint13_linear_386_1" x1="77.3076" y1="187.027" x2="106.69" y2="187.027" gradientUnits="userSpaceOnUse">
<stop offset="0.0082" stop-color="#F9E5DA"/>
<stop offset="0.334" stop-color="#F8E1D4"/>
<stop offset="0.5291" stop-color="#F4DCCE"/>
<stop offset="0.6899" stop-color="#F2D5C1"/>
<stop offset="0.8318" stop-color="#F0CEB8"/>
<stop offset="0.9602" stop-color="#F3C7AB"/>
<stop offset="1" stop-color="#F4C09F"/>
</linearGradient>
<linearGradient id="paint14_linear_386_1" x1="29.9365" y1="243.814" x2="59.319" y2="243.814" gradientUnits="userSpaceOnUse">
<stop offset="0.0082" stop-color="#F9E5DA"/>
<stop offset="0.334" stop-color="#F8E1D4"/>
<stop offset="0.5291" stop-color="#F4DCCE"/>
<stop offset="0.6899" stop-color="#F2D5C1"/>
<stop offset="0.8318" stop-color="#F0CEB8"/>
<stop offset="0.9602" stop-color="#F3C7AB"/>
<stop offset="1" stop-color="#F4C09F"/>
</linearGradient>
<linearGradient id="paint15_linear_386_1" x1="46.127" y1="215.719" x2="90.5004" y2="215.719" gradientUnits="userSpaceOnUse">
<stop offset="0.0082" stop-color="#F9E5DA"/>
<stop offset="0.334" stop-color="#F8E1D4"/>
<stop offset="0.5291" stop-color="#F4DCCE"/>
<stop offset="0.6899" stop-color="#F2D5C1"/>
<stop offset="0.8318" stop-color="#F0CEB8"/>
<stop offset="0.9602" stop-color="#F3C7AB"/>
<stop offset="1" stop-color="#F4C09F"/>
</linearGradient>
<linearGradient id="paint16_linear_386_1" x1="108.489" y1="149.367" x2="137.872" y2="149.367" gradientUnits="userSpaceOnUse">
<stop offset="0.0082" stop-color="#F9E5DA"/>
<stop offset="0.334" stop-color="#F8E1D4"/>
<stop offset="0.5291" stop-color="#F4DCCE"/>
<stop offset="0.6899" stop-color="#F2D5C1"/>
<stop offset="0.8318" stop-color="#F0CEB8"/>
<stop offset="0.9602" stop-color="#F3C7AB"/>
<stop offset="1" stop-color="#F4C09F"/>
</linearGradient>
<linearGradient id="paint17_linear_386_1" x1="29.9365" y1="234.549" x2="75.5093" y2="234.549" gradientUnits="userSpaceOnUse">
<stop offset="0.0082" stop-color="#F9E5DA"/>
<stop offset="0.334" stop-color="#F8E1D4"/>
<stop offset="0.5291" stop-color="#F4DCCE"/>
<stop offset="0.6899" stop-color="#F2D5C1"/>
<stop offset="0.8318" stop-color="#F0CEB8"/>
<stop offset="0.9602" stop-color="#F3C7AB"/>
<stop offset="1" stop-color="#F4C09F"/>
</linearGradient>
<linearGradient id="paint18_linear_386_1" x1="230.589" y1="192.093" x2="205.11" y2="124.359" gradientUnits="userSpaceOnUse">
<stop offset="0.0082" stop-color="#F9E5DA"/>
<stop offset="0.334" stop-color="#F8E1D4"/>
<stop offset="0.5291" stop-color="#F4DCCE"/>
<stop offset="0.6899" stop-color="#F2D5C1"/>
<stop offset="0.8318" stop-color="#F0CEB8"/>
<stop offset="0.9602" stop-color="#F3C7AB"/>
<stop offset="1" stop-color="#F4C09F"/>
</linearGradient>
<linearGradient id="paint19_linear_386_1" x1="58.8241" y1="258.654" x2="136.598" y2="180.637" gradientUnits="userSpaceOnUse">
<stop offset="0.0082" stop-color="#F9E5DA"/>
<stop offset="0.334" stop-color="#F8E1D4"/>
<stop offset="0.5291" stop-color="#F4DCCE"/>
<stop offset="0.6899" stop-color="#F2D5C1"/>
<stop offset="0.8318" stop-color="#F0CEB8"/>
<stop offset="0.9602" stop-color="#F3C7AB"/>
<stop offset="1" stop-color="#F4C09F"/>
</linearGradient>
<linearGradient id="paint20_linear_386_1" x1="46.127" y1="225.283" x2="75.5094" y2="225.283" gradientUnits="userSpaceOnUse">
<stop offset="0.0082" stop-color="#F9E5DA"/>
<stop offset="0.334" stop-color="#F8E1D4"/>
<stop offset="0.5291" stop-color="#F4DCCE"/>
<stop offset="0.6899" stop-color="#F2D5C1"/>
<stop offset="0.8318" stop-color="#F0CEB8"/>
<stop offset="0.9602" stop-color="#F3C7AB"/>
<stop offset="1" stop-color="#F4C09F"/>
</linearGradient>
<linearGradient id="paint21_linear_386_1" x1="92.8984" y1="167.898" x2="122.281" y2="167.898" gradientUnits="userSpaceOnUse">
<stop offset="0.0082" stop-color="#F9E5DA"/>
<stop offset="0.334" stop-color="#F8E1D4"/>
<stop offset="0.5291" stop-color="#F4DCCE"/>
<stop offset="0.6899" stop-color="#F2D5C1"/>
<stop offset="0.8318" stop-color="#F0CEB8"/>
<stop offset="0.9602" stop-color="#F3C7AB"/>
<stop offset="1" stop-color="#F4C09F"/>
</linearGradient>
<linearGradient id="paint22_linear_386_1" x1="92.8984" y1="158.632" x2="137.872" y2="158.632" gradientUnits="userSpaceOnUse">
<stop offset="0.0082" stop-color="#F9E5DA"/>
<stop offset="0.334" stop-color="#F8E1D4"/>
<stop offset="0.5291" stop-color="#F4DCCE"/>
<stop offset="0.6899" stop-color="#F2D5C1"/>
<stop offset="0.8318" stop-color="#F0CEB8"/>
<stop offset="0.9602" stop-color="#F3C7AB"/>
<stop offset="1" stop-color="#F4C09F"/>
</linearGradient>
<linearGradient id="paint23_linear_386_1" x1="61.1172" y1="196.591" x2="106.69" y2="196.591" gradientUnits="userSpaceOnUse">
<stop offset="0.0082" stop-color="#F9E5DA"/>
<stop offset="0.334" stop-color="#F8E1D4"/>
<stop offset="0.5291" stop-color="#F4DCCE"/>
<stop offset="0.6899" stop-color="#F2D5C1"/>
<stop offset="0.8318" stop-color="#F0CEB8"/>
<stop offset="0.9602" stop-color="#F3C7AB"/>
<stop offset="1" stop-color="#F4C09F"/>
</linearGradient>
<linearGradient id="paint24_linear_386_1" x1="61.1172" y1="206.155" x2="90.4996" y2="206.155" gradientUnits="userSpaceOnUse">
<stop offset="0.0082" stop-color="#F9E5DA"/>
<stop offset="0.334" stop-color="#F8E1D4"/>
<stop offset="0.5291" stop-color="#F4DCCE"/>
<stop offset="0.6899" stop-color="#F2D5C1"/>
<stop offset="0.8318" stop-color="#F0CEB8"/>
<stop offset="0.9602" stop-color="#F3C7AB"/>
<stop offset="1" stop-color="#F4C09F"/>
</linearGradient>
<linearGradient id="paint25_linear_386_1" x1="77.3076" y1="177.462" x2="122.281" y2="177.462" gradientUnits="userSpaceOnUse">
<stop offset="0.0082" stop-color="#F9E5DA"/>
<stop offset="0.334" stop-color="#F8E1D4"/>
<stop offset="0.5291" stop-color="#F4DCCE"/>
<stop offset="0.6899" stop-color="#F2D5C1"/>
<stop offset="0.8318" stop-color="#F0CEB8"/>
<stop offset="0.9602" stop-color="#F3C7AB"/>
<stop offset="1" stop-color="#F4C09F"/>
</linearGradient>
</defs>
</svg>
