<svg width="294" height="164" viewBox="0 0 294 164" fill="none" xmlns="http://www.w3.org/2000/svg">
<path d="M120.395 42.3727L59.4453 34.1182V44.4363L120.395 54.7544V42.3727Z" fill="url(#paint0_linear_305_7964)"/>
<path d="M214.59 8.66653L150.87 5.91504L55.29 28.6149L120.395 37.5572L214.59 8.66653Z" fill="url(#paint1_linear_305_7964)"/>
<path d="M120.396 42.3723L213.205 12.1059L214.59 11.418V8.6665L120.396 37.5572V42.3723Z" fill="url(#paint2_linear_305_7964)"/>
<path d="M120.396 54.7542L213.205 18.9847V17.609V12.106L120.396 42.3724V54.7542Z" fill="url(#paint3_linear_305_7964)"/>
<path d="M122.473 70.5752L239.523 22.424L240.909 21.7361V17.6089L122.473 65.7601V70.5752Z" fill="url(#paint4_linear_305_7964)"/>
<path d="M127.321 105.657L263.765 32.0545L265.15 31.3666V27.9272L127.321 100.154V105.657Z" fill="url(#paint5_linear_305_7964)"/>
<path d="M240.909 17.6089H213.205V18.9846L120.395 54.7541L59.4457 44.436L37.2822 51.3147L122.473 65.7601L240.909 17.6089Z" fill="url(#paint6_linear_305_7964)"/>
<path d="M127.321 118.038L263.765 38.2451V36.1814V32.0542L127.321 105.657V118.038Z" fill="url(#paint7_linear_305_7964)"/>
<path d="M122.473 82.9572L239.523 29.3031V27.9273V22.4243L122.473 70.5755V82.9572Z" fill="url(#paint8_linear_305_7964)"/>
<path d="M120.395 37.5576L55.29 28.6152V28.7267V33.4303L59.4457 34.1182L120.395 42.3727V37.5576Z" fill="url(#paint9_linear_305_7964)"/>
<path d="M133.555 145.553L-1.50391 102.905V107.033L0.573918 107.72L133.555 151.056V145.553Z" fill="url(#paint10_linear_305_7964)"/>
<path d="M0.574219 107.72V118.038L133.555 163.438V151.056L0.574219 107.72Z" fill="url(#paint11_linear_305_7964)"/>
<path d="M288.006 38.2448L263.765 36.1812V38.2448L127.321 118.038L22.0448 93.2747L-1.50391 102.905L133.555 145.553L288.006 38.2448Z" fill="url(#paint12_linear_305_7964)"/>
<path d="M133.555 163.439L286.621 47.8757V43.0605L133.555 151.057V163.439Z" fill="url(#paint13_linear_305_7964)"/>
<path d="M122.473 65.7598L37.2822 51.3145V56.8174L41.4379 57.5053L122.473 70.5749V65.7598Z" fill="url(#paint14_linear_305_7964)"/>
<path d="M133.555 145.553V151.056L286.621 43.0602L288.006 41.6845V38.2451L133.555 145.553Z" fill="url(#paint15_linear_305_7964)"/>
<path d="M265.15 27.9272H239.524V29.303L122.473 82.9572L41.4379 67.8239L19.2744 75.3906L127.321 100.154L265.15 27.9272Z" fill="url(#paint16_linear_305_7964)"/>
<path d="M122.473 70.575L41.4375 57.5054V67.8235L122.473 82.9567V70.575Z" fill="url(#paint17_linear_305_7964)"/>
<path d="M127.321 105.658L22.0449 81.582V93.2759L127.321 118.039V105.658Z" fill="url(#paint18_linear_305_7964)"/>
<path d="M127.321 100.154L19.2744 75.3906V80.8936L22.0448 81.5815L127.321 105.657V100.154Z" fill="url(#paint19_linear_305_7964)"/>
<path d="M4.88154 103.127V113.445L137.862 158.844M4.88154 103.127L137.862 146.463M4.88154 103.127L2.80371 102.439V98.3115M137.862 158.844V146.463M137.862 158.844L290.929 43.2816V38.4665M137.862 146.463L290.929 38.4665M137.862 146.463V140.96M26.3524 76.9874V88.6813M26.3524 76.9874L131.629 101.063M26.3524 76.9874L23.582 76.2996V70.7966M26.3524 88.6813L131.629 113.445M26.3524 88.6813L2.80371 98.3115M131.629 113.445V101.063M131.629 113.445L268.073 33.6514V31.5877M131.629 101.063L268.073 27.4605M131.629 101.063V95.56M45.7454 52.9118L126.781 65.9814M45.7454 52.9118V63.23M45.7454 52.9118L41.5898 52.224V46.721M45.7454 63.23L126.781 78.3632M45.7454 63.23L23.582 70.7966M126.781 78.3632V65.9814M126.781 78.3632L243.831 24.709M126.781 65.9814L243.831 17.8303M126.781 65.9814V61.1663M63.7532 29.5241L124.703 37.7786M63.7532 29.5241V39.8422M63.7532 29.5241L59.5976 28.8362V24.1316V24.0211M63.7532 39.8422L124.703 50.1603M63.7532 39.8422L41.5898 46.721M124.703 50.1603V37.7786M124.703 50.1603L217.512 14.3909V13.0151M124.703 37.7786L217.512 7.51216M124.703 37.7786V32.9635M217.512 7.51216V13.0151M217.512 7.51216L218.897 6.82428V4.07279M243.831 17.8303V24.709M243.831 17.8303L245.217 17.1424V13.0151M268.073 27.4605V31.5877M268.073 27.4605L269.458 26.7726V23.3333M290.929 38.4665L292.314 37.0907V33.6514M2.80371 98.3115L137.862 140.96M137.862 140.96L292.314 33.6514M292.314 33.6514L268.073 31.5877M269.458 23.3333L131.629 95.56M269.458 23.3333H243.831V24.709M131.629 95.56L23.582 70.7966M41.5898 46.721L126.781 61.1663M126.781 61.1663L245.217 13.0151M245.217 13.0151H217.512M59.5976 24.0211L155.177 1.32129L218.897 4.07279M59.5976 24.0211L124.703 32.9635M124.703 32.9635L218.897 4.07279" stroke="#202020" stroke-width="1.5"/>
<defs>
<linearGradient id="paint0_linear_305_7964" x1="81.9253" y1="88.2682" x2="94.146" y2="20.3335" gradientUnits="userSpaceOnUse">
<stop stop-color="#F9E5DA"/>
<stop offset="0.2168" stop-color="#F8E1D4"/>
<stop offset="0.4523" stop-color="#F4DCCE"/>
<stop offset="0.6966" stop-color="#F0CEB8"/>
<stop offset="0.9455" stop-color="#F3C7AB"/>
<stop offset="1" stop-color="#F4C09F"/>
</linearGradient>
<linearGradient id="paint1_linear_305_7964" x1="122.82" y1="30.6792" x2="211.898" y2="-59.0115" gradientUnits="userSpaceOnUse">
<stop stop-color="#F9E5DA"/>
<stop offset="0.2168" stop-color="#F8E1D4"/>
<stop offset="0.4523" stop-color="#F4DCCE"/>
<stop offset="0.6966" stop-color="#F0CEB8"/>
<stop offset="0.9455" stop-color="#F3C7AB"/>
<stop offset="1" stop-color="#F4C09F"/>
</linearGradient>
<linearGradient id="paint2_linear_305_7964" x1="152.672" y1="113.016" x2="167.336" y2="24.2193" gradientUnits="userSpaceOnUse">
<stop stop-color="#F9E5DA"/>
<stop offset="0.2168" stop-color="#F8E1D4"/>
<stop offset="0.4523" stop-color="#F4DCCE"/>
<stop offset="0.6966" stop-color="#F0CEB8"/>
<stop offset="0.9455" stop-color="#F3C7AB"/>
<stop offset="1" stop-color="#F4C09F"/>
</linearGradient>
<linearGradient id="paint3_linear_305_7964" x1="131.478" y1="65.7622" x2="198.888" y2="-2.11177" gradientUnits="userSpaceOnUse">
<stop stop-color="#F9E5DA"/>
<stop offset="0.2168" stop-color="#F8E1D4"/>
<stop offset="0.4523" stop-color="#F4DCCE"/>
<stop offset="0.6966" stop-color="#F0CEB8"/>
<stop offset="0.9455" stop-color="#F3C7AB"/>
<stop offset="1" stop-color="#F4C09F"/>
</linearGradient>
<linearGradient id="paint4_linear_305_7964" x1="195.178" y1="89.2109" x2="180.584" y2="39.7162" gradientUnits="userSpaceOnUse">
<stop stop-color="#F9E5DA"/>
<stop offset="0.2168" stop-color="#F8E1D4"/>
<stop offset="0.4523" stop-color="#F4DCCE"/>
<stop offset="0.6966" stop-color="#F0CEB8"/>
<stop offset="0.9455" stop-color="#F3C7AB"/>
<stop offset="1" stop-color="#F4C09F"/>
</linearGradient>
<linearGradient id="paint5_linear_305_7964" x1="215.047" y1="112.513" x2="195.44" y2="64.2018" gradientUnits="userSpaceOnUse">
<stop stop-color="#F9E5DA"/>
<stop offset="0.2168" stop-color="#F8E1D4"/>
<stop offset="0.4523" stop-color="#F4DCCE"/>
<stop offset="0.6966" stop-color="#F0CEB8"/>
<stop offset="0.9455" stop-color="#F3C7AB"/>
<stop offset="1" stop-color="#F4C09F"/>
</linearGradient>
<linearGradient id="paint6_linear_305_7964" x1="121.608" y1="51.8313" x2="239.575" y2="-66.9479" gradientUnits="userSpaceOnUse">
<stop stop-color="#F9E5DA"/>
<stop offset="0.2168" stop-color="#F8E1D4"/>
<stop offset="0.4523" stop-color="#F4DCCE"/>
<stop offset="0.6966" stop-color="#F0CEB8"/>
<stop offset="0.9455" stop-color="#F3C7AB"/>
<stop offset="1" stop-color="#F4C09F"/>
</linearGradient>
<linearGradient id="paint7_linear_305_7964" x1="138.23" y1="128.872" x2="248.975" y2="17.3656" gradientUnits="userSpaceOnUse">
<stop stop-color="#F9E5DA"/>
<stop offset="0.2168" stop-color="#F8E1D4"/>
<stop offset="0.4523" stop-color="#F4DCCE"/>
<stop offset="0.6966" stop-color="#F0CEB8"/>
<stop offset="0.9455" stop-color="#F3C7AB"/>
<stop offset="1" stop-color="#F4C09F"/>
</linearGradient>
<linearGradient id="paint8_linear_305_7964" x1="135.113" y1="95.5109" x2="223.502" y2="6.51328" gradientUnits="userSpaceOnUse">
<stop stop-color="#F9E5DA"/>
<stop offset="0.2168" stop-color="#F8E1D4"/>
<stop offset="0.4523" stop-color="#F4DCCE"/>
<stop offset="0.6966" stop-color="#F0CEB8"/>
<stop offset="0.9455" stop-color="#F3C7AB"/>
<stop offset="1" stop-color="#F4C09F"/>
</linearGradient>
<linearGradient id="paint9_linear_305_7964" x1="80.8509" y1="74.7398" x2="88.2608" y2="32.5703" gradientUnits="userSpaceOnUse">
<stop stop-color="#F9E5DA"/>
<stop offset="0.2168" stop-color="#F8E1D4"/>
<stop offset="0.4523" stop-color="#F4DCCE"/>
<stop offset="0.6966" stop-color="#F0CEB8"/>
<stop offset="0.9455" stop-color="#F3C7AB"/>
<stop offset="1" stop-color="#F4C09F"/>
</linearGradient>
<linearGradient id="paint10_linear_305_7964" x1="45.0104" y1="187.801" x2="66.8359" y2="123.767" gradientUnits="userSpaceOnUse">
<stop stop-color="#F9E5DA"/>
<stop offset="0.2168" stop-color="#F8E1D4"/>
<stop offset="0.4523" stop-color="#F4DCCE"/>
<stop offset="0.6966" stop-color="#F0CEB8"/>
<stop offset="0.9455" stop-color="#F3C7AB"/>
<stop offset="1" stop-color="#F4C09F"/>
</linearGradient>
<linearGradient id="paint11_linear_305_7964" x1="49.7663" y1="181.938" x2="73.9817" y2="116.154" gradientUnits="userSpaceOnUse">
<stop stop-color="#F9E5DA"/>
<stop offset="0.2168" stop-color="#F8E1D4"/>
<stop offset="0.4523" stop-color="#F4DCCE"/>
<stop offset="0.6966" stop-color="#F0CEB8"/>
<stop offset="0.9455" stop-color="#F3C7AB"/>
<stop offset="1" stop-color="#F4C09F"/>
</linearGradient>
<linearGradient id="paint12_linear_305_7964" x1="114.162" y1="99.4656" x2="290.254" y2="-77.8376" gradientUnits="userSpaceOnUse">
<stop stop-color="#F9E5DA"/>
<stop offset="0.2168" stop-color="#F8E1D4"/>
<stop offset="0.4523" stop-color="#F4DCCE"/>
<stop offset="0.6966" stop-color="#F0CEB8"/>
<stop offset="0.9455" stop-color="#F3C7AB"/>
<stop offset="1" stop-color="#F4C09F"/>
</linearGradient>
<linearGradient id="paint13_linear_305_7964" x1="139.615" y1="169.457" x2="275.811" y2="32.3246" gradientUnits="userSpaceOnUse">
<stop stop-color="#F9E5DA"/>
<stop offset="0.2168" stop-color="#F8E1D4"/>
<stop offset="0.4523" stop-color="#F4DCCE"/>
<stop offset="0.6966" stop-color="#F0CEB8"/>
<stop offset="0.9455" stop-color="#F3C7AB"/>
<stop offset="1" stop-color="#F4C09F"/>
</linearGradient>
<linearGradient id="paint14_linear_305_7964" x1="68.1683" y1="109.787" x2="80.486" y2="57.6958" gradientUnits="userSpaceOnUse">
<stop stop-color="#F9E5DA"/>
<stop offset="0.2168" stop-color="#F8E1D4"/>
<stop offset="0.4523" stop-color="#F4DCCE"/>
<stop offset="0.6966" stop-color="#F0CEB8"/>
<stop offset="0.9455" stop-color="#F3C7AB"/>
<stop offset="1" stop-color="#F4C09F"/>
</linearGradient>
<linearGradient id="paint15_linear_305_7964" x1="225.331" y1="133.733" x2="212.954" y2="100.029" gradientUnits="userSpaceOnUse">
<stop stop-color="#F9E5DA"/>
<stop offset="0.2168" stop-color="#F8E1D4"/>
<stop offset="0.4523" stop-color="#F4DCCE"/>
<stop offset="0.6966" stop-color="#F0CEB8"/>
<stop offset="0.9455" stop-color="#F3C7AB"/>
<stop offset="1" stop-color="#F4C09F"/>
</linearGradient>
<linearGradient id="paint16_linear_305_7964" x1="115.895" y1="77.7995" x2="261.721" y2="-69.0301" gradientUnits="userSpaceOnUse">
<stop stop-color="#F9E5DA"/>
<stop offset="0.2168" stop-color="#F8E1D4"/>
<stop offset="0.4523" stop-color="#F4DCCE"/>
<stop offset="0.6966" stop-color="#F0CEB8"/>
<stop offset="0.9455" stop-color="#F3C7AB"/>
<stop offset="1" stop-color="#F4C09F"/>
</linearGradient>
<linearGradient id="paint17_linear_305_7964" x1="76.3825" y1="114.92" x2="85.2053" y2="43.2064" gradientUnits="userSpaceOnUse">
<stop stop-color="#F9E5DA"/>
<stop offset="0.2168" stop-color="#F8E1D4"/>
<stop offset="0.4523" stop-color="#F4DCCE"/>
<stop offset="0.6966" stop-color="#F0CEB8"/>
<stop offset="0.9455" stop-color="#F3C7AB"/>
<stop offset="1" stop-color="#F4C09F"/>
</linearGradient>
<linearGradient id="paint18_linear_305_7964" x1="64.5693" y1="138.474" x2="80.8629" y2="75.337" gradientUnits="userSpaceOnUse">
<stop stop-color="#F9E5DA"/>
<stop offset="0.2168" stop-color="#F8E1D4"/>
<stop offset="0.4523" stop-color="#F4DCCE"/>
<stop offset="0.6966" stop-color="#F0CEB8"/>
<stop offset="0.9455" stop-color="#F3C7AB"/>
<stop offset="1" stop-color="#F4C09F"/>
</linearGradient>
<linearGradient id="paint19_linear_305_7964" x1="58.377" y1="147.9" x2="73.851" y2="87.5665" gradientUnits="userSpaceOnUse">
<stop stop-color="#F9E5DA"/>
<stop offset="0.2168" stop-color="#F8E1D4"/>
<stop offset="0.4523" stop-color="#F4DCCE"/>
<stop offset="0.6966" stop-color="#F0CEB8"/>
<stop offset="0.9455" stop-color="#F3C7AB"/>
<stop offset="1" stop-color="#F4C09F"/>
</linearGradient>
</defs>
</svg>
