<svg width="246" height="270" viewBox="0 0 246 270" fill="none" xmlns="http://www.w3.org/2000/svg">
<path d="M122.205 117.566L163.984 70.8623V64.1025L122.205 110.806V117.566Z" fill="url(#paint0_linear_314_195)"/>
<path d="M129.578 118.795L198.39 75.7785L163.984 70.8623L122.205 117.566L129.578 118.795Z" fill="url(#paint1_linear_314_195)"/>
<path d="M141.251 154.436L220.508 167.342V158.739L141.251 147.676V154.436Z" fill="url(#paint2_linear_314_195)"/>
<path d="M141.251 147.676L220.508 158.739L229.11 138.459L140.637 142.147C141.047 143.99 141.741 147.676 141.251 147.676Z" fill="url(#paint3_linear_314_195)"/>
<path d="M229.11 138.46V129.856L140.637 135.387V142.147L229.11 138.46Z" fill="url(#paint4_linear_314_195)"/>
<path d="M129.578 125.553L198.39 83.1526V75.7783L129.578 118.795V125.553Z" fill="url(#paint5_linear_314_195)"/>
<path d="M229.11 138.46L220.508 158.739V167.343L213.135 187.622V196.225L203.305 224.493V233.097L202.076 236.169V247.231L240.169 108.963V100.974L229.11 129.857V138.46Z" fill="url(#paint6_linear_314_195)"/>
<path d="M198.39 83.1523L129.578 125.553L136.951 128.011L240.169 92.9847V90.5266L198.39 83.1523Z" fill="url(#paint7_linear_314_195)"/>
<path d="M136.95 134.771L240.169 100.974V92.9849L136.95 128.011V134.771Z" fill="url(#paint8_linear_314_195)"/>
<path d="M140.637 135.387L229.11 129.857L240.169 100.974L136.95 134.772L140.637 135.387Z" fill="url(#paint9_linear_314_195)"/>
<path d="M93.9425 241.085V233.711L109.833 190.269L93.9425 187.622L91.48 194.585L76.125 238.012L93.9425 241.085Z" fill="url(#paint10_linear_314_195)"/>
<path d="M202.077 236.169L203.305 233.096L134.493 171.644H125.892L158.455 229.409L202.077 236.169Z" fill="url(#paint11_linear_314_195)"/>
<path d="M125.277 231.253L120.361 177.175L119.747 183.935L125.277 239.242V231.253Z" fill="url(#paint12_linear_314_195)"/>
<path d="M158.454 237.398L125.891 177.175H120.361L125.276 231.253L158.454 237.398Z" fill="url(#paint13_linear_314_195)"/>
<path d="M213.135 187.622L140.637 158.739V165.499L213.135 196.225V187.622Z" fill="url(#paint14_linear_314_195)"/>
<path d="M213.136 196.225L140.637 165.499H134.493L203.306 224.493L213.136 196.225Z" fill="url(#paint15_linear_314_195)"/>
<path d="M203.305 224.493L134.493 165.499V171.644L203.305 233.097V224.493Z" fill="url(#paint16_linear_314_195)"/>
<path d="M158.455 229.409L125.892 171.644V177.175L158.455 237.398V229.409Z" fill="url(#paint17_linear_314_195)"/>
<path d="M38.0327 253.99V246.616L53.3791 203.213L36.1896 200.526L33.7185 207.515L18.3721 250.917L38.0327 253.99Z" fill="url(#paint18_linear_314_195)"/>
<path d="M18.3722 250.917L33.7185 207.515L16.529 204.828L0.554688 255.219L18.3722 258.292V250.917Z" fill="url(#paint19_linear_314_195)"/>
<path d="M122.205 110.806L163.984 64.1025L132.649 58.5718L115.446 108.963L122.205 110.806Z" fill="url(#paint20_linear_314_195)"/>
<path d="M125.277 239.241L119.747 183.934L112.374 183.32L109.833 190.269L93.9424 233.711L125.277 239.241Z" fill="url(#paint21_linear_314_195)"/>
<path d="M76.1255 245.387V238.013L91.4805 194.585L75.5111 191.923L72.879 198.886L56.4648 242.314L76.1255 245.387Z" fill="url(#paint22_linear_314_195)"/>
<path d="M158.454 229.409V237.397L125.277 231.252V239.241L93.9429 233.71V241.085L76.1254 238.012V245.386L56.4647 242.314V249.688L38.0328 246.615V253.99L18.3722 250.917V258.291L0.554688 255.219V272.425L95.1716 250.917L159.069 247.23H202.077V236.168L158.454 229.409Z" fill="url(#paint23_linear_314_195)"/>
<path d="M56.4651 249.688V242.314L72.8793 198.885L55.8507 196.225L53.3796 203.213L38.0332 246.615L56.4651 249.688Z" fill="url(#paint24_linear_314_195)"/>
<path d="M96.4008 92.371L113.604 41.9801L94.5576 38.293L77.3545 88.6851L96.4008 92.371Z" fill="url(#paint25_linear_314_195)"/>
<path d="M77.3545 88.6848L94.5576 38.2927V31.5342L77.3545 81.9251V88.6848Z" fill="url(#paint26_linear_314_195)"/>
<path d="M96.4004 99.1306L113.603 49.3543V41.98L96.4004 92.3709V99.1306Z" fill="url(#paint27_linear_314_195)"/>
<path d="M220.508 167.342L141.251 154.436L140.637 153.734V158.739L213.135 187.622L220.508 167.342Z" fill="url(#paint28_linear_314_195)"/>
<path d="M115.446 108.962L132.649 58.5713V51.8115L115.446 102.202V108.962Z" fill="url(#paint29_linear_314_195)"/>
<path d="M115.447 102.203L132.65 51.8121L113.603 49.354L96.4004 99.1304L115.447 102.203Z" fill="url(#paint30_linear_314_195)"/>
<path d="M77.3539 81.9247L94.557 31.5338L75.5107 28.46L58.3076 78.8508L77.3539 81.9247Z" fill="url(#paint31_linear_314_195)"/>
<path d="M58.3076 78.8511L75.5107 28.4602V21.0859L58.3076 71.4768V78.8511Z" fill="url(#paint32_linear_314_195)"/>
<path d="M141.252 147.677C141.742 147.677 141.048 143.991 140.637 142.147V135.387L136.951 134.772V128.012L129.578 125.554V118.794L122.205 117.565V110.805L115.447 108.962V102.202L96.4006 99.1293V92.3696L77.3544 88.6824V81.9227L58.3081 78.8501V71.4758L39.2618 68.4032V61.6434L21.4443 58.5708V72.7048L28.8171 73.3193L107.46 115.721L139.303 152.202V135.386V152.202L140.637 153.733L141.252 154.435V147.677Z" fill="url(#paint33_linear_314_195)"/>
<path d="M57.0793 11.2535L38.6474 7.56641L21.4443 58.5718L39.2618 61.6444L57.0793 11.2535Z" fill="url(#paint34_linear_314_195)"/>
<path d="M39.2617 68.404L57.0792 18.6277V11.2534L39.2617 61.6443V68.404Z" fill="url(#paint35_linear_314_195)"/>
<path d="M58.308 71.4774L75.5111 21.0865L57.0792 18.6284L39.2617 68.4048L58.308 71.4774Z" fill="url(#paint36_linear_314_195)"/>
<path d="M5.14746 249.458L22.9649 252.531V245.156M5.14746 249.458L21.1218 199.067L38.3115 201.754M5.14746 249.458V266.665L99.7644 245.156L163.662 241.469H206.669M22.9649 245.156L42.6256 248.229V240.855M22.9649 245.156L38.3115 201.754M42.6256 240.855L61.0575 243.927V236.553M42.6256 240.855L57.9722 197.452M61.0575 236.553L80.7182 239.626V232.251M61.0575 236.553L77.472 193.125M80.7182 232.251L98.5356 235.324V227.95M80.7182 232.251L96.0733 188.824M98.5356 227.95L129.87 233.48M98.5356 227.95L114.425 184.509M129.87 233.48V225.492M129.87 233.48L124.34 178.173M129.87 225.492L163.047 231.637M129.87 225.492L124.955 171.414M163.047 231.637V223.648M163.047 231.637L130.484 171.414M163.047 223.648L206.669 230.408M163.047 223.648L130.484 165.883M124.955 171.414L124.34 178.173M124.955 171.414H130.484M124.34 178.173L116.968 177.559L114.425 184.509M206.669 241.469V230.408M206.669 241.469L244.762 103.201V95.213M206.669 230.408L207.898 227.335M130.484 171.414V165.883M130.484 165.883H139.086M139.086 165.883L207.898 227.335M139.086 165.883V159.738M207.898 227.335V218.732M207.898 218.732L139.086 159.738M207.898 218.732L217.728 190.464M139.086 159.738H145.23M145.23 159.738L217.728 190.464M145.23 159.738V152.978M217.728 190.464V181.86M217.728 181.86L145.23 152.978M217.728 181.86L225.101 161.581M114.425 184.509L98.5356 181.86L96.0733 188.824M96.0733 188.824L80.1038 186.162L77.472 193.125M77.472 193.125L60.4431 190.464L57.9722 197.452M57.9722 197.452L40.7824 194.765L38.3115 201.754M145.23 152.978V147.972M145.844 148.676L225.101 161.581M145.844 148.676V141.916M145.844 148.676L145.23 147.972M225.101 161.581V152.978M225.101 152.978L145.844 141.916M225.101 152.978L233.703 132.699M145.844 141.916C146.336 141.916 145.639 138.229 145.23 136.386M145.23 136.386L233.703 132.699M145.23 136.386V129.626M233.703 132.699V124.095M233.703 124.095L145.23 129.626M233.703 124.095L244.762 95.213M145.23 129.626L141.543 129.011M141.543 129.011L244.762 95.213M141.543 129.011V122.251M244.762 95.213V87.2244M244.762 87.2244L141.543 122.251M244.762 87.2244V84.7662L202.983 77.392M141.543 122.251L134.171 119.793M134.171 119.793L202.983 77.392M134.171 119.793V113.033M202.983 77.392V70.0178M202.983 70.0178L134.171 113.033M202.983 70.0178L168.577 65.1016M134.171 113.033L126.798 111.805M126.798 111.805L168.577 65.1016M126.798 111.805V105.045M168.577 65.1016V58.3418M168.577 58.3418L126.798 105.045M168.577 58.3418L137.243 52.811M126.798 105.045L120.04 103.201M120.04 103.201V96.4417M120.04 103.201L137.243 52.811M137.243 52.811V46.0514M137.243 46.0514L120.04 96.4417M137.243 46.0514L118.196 43.5932M120.04 96.4417L100.993 93.3692M100.993 93.3692L118.196 43.5932M100.993 93.3692V86.6095M118.196 43.5932V36.219M118.196 36.219L100.993 86.6095M118.196 36.219L99.15 32.5318M100.993 86.6095L81.947 82.9231M81.947 82.9231L99.15 32.5318M81.947 82.9231V76.1634M99.15 32.5318V25.7728M99.15 25.7728L81.947 76.1634M99.15 25.7728L80.1038 22.6994M81.947 76.1634L62.9007 73.0903M62.9007 73.0903L80.1038 22.6994M62.9007 73.0903V65.7158M80.1038 22.6994V15.3253M80.1038 15.3253L62.9007 65.7158M80.1038 15.3253L61.6719 12.8663M62.9007 65.7158L43.8544 62.6431M43.8544 62.6431L61.6719 12.8663M43.8544 62.6431V55.8833M61.6719 12.8663V5.4928M61.6719 5.4928L43.8544 55.8833M61.6719 5.4928L43.24 1.80566L26.0369 52.811M43.8544 55.8833L26.0369 52.811M26.0369 52.811V66.9451L33.4097 67.5596L112.052 109.962L143.895 146.442M145.23 147.972L143.895 146.442M143.895 146.442V129.626" stroke="#202020" stroke-width="1.5"/>
<defs>
<linearGradient id="paint0_linear_314_195" x1="151.803" y1="99.4522" x2="133.741" y2="81.5874" gradientUnits="userSpaceOnUse">
<stop stop-color="#F2E0D5"/>
<stop offset="0.3285" stop-color="#F4DFD3"/>
<stop offset="0.5252" stop-color="#F4DCCE"/>
<stop offset="0.6873" stop-color="#F2D5C1"/>
<stop offset="0.8305" stop-color="#F0CEB8"/>
<stop offset="0.9599" stop-color="#F1C1A3"/>
<stop offset="1" stop-color="#F3BD9A"/>
</linearGradient>
<linearGradient id="paint1_linear_314_195" x1="162.195" y1="99.9594" x2="150.042" y2="78.915" gradientUnits="userSpaceOnUse">
<stop stop-color="#F2E0D5"/>
<stop offset="0.3285" stop-color="#F4DFD3"/>
<stop offset="0.5252" stop-color="#F4DCCE"/>
<stop offset="0.6873" stop-color="#F2D5C1"/>
<stop offset="0.8305" stop-color="#F0CEB8"/>
<stop offset="0.9599" stop-color="#F1C1A3"/>
<stop offset="1" stop-color="#F3BD9A"/>
</linearGradient>
<linearGradient id="paint2_linear_314_195" x1="184.2" y1="183.219" x2="177.186" y2="126.989" gradientUnits="userSpaceOnUse">
<stop stop-color="#F2E0D5"/>
<stop offset="0.3285" stop-color="#F4DFD3"/>
<stop offset="0.5252" stop-color="#F4DCCE"/>
<stop offset="0.6873" stop-color="#F2D5C1"/>
<stop offset="0.8305" stop-color="#F0CEB8"/>
<stop offset="0.9599" stop-color="#F1C1A3"/>
<stop offset="1" stop-color="#F3BD9A"/>
</linearGradient>
<linearGradient id="paint3_linear_314_195" x1="200.797" y1="170.122" x2="173.638" y2="123.09" gradientUnits="userSpaceOnUse">
<stop stop-color="#F2E0D5"/>
<stop offset="0.3285" stop-color="#F4DFD3"/>
<stop offset="0.5252" stop-color="#F4DCCE"/>
<stop offset="0.6873" stop-color="#F2D5C1"/>
<stop offset="0.8305" stop-color="#F0CEB8"/>
<stop offset="0.9599" stop-color="#F1C1A3"/>
<stop offset="1" stop-color="#F3BD9A"/>
</linearGradient>
<linearGradient id="paint4_linear_314_195" x1="187.092" y1="157.033" x2="182.17" y2="110.385" gradientUnits="userSpaceOnUse">
<stop stop-color="#F2E0D5"/>
<stop offset="0.3285" stop-color="#F4DFD3"/>
<stop offset="0.5252" stop-color="#F4DCCE"/>
<stop offset="0.6873" stop-color="#F2D5C1"/>
<stop offset="0.8305" stop-color="#F0CEB8"/>
<stop offset="0.9599" stop-color="#F1C1A3"/>
<stop offset="1" stop-color="#F3BD9A"/>
</linearGradient>
<linearGradient id="paint5_linear_314_195" x1="164.8" y1="104.27" x2="159.105" y2="79.163" gradientUnits="userSpaceOnUse">
<stop stop-color="#F2E0D5"/>
<stop offset="0.3285" stop-color="#F4DFD3"/>
<stop offset="0.5252" stop-color="#F4DCCE"/>
<stop offset="0.6873" stop-color="#F2D5C1"/>
<stop offset="0.8305" stop-color="#F0CEB8"/>
<stop offset="0.9599" stop-color="#F1C1A3"/>
<stop offset="1" stop-color="#F3BD9A"/>
</linearGradient>
<linearGradient id="paint6_linear_314_195" x1="248.019" y1="220.699" x2="194.208" y2="127.515" gradientUnits="userSpaceOnUse">
<stop stop-color="#F2E0D5"/>
<stop offset="0.3285" stop-color="#F4DFD3"/>
<stop offset="0.5252" stop-color="#F4DCCE"/>
<stop offset="0.6873" stop-color="#F2D5C1"/>
<stop offset="0.8305" stop-color="#F0CEB8"/>
<stop offset="0.9599" stop-color="#F1C1A3"/>
<stop offset="1" stop-color="#F3BD9A"/>
</linearGradient>
<linearGradient id="paint7_linear_314_195" x1="192.181" y1="120.697" x2="177.475" y2="95.2316" gradientUnits="userSpaceOnUse">
<stop stop-color="#F2E0D5"/>
<stop offset="0.3285" stop-color="#F4DFD3"/>
<stop offset="0.5252" stop-color="#F4DCCE"/>
<stop offset="0.6873" stop-color="#F2D5C1"/>
<stop offset="0.8305" stop-color="#F0CEB8"/>
<stop offset="0.9599" stop-color="#F1C1A3"/>
<stop offset="1" stop-color="#F3BD9A"/>
</linearGradient>
<linearGradient id="paint8_linear_314_195" x1="189.227" y1="123.472" x2="187.269" y2="95.3372" gradientUnits="userSpaceOnUse">
<stop stop-color="#F2E0D5"/>
<stop offset="0.3285" stop-color="#F4DFD3"/>
<stop offset="0.5252" stop-color="#F4DCCE"/>
<stop offset="0.6873" stop-color="#F2D5C1"/>
<stop offset="0.8305" stop-color="#F0CEB8"/>
<stop offset="0.9599" stop-color="#F1C1A3"/>
<stop offset="1" stop-color="#F3BD9A"/>
</linearGradient>
<linearGradient id="paint9_linear_314_195" x1="203.886" y1="144.423" x2="182.967" y2="108.198" gradientUnits="userSpaceOnUse">
<stop stop-color="#F2E0D5"/>
<stop offset="0.3285" stop-color="#F4DFD3"/>
<stop offset="0.5252" stop-color="#F4DCCE"/>
<stop offset="0.6873" stop-color="#F2D5C1"/>
<stop offset="0.8305" stop-color="#F0CEB8"/>
<stop offset="0.9599" stop-color="#F1C1A3"/>
<stop offset="1" stop-color="#F3BD9A"/>
</linearGradient>
<linearGradient id="paint10_linear_314_195" x1="104.884" y1="234.767" x2="81.7313" y2="194.674" gradientUnits="userSpaceOnUse">
<stop stop-color="#F2E0D5"/>
<stop offset="0.3285" stop-color="#F4DFD3"/>
<stop offset="0.5252" stop-color="#F4DCCE"/>
<stop offset="0.6873" stop-color="#F2D5C1"/>
<stop offset="0.8305" stop-color="#F0CEB8"/>
<stop offset="0.9599" stop-color="#F1C1A3"/>
<stop offset="1" stop-color="#F3BD9A"/>
</linearGradient>
<linearGradient id="paint11_linear_314_195" x1="188.308" y1="244.12" x2="141.313" y2="162.739" gradientUnits="userSpaceOnUse">
<stop stop-color="#F2E0D5"/>
<stop offset="0.3285" stop-color="#F4DFD3"/>
<stop offset="0.5252" stop-color="#F4DCCE"/>
<stop offset="0.6873" stop-color="#F2D5C1"/>
<stop offset="0.8305" stop-color="#F0CEB8"/>
<stop offset="0.9599" stop-color="#F1C1A3"/>
<stop offset="1" stop-color="#F3BD9A"/>
</linearGradient>
<linearGradient id="paint12_linear_314_195" x1="115.796" y1="220.477" x2="143.73" y2="171.704" gradientUnits="userSpaceOnUse">
<stop stop-color="#F2E0D5"/>
<stop offset="0.3285" stop-color="#F4DFD3"/>
<stop offset="0.5252" stop-color="#F4DCCE"/>
<stop offset="0.6873" stop-color="#F2D5C1"/>
<stop offset="0.8305" stop-color="#F0CEB8"/>
<stop offset="0.9599" stop-color="#F1C1A3"/>
<stop offset="1" stop-color="#F3BD9A"/>
</linearGradient>
<linearGradient id="paint13_linear_314_195" x1="148.168" y1="243.339" x2="112.561" y2="181.68" gradientUnits="userSpaceOnUse">
<stop stop-color="#F2E0D5"/>
<stop offset="0.3285" stop-color="#F4DFD3"/>
<stop offset="0.5252" stop-color="#F4DCCE"/>
<stop offset="0.6873" stop-color="#F2D5C1"/>
<stop offset="0.8305" stop-color="#F0CEB8"/>
<stop offset="0.9599" stop-color="#F1C1A3"/>
<stop offset="1" stop-color="#F3BD9A"/>
</linearGradient>
<linearGradient id="paint14_linear_314_195" x1="180.878" y1="208.696" x2="172.402" y2="140.5" gradientUnits="userSpaceOnUse">
<stop stop-color="#F2E0D5"/>
<stop offset="0.3285" stop-color="#F4DFD3"/>
<stop offset="0.5252" stop-color="#F4DCCE"/>
<stop offset="0.6873" stop-color="#F2D5C1"/>
<stop offset="0.8305" stop-color="#F0CEB8"/>
<stop offset="0.9599" stop-color="#F1C1A3"/>
<stop offset="1" stop-color="#F3BD9A"/>
</linearGradient>
<linearGradient id="paint15_linear_314_195" x1="200.075" y1="226.359" x2="157.319" y2="152.319" gradientUnits="userSpaceOnUse">
<stop stop-color="#F2E0D5"/>
<stop offset="0.3285" stop-color="#F4DFD3"/>
<stop offset="0.5252" stop-color="#F4DCCE"/>
<stop offset="0.6873" stop-color="#F2D5C1"/>
<stop offset="0.8305" stop-color="#F0CEB8"/>
<stop offset="0.9599" stop-color="#F1C1A3"/>
<stop offset="1" stop-color="#F3BD9A"/>
</linearGradient>
<linearGradient id="paint16_linear_314_195" x1="164.45" y1="240.694" x2="174.391" y2="148.275" gradientUnits="userSpaceOnUse">
<stop stop-color="#F2E0D5"/>
<stop offset="0.3285" stop-color="#F4DFD3"/>
<stop offset="0.5252" stop-color="#F4DCCE"/>
<stop offset="0.6873" stop-color="#F2D5C1"/>
<stop offset="0.8305" stop-color="#F0CEB8"/>
<stop offset="0.9599" stop-color="#F1C1A3"/>
<stop offset="1" stop-color="#F3BD9A"/>
</linearGradient>
<linearGradient id="paint17_linear_314_195" x1="133.663" y1="225.181" x2="161.562" y2="157.478" gradientUnits="userSpaceOnUse">
<stop stop-color="#F2E0D5"/>
<stop offset="0.3285" stop-color="#F4DFD3"/>
<stop offset="0.5252" stop-color="#F4DCCE"/>
<stop offset="0.6873" stop-color="#F2D5C1"/>
<stop offset="0.8305" stop-color="#F0CEB8"/>
<stop offset="0.9599" stop-color="#F1C1A3"/>
<stop offset="1" stop-color="#F3BD9A"/>
</linearGradient>
<linearGradient id="paint18_linear_314_195" x1="48.0712" y1="248.193" x2="24.4577" y2="207.301" gradientUnits="userSpaceOnUse">
<stop stop-color="#F2E0D5"/>
<stop offset="0.3285" stop-color="#F4DFD3"/>
<stop offset="0.5252" stop-color="#F4DCCE"/>
<stop offset="0.6873" stop-color="#F2D5C1"/>
<stop offset="0.8305" stop-color="#F0CEB8"/>
<stop offset="0.9599" stop-color="#F1C1A3"/>
<stop offset="1" stop-color="#F3BD9A"/>
</linearGradient>
<linearGradient id="paint19_linear_314_195" x1="29.1025" y1="252.096" x2="5.48897" y2="211.205" gradientUnits="userSpaceOnUse">
<stop stop-color="#F2E0D5"/>
<stop offset="0.3285" stop-color="#F4DFD3"/>
<stop offset="0.5252" stop-color="#F4DCCE"/>
<stop offset="0.6873" stop-color="#F2D5C1"/>
<stop offset="0.8305" stop-color="#F0CEB8"/>
<stop offset="0.9599" stop-color="#F1C1A3"/>
<stop offset="1" stop-color="#F3BD9A"/>
</linearGradient>
<linearGradient id="paint20_linear_314_195" x1="145.846" y1="97.1542" x2="125.837" y2="62.5061" gradientUnits="userSpaceOnUse">
<stop stop-color="#F2E0D5"/>
<stop offset="0.3285" stop-color="#F4DFD3"/>
<stop offset="0.5252" stop-color="#F4DCCE"/>
<stop offset="0.6873" stop-color="#F2D5C1"/>
<stop offset="0.8305" stop-color="#F0CEB8"/>
<stop offset="0.9599" stop-color="#F1C1A3"/>
<stop offset="1" stop-color="#F3BD9A"/>
</linearGradient>
<linearGradient id="paint21_linear_314_195" x1="124.621" y1="239.621" x2="97.1774" y2="192.096" gradientUnits="userSpaceOnUse">
<stop stop-color="#F2E0D5"/>
<stop offset="0.3285" stop-color="#F4DFD3"/>
<stop offset="0.5252" stop-color="#F4DCCE"/>
<stop offset="0.6873" stop-color="#F2D5C1"/>
<stop offset="0.8305" stop-color="#F0CEB8"/>
<stop offset="0.9599" stop-color="#F1C1A3"/>
<stop offset="1" stop-color="#F3BD9A"/>
</linearGradient>
<linearGradient id="paint22_linear_314_195" x1="86.173" y1="239.585" x2="62.8667" y2="199.226" gradientUnits="userSpaceOnUse">
<stop stop-color="#F2E0D5"/>
<stop offset="0.3285" stop-color="#F4DFD3"/>
<stop offset="0.5252" stop-color="#F4DCCE"/>
<stop offset="0.6873" stop-color="#F2D5C1"/>
<stop offset="0.8305" stop-color="#F0CEB8"/>
<stop offset="0.9599" stop-color="#F1C1A3"/>
<stop offset="1" stop-color="#F3BD9A"/>
</linearGradient>
<linearGradient id="paint23_linear_314_195" x1="123.446" y1="292.636" x2="76.5098" y2="211.357" gradientUnits="userSpaceOnUse">
<stop stop-color="#F2E0D5"/>
<stop offset="0.3285" stop-color="#F4DFD3"/>
<stop offset="0.5252" stop-color="#F4DCCE"/>
<stop offset="0.6873" stop-color="#F2D5C1"/>
<stop offset="0.8305" stop-color="#F0CEB8"/>
<stop offset="0.9599" stop-color="#F1C1A3"/>
<stop offset="1" stop-color="#F3BD9A"/>
</linearGradient>
<linearGradient id="paint24_linear_314_195" x1="67.3706" y1="243.391" x2="44.0643" y2="203.031" gradientUnits="userSpaceOnUse">
<stop stop-color="#F2E0D5"/>
<stop offset="0.3285" stop-color="#F4DFD3"/>
<stop offset="0.5252" stop-color="#F4DCCE"/>
<stop offset="0.6873" stop-color="#F2D5C1"/>
<stop offset="0.8305" stop-color="#F0CEB8"/>
<stop offset="0.9599" stop-color="#F1C1A3"/>
<stop offset="1" stop-color="#F3BD9A"/>
</linearGradient>
<linearGradient id="paint25_linear_314_195" x1="107.416" y1="86.0099" x2="83.536" y2="44.658" gradientUnits="userSpaceOnUse">
<stop stop-color="#F2E0D5"/>
<stop offset="0.3285" stop-color="#F4DFD3"/>
<stop offset="0.5252" stop-color="#F4DCCE"/>
<stop offset="0.6873" stop-color="#F2D5C1"/>
<stop offset="0.8305" stop-color="#F0CEB8"/>
<stop offset="0.9599" stop-color="#F1C1A3"/>
<stop offset="1" stop-color="#F3BD9A"/>
</linearGradient>
<linearGradient id="paint26_linear_314_195" x1="96.1764" y1="77.815" x2="75.7294" y2="42.407" gradientUnits="userSpaceOnUse">
<stop stop-color="#F2E0D5"/>
<stop offset="0.3285" stop-color="#F4DFD3"/>
<stop offset="0.5252" stop-color="#F4DCCE"/>
<stop offset="0.6873" stop-color="#F2D5C1"/>
<stop offset="0.8305" stop-color="#F0CEB8"/>
<stop offset="0.9599" stop-color="#F1C1A3"/>
<stop offset="1" stop-color="#F3BD9A"/>
</linearGradient>
<linearGradient id="paint27_linear_314_195" x1="115.222" y1="88.2626" x2="94.7753" y2="52.8547" gradientUnits="userSpaceOnUse">
<stop stop-color="#F2E0D5"/>
<stop offset="0.3285" stop-color="#F4DFD3"/>
<stop offset="0.5252" stop-color="#F4DCCE"/>
<stop offset="0.6873" stop-color="#F2D5C1"/>
<stop offset="0.8305" stop-color="#F0CEB8"/>
<stop offset="0.9599" stop-color="#F1C1A3"/>
<stop offset="1" stop-color="#F3BD9A"/>
</linearGradient>
<linearGradient id="paint28_linear_314_195" x1="199.355" y1="195.579" x2="166.549" y2="138.771" gradientUnits="userSpaceOnUse">
<stop stop-color="#F2E0D5"/>
<stop offset="0.3285" stop-color="#F4DFD3"/>
<stop offset="0.5252" stop-color="#F4DCCE"/>
<stop offset="0.6873" stop-color="#F2D5C1"/>
<stop offset="0.8305" stop-color="#F0CEB8"/>
<stop offset="0.9599" stop-color="#F1C1A3"/>
<stop offset="1" stop-color="#F3BD9A"/>
</linearGradient>
<linearGradient id="paint29_linear_314_195" x1="134.268" y1="98.093" x2="113.821" y2="62.685" gradientUnits="userSpaceOnUse">
<stop stop-color="#F2E0D5"/>
<stop offset="0.3285" stop-color="#F4DFD3"/>
<stop offset="0.5252" stop-color="#F4DCCE"/>
<stop offset="0.6873" stop-color="#F2D5C1"/>
<stop offset="0.8305" stop-color="#F0CEB8"/>
<stop offset="0.9599" stop-color="#F1C1A3"/>
<stop offset="1" stop-color="#F3BD9A"/>
</linearGradient>
<linearGradient id="paint30_linear_314_195" x1="126.328" y1="95.9192" x2="102.981" y2="55.4893" gradientUnits="userSpaceOnUse">
<stop stop-color="#F2E0D5"/>
<stop offset="0.3285" stop-color="#F4DFD3"/>
<stop offset="0.5252" stop-color="#F4DCCE"/>
<stop offset="0.6873" stop-color="#F2D5C1"/>
<stop offset="0.8305" stop-color="#F0CEB8"/>
<stop offset="0.9599" stop-color="#F1C1A3"/>
<stop offset="1" stop-color="#F3BD9A"/>
</linearGradient>
<linearGradient id="paint31_linear_314_195" x1="88.2359" y1="75.6403" x2="64.6218" y2="34.7479" gradientUnits="userSpaceOnUse">
<stop stop-color="#F2E0D5"/>
<stop offset="0.3285" stop-color="#F4DFD3"/>
<stop offset="0.5252" stop-color="#F4DCCE"/>
<stop offset="0.6873" stop-color="#F2D5C1"/>
<stop offset="0.8305" stop-color="#F0CEB8"/>
<stop offset="0.9599" stop-color="#F1C1A3"/>
<stop offset="1" stop-color="#F3BD9A"/>
</linearGradient>
<linearGradient id="paint32_linear_314_195" x1="77.2633" y1="67.9063" x2="56.5498" y2="32.0369" gradientUnits="userSpaceOnUse">
<stop stop-color="#F2E0D5"/>
<stop offset="0.3285" stop-color="#F4DFD3"/>
<stop offset="0.5252" stop-color="#F4DCCE"/>
<stop offset="0.6873" stop-color="#F2D5C1"/>
<stop offset="0.8305" stop-color="#F0CEB8"/>
<stop offset="0.9599" stop-color="#F1C1A3"/>
<stop offset="1" stop-color="#F3BD9A"/>
</linearGradient>
<linearGradient id="paint33_linear_314_195" x1="118.123" y1="167.794" x2="46.6466" y2="44.019" gradientUnits="userSpaceOnUse">
<stop stop-color="#F2E0D5"/>
<stop offset="0.3285" stop-color="#F4DFD3"/>
<stop offset="0.5252" stop-color="#F4DCCE"/>
<stop offset="0.6873" stop-color="#F2D5C1"/>
<stop offset="0.8305" stop-color="#F0CEB8"/>
<stop offset="0.9599" stop-color="#F1C1A3"/>
<stop offset="1" stop-color="#F3BD9A"/>
</linearGradient>
<linearGradient id="paint34_linear_314_195" x1="50.8346" y1="54.9616" x2="27.2618" y2="14.1409" gradientUnits="userSpaceOnUse">
<stop stop-color="#F2E0D5"/>
<stop offset="0.3285" stop-color="#F4DFD3"/>
<stop offset="0.5252" stop-color="#F4DCCE"/>
<stop offset="0.6873" stop-color="#F2D5C1"/>
<stop offset="0.8305" stop-color="#F0CEB8"/>
<stop offset="0.9599" stop-color="#F1C1A3"/>
<stop offset="1" stop-color="#F3BD9A"/>
</linearGradient>
<linearGradient id="paint35_linear_314_195" x1="58.314" y1="57.4016" x2="38.0206" y2="22.2597" gradientUnits="userSpaceOnUse">
<stop stop-color="#F2E0D5"/>
<stop offset="0.3285" stop-color="#F4DFD3"/>
<stop offset="0.5252" stop-color="#F4DCCE"/>
<stop offset="0.6873" stop-color="#F2D5C1"/>
<stop offset="0.8305" stop-color="#F0CEB8"/>
<stop offset="0.9599" stop-color="#F1C1A3"/>
<stop offset="1" stop-color="#F3BD9A"/>
</linearGradient>
<linearGradient id="paint36_linear_314_195" x1="69.1896" y1="65.1936" x2="45.9961" y2="25.0297" gradientUnits="userSpaceOnUse">
<stop stop-color="#F2E0D5"/>
<stop offset="0.3285" stop-color="#F4DFD3"/>
<stop offset="0.5252" stop-color="#F4DCCE"/>
<stop offset="0.6873" stop-color="#F2D5C1"/>
<stop offset="0.8305" stop-color="#F0CEB8"/>
<stop offset="0.9599" stop-color="#F1C1A3"/>
<stop offset="1" stop-color="#F3BD9A"/>
</linearGradient>
</defs>
</svg>
