<svg width="293" height="256" viewBox="0 0 293 256" fill="none" xmlns="http://www.w3.org/2000/svg">
<path d="M147.595 187.328L250.745 173.573L232.693 167.556L129.544 181.311L147.595 187.328Z" fill="url(#paint0_linear_305_8086)"/>
<path d="M129.544 164.115L232.694 151.22L213.783 144.648L111.493 158.097L129.544 164.115Z" fill="url(#paint1_linear_305_8086)"/>
<path d="M129.544 181.309L232.693 167.554V151.22L129.544 164.115V181.309Z" fill="url(#paint2_linear_305_8086)"/>
<path d="M111.493 140.905L213.783 128.01L194.013 120.907L91.7227 134.028L111.493 140.905Z" fill="url(#paint3_linear_305_8086)"/>
<path d="M111.493 158.098L213.783 144.649V128.009L111.493 140.905V158.098Z" fill="url(#paint4_linear_305_8086)"/>
<path d="M147.596 204.521L250.745 189.906V173.572L147.596 187.327V204.521Z" fill="url(#paint5_linear_305_8086)"/>
<path d="M91.7227 134.027L194.013 120.907V103.938L91.7227 117.693V134.027Z" fill="url(#paint6_linear_305_8086)"/>
<path d="M167.366 226.012L267.937 213.117V195.923L167.366 209.678V226.012Z" fill="url(#paint7_linear_305_8086)"/>
<path d="M184.558 232.891L286.848 219.136L267.937 213.118L167.366 226.013L184.558 232.891Z" fill="url(#paint8_linear_305_8086)"/>
<path d="M167.366 209.679L267.937 195.924L250.745 189.906L147.596 204.521L167.366 209.679Z" fill="url(#paint9_linear_305_8086)"/>
<path d="M36.7096 48.9173L138.14 36.022L120.089 29.1445L17.7988 42.8995L36.7096 48.9173Z" fill="url(#paint10_linear_305_8086)"/>
<path d="M120.09 12.8111L101.179 5.93359L0.608398 20.5483L17.8 26.5661L120.09 12.8111Z" fill="url(#paint11_linear_305_8086)"/>
<path d="M91.7228 117.693L194.013 103.938L176.821 98.4116L72.2275 112.535L91.7228 117.693Z" fill="url(#paint12_linear_305_8086)"/>
<path d="M36.71 66.1115L138.14 52.3565V36.0225L36.71 48.9177V66.1115Z" fill="url(#paint13_linear_305_8086)"/>
<path d="M167.366 226.013V209.679L147.595 204.521V187.327L129.544 181.31V164.116L111.493 158.098V140.904L91.7228 134.027V117.693L72.2275 112.535V95.341L55.3763 89.3232L55.6205 72.1295L36.7097 66.1117V48.918L17.799 42.9002V26.5661L0.607422 20.5483V53.2164L7.48405 55.7954L164.787 249.225L184.557 255.242V232.891L167.366 226.013Z" fill="url(#paint14_linear_305_8086)"/>
<path d="M184.558 232.891V255.243L286.847 240.628V219.136L184.558 232.891Z" fill="url(#paint15_linear_305_8086)"/>
<path d="M17.7988 42.9005L120.089 29.1455V12.8115L17.7988 26.5665V42.9005Z" fill="url(#paint16_linear_305_8086)"/>
<path d="M55.6207 72.1307L157.051 59.0497L138.14 52.3579L36.71 66.1129L55.6207 72.1307Z" fill="url(#paint17_linear_305_8086)"/>
<path d="M72.2275 112.534L176.821 98.4112V81.5854L72.2275 95.3404V112.534Z" fill="url(#paint18_linear_305_8086)"/>
<path d="M72.2272 95.3416L176.821 81.5867L157.05 75.5688L55.376 89.3238L72.2272 95.3416Z" fill="url(#paint19_linear_305_8086)"/>
<path d="M55.376 89.324L157.05 75.569V59.0493L55.6201 72.1303L55.376 89.324Z" fill="url(#paint20_linear_305_8086)"/>
<path d="M5.6084 15.5482V48.2163L12.485 50.7953L169.788 244.225L189.558 250.242M5.6084 15.5482L106.179 0.933594L125.09 7.81108M5.6084 15.5482L22.8 21.566M189.558 250.242L291.848 235.628V214.136M189.558 250.242V227.891M291.848 214.136L272.937 208.118M291.848 214.136L189.558 227.891M272.937 208.118V190.924M272.937 208.118L172.367 221.013M272.937 190.924L255.746 184.906M272.937 190.924L172.367 204.679M255.746 184.906V168.572M255.746 184.906L152.596 199.521M255.746 168.572L237.695 162.554M255.746 168.572L152.596 182.327M237.695 162.554V146.22M237.695 162.554L134.545 176.309M237.695 146.22L218.784 139.649M237.695 146.22L134.545 159.116M218.784 139.649V123.009M218.784 139.649L116.494 153.098M218.784 123.009L199.014 115.905M218.784 123.009L116.494 135.904M199.014 115.905V98.9377M199.014 115.905L96.7237 129.027M199.014 98.9377L181.822 93.4118M199.014 98.9377L96.7237 112.693M181.822 93.4118V76.5859M181.822 93.4118L77.2272 107.535M181.822 76.5859L162.052 70.5681M181.822 76.5859L77.2272 90.3409M162.052 70.5681V54.048M162.052 70.5681L60.3764 84.3231M162.052 54.048L143.141 47.3566M162.052 54.048L60.6214 67.1294M143.141 47.3566V31.0226M143.141 47.3566L41.7107 61.1116M143.141 31.0226L125.09 24.1451M143.141 31.0226L41.7107 43.9179M125.09 24.1451V7.81108M125.09 24.1451L22.8 37.9001M125.09 7.81108L22.8 21.566M22.8 21.566V37.9001M22.8 37.9001L41.7107 43.9179M41.7107 43.9179V61.1116M41.7107 61.1116L60.6214 67.1294M60.6214 67.1294L60.3764 84.3231M60.3764 84.3231L77.2272 90.3409M77.2272 90.3409V107.535M77.2272 107.535L96.7237 112.693M96.7237 112.693V129.027M96.7237 129.027L116.494 135.904M116.494 135.904V153.098M116.494 153.098L134.545 159.116M134.545 159.116V176.309M134.545 176.309L152.596 182.327M152.596 182.327V199.521M152.596 199.521L172.367 204.679M172.367 204.679V221.013M172.367 221.013L189.558 227.891" stroke="#202020" stroke-width="1.5"/>
<defs>
<linearGradient id="paint0_linear_305_8086" x1="232.908" y1="177.442" x2="111.707" y2="177.442" gradientUnits="userSpaceOnUse">
<stop stop-color="#F9E5DA"/>
<stop offset="0.3285" stop-color="#F8E1D4"/>
<stop offset="0.5252" stop-color="#F4DCCE"/>
<stop offset="0.6873" stop-color="#F2D5C1"/>
<stop offset="0.8305" stop-color="#F0CEB8"/>
<stop offset="0.9599" stop-color="#F3C7AB"/>
<stop offset="1" stop-color="#F4C09F"/>
</linearGradient>
<linearGradient id="paint1_linear_305_8086" x1="215.502" y1="154.382" x2="94.3023" y2="154.382" gradientUnits="userSpaceOnUse">
<stop stop-color="#F2E0D5"/>
<stop offset="0.3285" stop-color="#F4DFD3"/>
<stop offset="0.5252" stop-color="#F4DCCE"/>
<stop offset="0.6873" stop-color="#F2D5C1"/>
<stop offset="0.8305" stop-color="#F0CEB8"/>
<stop offset="0.9599" stop-color="#F1C1A3"/>
<stop offset="1" stop-color="#F3BD9A"/>
</linearGradient>
<linearGradient id="paint2_linear_305_8086" x1="181.119" y1="166.265" x2="181.119" y2="140.611" gradientUnits="userSpaceOnUse">
<stop stop-color="#F9E5DA"/>
<stop offset="0.3285" stop-color="#F8E1D4"/>
<stop offset="0.5252" stop-color="#F4DCCE"/>
<stop offset="0.6873" stop-color="#F2D5C1"/>
<stop offset="0.8305" stop-color="#F0CEB8"/>
<stop offset="0.9599" stop-color="#F3C7AB"/>
<stop offset="1" stop-color="#F4C09F"/>
</linearGradient>
<linearGradient id="paint3_linear_305_8086" x1="197.021" y1="130.906" x2="74.9624" y2="130.906" gradientUnits="userSpaceOnUse">
<stop stop-color="#F9E5DA"/>
<stop offset="0.3285" stop-color="#F8E1D4"/>
<stop offset="0.5252" stop-color="#F4DCCE"/>
<stop offset="0.6873" stop-color="#F2D5C1"/>
<stop offset="0.8305" stop-color="#F0CEB8"/>
<stop offset="0.9599" stop-color="#F3C7AB"/>
<stop offset="1" stop-color="#F4C09F"/>
</linearGradient>
<linearGradient id="paint4_linear_305_8086" x1="162.618" y1="142.048" x2="162.032" y2="112.286" gradientUnits="userSpaceOnUse">
<stop stop-color="#F9E5DA"/>
<stop offset="0.3285" stop-color="#F8E1D4"/>
<stop offset="0.5252" stop-color="#F4DCCE"/>
<stop offset="0.6873" stop-color="#F2D5C1"/>
<stop offset="0.8305" stop-color="#F0CEB8"/>
<stop offset="0.9599" stop-color="#F3C7AB"/>
<stop offset="1" stop-color="#F4C09F"/>
</linearGradient>
<linearGradient id="paint5_linear_305_8086" x1="198.932" y1="183.724" x2="197.761" y2="157.655" gradientUnits="userSpaceOnUse">
<stop stop-color="#F9E5DA"/>
<stop offset="0.3285" stop-color="#F8E1D4"/>
<stop offset="0.5252" stop-color="#F4DCCE"/>
<stop offset="0.6873" stop-color="#F2D5C1"/>
<stop offset="0.8305" stop-color="#F0CEB8"/>
<stop offset="0.9599" stop-color="#F3C7AB"/>
<stop offset="1" stop-color="#F4C09F"/>
</linearGradient>
<linearGradient id="paint6_linear_305_8086" x1="142.861" y1="118.378" x2="142.563" y2="93.1572" gradientUnits="userSpaceOnUse">
<stop stop-color="#F9E5DA"/>
<stop offset="0.3285" stop-color="#F8E1D4"/>
<stop offset="0.5252" stop-color="#F4DCCE"/>
<stop offset="0.6873" stop-color="#F2D5C1"/>
<stop offset="0.8305" stop-color="#F0CEB8"/>
<stop offset="0.9599" stop-color="#F3C7AB"/>
<stop offset="1" stop-color="#F4C09F"/>
</linearGradient>
<linearGradient id="paint7_linear_305_8086" x1="217.482" y1="207.784" x2="215.759" y2="175.546" gradientUnits="userSpaceOnUse">
<stop stop-color="#F9E5DA"/>
<stop offset="0.3285" stop-color="#F8E1D4"/>
<stop offset="0.5252" stop-color="#F4DCCE"/>
<stop offset="0.6873" stop-color="#F2D5C1"/>
<stop offset="0.8305" stop-color="#F0CEB8"/>
<stop offset="0.9599" stop-color="#F3C7AB"/>
<stop offset="1" stop-color="#F4C09F"/>
</linearGradient>
<linearGradient id="paint8_linear_305_8086" x1="264.499" y1="223.005" x2="145.017" y2="223.005" gradientUnits="userSpaceOnUse">
<stop stop-color="#F9E5DA"/>
<stop offset="0.3285" stop-color="#F8E1D4"/>
<stop offset="0.53125" stop-color="#F4DCCE"/>
<stop offset="0.6873" stop-color="#F2D5C1"/>
<stop offset="0.8305" stop-color="#F0CEB8"/>
<stop offset="0.9599" stop-color="#F3C7AB"/>
<stop offset="1" stop-color="#F4C09F"/>
</linearGradient>
<linearGradient id="paint9_linear_305_8086" x1="270.109" y1="199.244" x2="126.989" y2="200.533" gradientUnits="userSpaceOnUse">
<stop stop-color="#F9E5DA"/>
<stop offset="0.3285" stop-color="#F8E1D4"/>
<stop offset="0.5252" stop-color="#F4DCCE"/>
<stop offset="0.6873" stop-color="#F2D5C1"/>
<stop offset="0.8305" stop-color="#F0CEB8"/>
<stop offset="0.9599" stop-color="#F3C7AB"/>
<stop offset="1" stop-color="#F4C09F"/>
</linearGradient>
<linearGradient id="paint10_linear_305_8086" x1="129.545" y1="39.0309" x2="9.20459" y2="39.0309" gradientUnits="userSpaceOnUse">
<stop stop-color="#F9E5DA"/>
<stop offset="0.3285" stop-color="#F8E1D4"/>
<stop offset="0.5252" stop-color="#F4DCCE"/>
<stop offset="0.6873" stop-color="#F2D5C1"/>
<stop offset="0.8305" stop-color="#F0CEB8"/>
<stop offset="0.9599" stop-color="#F3C7AB"/>
<stop offset="1" stop-color="#F4C09F"/>
</linearGradient>
<linearGradient id="paint11_linear_305_8086" x1="108.271" y1="16.2498" x2="-11.2093" y2="16.2498" gradientUnits="userSpaceOnUse">
<stop stop-color="#F9E5DA"/>
<stop offset="0.3285" stop-color="#F8E1D4"/>
<stop offset="0.5252" stop-color="#F4DCCE"/>
<stop offset="0.6873" stop-color="#F4DCCE"/>
<stop offset="0.8305" stop-color="#F0CEB8"/>
<stop offset="0.9599" stop-color="#F3C7AB"/>
<stop offset="1" stop-color="#B48D74"/>
<stop offset="1" stop-color="#F4C09F"/>
</linearGradient>
<linearGradient id="paint12_linear_305_8086" x1="178.815" y1="108.052" x2="57.0307" y2="108.052" gradientUnits="userSpaceOnUse">
<stop stop-color="#F9E5DA"/>
<stop offset="0.3285" stop-color="#F8E1D4"/>
<stop offset="0.5252" stop-color="#F4DCCE"/>
<stop offset="0.6873" stop-color="#F2D5C1"/>
<stop offset="0.8305" stop-color="#F0CEB8"/>
<stop offset="0.9599" stop-color="#F3C7AB"/>
<stop offset="1" stop-color="#F4C09F"/>
</linearGradient>
<linearGradient id="paint13_linear_305_8086" x1="87.4258" y1="51.067" x2="87.4258" y2="26.4311" gradientUnits="userSpaceOnUse">
<stop stop-color="#F9E5DA"/>
<stop offset="0.3285" stop-color="#F8E1D4"/>
<stop offset="0.5252" stop-color="#F4DCCE"/>
<stop offset="0.6873" stop-color="#F2D5C1"/>
<stop offset="0.8305" stop-color="#F0CEB8"/>
<stop offset="0.9599" stop-color="#F3C7AB"/>
<stop offset="1" stop-color="#F4C09F"/>
</linearGradient>
<linearGradient id="paint14_linear_305_8086" x1="181.522" y1="249.932" x2="13.0972" y2="44.3281" gradientUnits="userSpaceOnUse">
<stop stop-color="#F9E5DA"/>
<stop offset="0.3285" stop-color="#F8E1D4"/>
<stop offset="0.5252" stop-color="#F4DCCE"/>
<stop offset="0.6873" stop-color="#F2D5C1"/>
<stop offset="0.8305" stop-color="#F0CEB8"/>
<stop offset="0.9599" stop-color="#F3C7AB"/>
<stop offset="1" stop-color="#F4C09F"/>
</linearGradient>
<linearGradient id="paint15_linear_305_8086" x1="235.86" y1="246.142" x2="235.308" y2="214.843" gradientUnits="userSpaceOnUse">
<stop stop-color="#F9E5DA"/>
<stop offset="0.3285" stop-color="#F8E1D4"/>
<stop offset="0.5252" stop-color="#F4DCCE"/>
<stop offset="0.6873" stop-color="#F2D5C1"/>
<stop offset="0.8305" stop-color="#F0CEB8"/>
<stop offset="0.9599" stop-color="#F3C7AB"/>
<stop offset="1" stop-color="#F4C09F"/>
</linearGradient>
<linearGradient id="paint16_linear_305_8086" x1="68.9445" y1="27.856" x2="68.9445" y2="6.49714" gradientUnits="userSpaceOnUse">
<stop stop-color="#F9E5DA"/>
<stop offset="0.3285" stop-color="#F8E1D4"/>
<stop offset="0.5252" stop-color="#F4DCCE"/>
<stop offset="0.6873" stop-color="#F2D5C1"/>
<stop offset="0.8305" stop-color="#F0CEB8"/>
<stop offset="0.9599" stop-color="#F3C7AB"/>
<stop offset="1" stop-color="#F4C09F"/>
</linearGradient>
<linearGradient id="paint17_linear_305_8086" x1="140.935" y1="62.2443" x2="20.5935" y2="62.2443" gradientUnits="userSpaceOnUse">
<stop stop-color="#F9E5DA"/>
<stop offset="0.3285" stop-color="#F8E1D4"/>
<stop offset="0.5252" stop-color="#F4DCCE"/>
<stop offset="0.6873" stop-color="#F2D5C1"/>
<stop offset="0.8305" stop-color="#F0CEB8"/>
<stop offset="0.9599" stop-color="#F3C7AB"/>
<stop offset="1" stop-color="#F4C09F"/>
</linearGradient>
<linearGradient id="paint18_linear_305_8086" x1="124.49" y1="95.714" x2="123.801" y2="68.968" gradientUnits="userSpaceOnUse">
<stop stop-color="#F9E5DA"/>
<stop offset="0.3285" stop-color="#F8E1D4"/>
<stop offset="0.5252" stop-color="#F4DCCE"/>
<stop offset="0.6873" stop-color="#F2D5C1"/>
<stop offset="0.8305" stop-color="#F0CEB8"/>
<stop offset="0.9599" stop-color="#F3C7AB"/>
<stop offset="1" stop-color="#F4C09F"/>
</linearGradient>
<linearGradient id="paint19_linear_305_8086" x1="161.103" y1="85.4552" x2="39.6591" y2="85.4552" gradientUnits="userSpaceOnUse">
<stop stop-color="#F9E5DA"/>
<stop offset="0.3285" stop-color="#F8E1D4"/>
<stop offset="0.5252" stop-color="#F4DCCE"/>
<stop offset="0.6873" stop-color="#F2D5C1"/>
<stop offset="0.8305" stop-color="#F0CEB8"/>
<stop offset="0.9599" stop-color="#F3C7AB"/>
<stop offset="1" stop-color="#F4C09F"/>
</linearGradient>
<linearGradient id="paint20_linear_305_8086" x1="106.193" y1="73.2192" x2="105.759" y2="50.3641" gradientUnits="userSpaceOnUse">
<stop stop-color="#F9E5DA"/>
<stop offset="0.0001" stop-color="#F9E5DA"/>
<stop offset="0.3285" stop-color="#F8E1D4"/>
<stop offset="0.5252" stop-color="#F4DCCE"/>
<stop offset="0.6873" stop-color="#F2D5C1"/>
<stop offset="0.8305" stop-color="#F0CEB8"/>
<stop offset="0.9599" stop-color="#F3C7AB"/>
<stop offset="1" stop-color="#F4C09F"/>
</linearGradient>
</defs>
</svg>
