<svg width="255" height="270" viewBox="0 0 255 270" fill="none" xmlns="http://www.w3.org/2000/svg">
<path d="M73.4884 110.397L166.741 93.365L151.199 85.2192L57.9463 102.992L73.4884 110.397Z" fill="url(#paint0_linear_305_8055)"/>
<path d="M57.9463 102.993L151.199 85.2205V73.3721L57.9463 90.4042V102.993Z" fill="url(#paint1_linear_305_8055)"/>
<path d="M73.4883 122.987L166.741 105.214V93.3657L73.4883 110.398V122.987Z" fill="url(#paint2_linear_305_8055)"/>
<path d="M86.07 128.911L179.323 111.879L166.741 105.214L73.4883 122.987L86.07 128.911Z" fill="url(#paint3_linear_305_8055)"/>
<path d="M57.9468 90.4028L151.199 73.3707L137.878 64.4844L44.625 82.257L57.9468 90.4028Z" fill="url(#paint4_linear_305_8055)"/>
<path d="M44.625 82.2583L137.878 64.4856V52.6372L44.625 69.6693V82.2583Z" fill="url(#paint5_linear_305_8055)"/>
<path d="M94.9512 173.341L231.129 176.303V161.492L94.9512 160.752V173.341Z" fill="url(#paint6_linear_305_8055)"/>
<path d="M92.7314 176.302L214.848 191.113L249.633 183.708L231.13 176.302L94.9517 173.34L92.7314 176.302Z" fill="url(#paint7_linear_305_8055)"/>
<path d="M44.6251 69.6693L137.878 52.6372L122.336 45.2319L29.083 63.0046L44.6251 69.6693Z" fill="url(#paint8_linear_305_8055)"/>
<path d="M92.7314 158.531L201.526 147.423V135.576L92.7314 145.942V158.531Z" fill="url(#paint9_linear_305_8055)"/>
<path d="M86.0703 141.499L179.323 123.728V111.879L86.0703 128.911V141.499Z" fill="url(#paint10_linear_305_8055)"/>
<path d="M92.7312 145.941L201.526 135.575L179.323 123.727L86.0703 141.498L92.7312 145.941Z" fill="url(#paint11_linear_305_8055)"/>
<path d="M94.9517 160.752L231.13 161.493L201.526 147.423L92.7314 158.531L94.9517 160.752Z" fill="url(#paint12_linear_305_8055)"/>
<path d="M131.956 245.172L74.2284 217.772L52.0254 221.475L109.753 251.096L131.956 245.172Z" fill="url(#paint13_linear_305_8055)"/>
<path d="M131.956 233.324L74.2285 204.443V217.773L131.956 245.172V233.324Z" fill="url(#paint14_linear_305_8055)"/>
<path d="M170.441 224.438L84.5899 202.962L74.2285 204.443L131.956 233.324L170.441 224.438Z" fill="url(#paint15_linear_305_8055)"/>
<path d="M214.848 191.114V202.962L170.442 212.589V224.437L131.957 233.324V245.172L109.754 251.096V271.091L132.697 264.426L219.289 217.773L249.633 206.665V183.708L214.848 191.114Z" fill="url(#paint16_linear_305_8055)"/>
<path d="M170.441 212.589L84.5898 190.374V202.962L170.441 224.438V212.589Z" fill="url(#paint17_linear_305_8055)"/>
<path d="M52.0254 221.475V241.469L109.753 271.09V251.096L52.0254 221.475Z" fill="url(#paint18_linear_305_8055)"/>
<path d="M108.273 13.3889L92.7312 6.72412L0.21875 23.0157L15.0207 30.421L108.273 13.3889Z" fill="url(#paint19_linear_305_8055)"/>
<path d="M15.0205 43.0102L108.273 25.2376V13.3892L15.0205 30.4213V43.0102Z" fill="url(#paint20_linear_305_8055)"/>
<path d="M29.0824 50.4152L122.335 33.3831L108.273 25.2373L15.0205 43.0099L29.0824 50.4152Z" fill="url(#paint21_linear_305_8055)"/>
<path d="M29.083 63.0039L122.336 45.2312V33.3828L29.083 50.4149V63.0039Z" fill="url(#paint22_linear_305_8055)"/>
<path d="M214.848 191.114L92.7314 176.304V182.598V188.893L214.848 202.963V191.114Z" fill="url(#paint23_linear_305_8055)"/>
<path d="M214.847 202.963L92.7309 188.893L84.5898 190.374L170.441 212.589L214.847 202.963Z" fill="url(#paint24_linear_305_8055)"/>
<path d="M94.9515 173.341V160.752L92.7312 158.531V145.942L86.0703 141.499V128.911L73.4886 122.987V110.398L57.9465 102.993V90.404L44.6247 82.2582V69.6693L29.0826 63.0045V50.4156L15.0207 43.0103V30.4214L0.21875 23.0161V46.7129L6.87964 51.8966L80.1495 149.645L92.7312 182.598V176.304L94.9515 173.341Z" fill="url(#paint25_linear_305_8055)"/>
<path d="M49.0505 64.6537L142.303 47.6216M49.0505 64.6537V77.2427M49.0505 64.6537L33.5084 57.989M142.303 47.6216V59.47M142.303 47.6216L126.761 40.2163M142.303 59.47L49.0505 77.2427M142.303 59.47L155.625 68.3563M49.0505 77.2427L62.3723 85.3884M33.5084 45.4L126.761 28.3679M33.5084 45.4V57.989M33.5084 45.4L19.4465 37.9948M126.761 28.3679V40.2163M126.761 28.3679L112.699 20.2221M126.761 40.2163L33.5084 57.989M19.4465 25.4058L112.699 8.37372M19.4465 25.4058V37.9948M19.4465 25.4058L4.64453 18.0006M112.699 8.37372V20.2221M112.699 8.37372L97.157 1.70898L4.64453 18.0006M112.699 20.2221L19.4465 37.9948M62.3723 85.3884L155.625 68.3563M62.3723 85.3884V97.9774M155.625 68.3563V80.2048M155.625 80.2048L62.3723 97.9774M155.625 80.2048L171.167 88.3505M62.3723 97.9774L77.9144 105.383M77.9144 105.383L171.167 88.3505M77.9144 105.383V117.972M171.167 88.3505V100.199M171.167 100.199L77.9144 117.972M171.167 100.199L183.749 106.864M77.9144 117.972L90.4961 123.896M90.4961 123.896L183.749 106.864M90.4961 123.896V136.485M183.749 106.864V118.712M183.749 118.712L90.4961 136.485M183.749 118.712L205.952 130.561M90.4961 136.485L97.157 140.928M97.157 140.928L205.952 130.561M97.157 140.928V153.517M205.952 130.561V142.409M205.952 142.409L97.157 153.517M205.952 142.409L235.556 156.479M97.157 153.517L99.3773 155.738M99.3773 155.738L235.556 156.479M99.3773 155.738V168.327M235.556 156.479V171.289M235.556 171.289L99.3773 168.327M235.556 171.289L254.058 178.695M99.3773 168.327L97.157 171.289M97.157 171.289L219.273 186.1M97.157 171.289V177.584M219.273 186.1V197.948M219.273 186.1L254.058 178.695M219.273 197.948L97.157 183.878M219.273 197.948L174.867 207.575M97.157 183.878L89.0159 185.359M97.157 183.878V177.584M89.0159 185.359L174.867 207.575M89.0159 185.359V197.948M174.867 207.575V219.424M174.867 219.424L89.0159 197.948M174.867 219.424L136.382 228.31M89.0159 197.948L78.6545 199.429M78.6545 199.429L136.382 228.31M78.6545 199.429V212.759M136.382 228.31V240.158M136.382 240.158L78.6545 212.759M136.382 240.158L114.179 246.083M78.6545 212.759L56.4515 216.462M56.4515 216.462L114.179 246.083M56.4515 216.462V236.456L114.179 266.077M114.179 246.083V266.077M114.179 266.077L137.122 259.412L223.714 212.759L254.058 201.651V178.695M4.64453 18.0006V41.6974L11.3054 46.8811L84.5753 144.631L97.157 177.584" stroke="#202020" stroke-width="1.5"/>
<defs>
<linearGradient id="paint0_linear_305_8055" x1="57.9463" y1="97.8076" x2="166.741" y2="97.8076" gradientUnits="userSpaceOnUse">
<stop stop-color="#F4C09F"/>
<stop offset="0.2354" stop-color="#F3C7AB"/>
<stop offset="0.543" stop-color="#F0CEB8"/>
<stop offset="0.8086" stop-color="#F4DCCE"/>
<stop offset="1" stop-color="#F9E5DA"/>
</linearGradient>
<linearGradient id="paint1_linear_305_8055" x1="57.9463" y1="88.182" x2="151.199" y2="88.182" gradientUnits="userSpaceOnUse">
<stop stop-color="#F4C09F"/>
<stop offset="0.2354" stop-color="#F3C7AB"/>
<stop offset="0.543" stop-color="#F0CEB8"/>
<stop offset="0.8086" stop-color="#F4DCCE"/>
<stop offset="1" stop-color="#F8E1D4"/>
</linearGradient>
<linearGradient id="paint2_linear_305_8055" x1="73.4883" y1="108.176" x2="166.741" y2="108.176" gradientUnits="userSpaceOnUse">
<stop stop-color="#F4C09F"/>
<stop offset="0.2354" stop-color="#F3C7AB"/>
<stop offset="0.543" stop-color="#F0CEB8"/>
<stop offset="0.8086" stop-color="#F4DCCE"/>
<stop offset="1" stop-color="#F8E1D4"/>
</linearGradient>
<linearGradient id="paint3_linear_305_8055" x1="73.4883" y1="117.062" x2="179.323" y2="117.062" gradientUnits="userSpaceOnUse">
<stop stop-color="#F4C09F"/>
<stop offset="0.2354" stop-color="#F3C7AB"/>
<stop offset="0.543" stop-color="#F4DCCE"/>
<stop offset="0.8086" stop-color="#F4DCCE"/>
<stop offset="1" stop-color="#F9E5DA"/>
</linearGradient>
<linearGradient id="paint4_linear_305_8055" x1="44.625" y1="77.443" x2="151.199" y2="77.443" gradientUnits="userSpaceOnUse">
<stop stop-color="#F4C09F"/>
<stop offset="0.2354" stop-color="#F3C7AB"/>
<stop offset="0.543" stop-color="#F0CEB8"/>
<stop offset="0.8086" stop-color="#F4DCCE"/>
<stop offset="1" stop-color="#F9E5DA"/>
</linearGradient>
<linearGradient id="paint5_linear_305_8055" x1="44.625" y1="67.4471" x2="137.878" y2="67.4471" gradientUnits="userSpaceOnUse">
<stop stop-color="#F4C09F"/>
<stop offset="0.2354" stop-color="#F3C7AB"/>
<stop offset="0.543" stop-color="#F0CEB8"/>
<stop offset="0.8086" stop-color="#F4DCCE"/>
<stop offset="1" stop-color="#F8E1D4"/>
</linearGradient>
<linearGradient id="paint6_linear_305_8055" x1="94.9512" y1="168.528" x2="231.129" y2="168.528" gradientUnits="userSpaceOnUse">
<stop stop-color="#F4C09F"/>
<stop offset="0.2354" stop-color="#F3C7AB"/>
<stop offset="0.543" stop-color="#F0CEB8"/>
<stop offset="0.8086" stop-color="#F4DCCE"/>
<stop offset="1" stop-color="#F9E5DA"/>
</linearGradient>
<linearGradient id="paint7_linear_305_8055" x1="92.7314" y1="182.227" x2="249.633" y2="182.227" gradientUnits="userSpaceOnUse">
<stop stop-color="#F4C09F"/>
<stop offset="0.2354" stop-color="#F3C7AB"/>
<stop offset="0.543" stop-color="#F0CEB8"/>
<stop offset="0.8086" stop-color="#F4DCCE"/>
<stop offset="1" stop-color="#F9E5DA"/>
</linearGradient>
<linearGradient id="paint8_linear_305_8055" x1="29.083" y1="57.45" x2="137.878" y2="57.45" gradientUnits="userSpaceOnUse">
<stop stop-color="#F4C09F"/>
<stop offset="0.2354" stop-color="#F3C7AB"/>
<stop offset="0.543" stop-color="#F0CEB8"/>
<stop offset="0.8086" stop-color="#F4DCCE"/>
<stop offset="1" stop-color="#F9E5DA"/>
</linearGradient>
<linearGradient id="paint9_linear_305_8055" x1="92.7314" y1="147.053" x2="201.526" y2="147.053" gradientUnits="userSpaceOnUse">
<stop stop-color="#F4C09F"/>
<stop offset="0.2354" stop-color="#F3C7AB"/>
<stop offset="0.543" stop-color="#F0CEB8"/>
<stop offset="0.8086" stop-color="#F4DCCE"/>
<stop offset="1" stop-color="#F9E5DA"/>
</linearGradient>
<linearGradient id="paint10_linear_305_8055" x1="86.0703" y1="126.689" x2="179.323" y2="126.689" gradientUnits="userSpaceOnUse">
<stop stop-color="#F4C09F"/>
<stop offset="0.2354" stop-color="#F3C7AB"/>
<stop offset="0.543" stop-color="#F0CEB8"/>
<stop offset="0.8086" stop-color="#F4DCCE"/>
<stop offset="1" stop-color="#F9E5DA"/>
</linearGradient>
<linearGradient id="paint11_linear_305_8055" x1="86.0703" y1="134.834" x2="201.526" y2="134.834" gradientUnits="userSpaceOnUse">
<stop stop-color="#F4C09F"/>
<stop offset="0.2354" stop-color="#F3C7AB"/>
<stop offset="0.543" stop-color="#F0CEB8"/>
<stop offset="0.8086" stop-color="#F4DCCE"/>
<stop offset="1" stop-color="#F9E5DA"/>
</linearGradient>
<linearGradient id="paint12_linear_305_8055" x1="92.7314" y1="154.458" x2="231.13" y2="154.458" gradientUnits="userSpaceOnUse">
<stop stop-color="#F4C09F"/>
<stop offset="0.2354" stop-color="#F3C7AB"/>
<stop offset="0.543" stop-color="#F0CEB8"/>
<stop offset="0.8086" stop-color="#F4DCCE"/>
<stop offset="1" stop-color="#F9E5DA"/>
</linearGradient>
<linearGradient id="paint13_linear_305_8055" x1="52.0254" y1="234.434" x2="131.956" y2="234.434" gradientUnits="userSpaceOnUse">
<stop stop-color="#F4C09F"/>
<stop offset="0.2354" stop-color="#F3C7AB"/>
<stop offset="0.543" stop-color="#F0CEB8"/>
<stop offset="0.8086" stop-color="#F4DCCE"/>
<stop offset="1" stop-color="#F9E5DA"/>
</linearGradient>
<linearGradient id="paint14_linear_305_8055" x1="74.2285" y1="224.808" x2="131.956" y2="224.808" gradientUnits="userSpaceOnUse">
<stop stop-color="#F4C09F"/>
<stop offset="0.2354" stop-color="#F3C7AB"/>
<stop offset="0.543" stop-color="#F0CEB8"/>
<stop offset="0.8086" stop-color="#F4DCCE"/>
<stop offset="1" stop-color="#F9E5DA"/>
</linearGradient>
<linearGradient id="paint15_linear_305_8055" x1="74.2285" y1="218.143" x2="170.441" y2="218.143" gradientUnits="userSpaceOnUse">
<stop stop-color="#F4C09F"/>
<stop offset="0.2354" stop-color="#F3C7AB"/>
<stop offset="0.543" stop-color="#F0CEB8"/>
<stop offset="0.8086" stop-color="#F4DCCE"/>
<stop offset="1" stop-color="#F9E5DA"/>
</linearGradient>
<linearGradient id="paint16_linear_305_8055" x1="109.754" y1="227.4" x2="249.633" y2="227.4" gradientUnits="userSpaceOnUse">
<stop stop-color="#F4C09F"/>
<stop offset="0.2354" stop-color="#F3C7AB"/>
<stop offset="0.543" stop-color="#F0CEB8"/>
<stop offset="0.8086" stop-color="#F4DCCE"/>
<stop offset="1" stop-color="#F9E5DA"/>
</linearGradient>
<linearGradient id="paint17_linear_305_8055" x1="84.5898" y1="207.406" x2="170.441" y2="207.406" gradientUnits="userSpaceOnUse">
<stop stop-color="#F4C09F"/>
<stop offset="0.2354" stop-color="#F3C7AB"/>
<stop offset="0.543" stop-color="#F0CEB8"/>
<stop offset="0.8086" stop-color="#F4DCCE"/>
<stop offset="1" stop-color="#F9E5DA"/>
</linearGradient>
<linearGradient id="paint18_linear_305_8055" x1="52.0254" y1="246.283" x2="109.753" y2="246.283" gradientUnits="userSpaceOnUse">
<stop stop-color="#F4C09F"/>
<stop offset="0.2354" stop-color="#F3C7AB"/>
<stop offset="0.543" stop-color="#F0CEB8"/>
<stop offset="0.8086" stop-color="#F4DCCE"/>
<stop offset="1" stop-color="#F9E5DA"/>
</linearGradient>
<linearGradient id="paint19_linear_305_8055" x1="0.21875" y1="18.5719" x2="108.273" y2="18.5719" gradientUnits="userSpaceOnUse">
<stop stop-color="#F4C09F"/>
<stop offset="0.2354" stop-color="#F3C7AB"/>
<stop offset="0.543" stop-color="#F0CEB8"/>
<stop offset="0.8086" stop-color="#F4DCCE"/>
<stop offset="1" stop-color="#F9E5DA"/>
</linearGradient>
<linearGradient id="paint20_linear_305_8055" x1="15.0205" y1="28.1991" x2="108.273" y2="28.1991" gradientUnits="userSpaceOnUse">
<stop stop-color="#F4C09F"/>
<stop offset="0.2354" stop-color="#F3C7AB"/>
<stop offset="0.543" stop-color="#F0CEB8"/>
<stop offset="0.8086" stop-color="#F4DCCE"/>
<stop offset="1" stop-color="#F8E1D4"/>
</linearGradient>
<linearGradient id="paint21_linear_305_8055" x1="15.0205" y1="37.8257" x2="122.335" y2="37.8257" gradientUnits="userSpaceOnUse">
<stop stop-color="#74AEB4"/>
<stop offset="0.0001" stop-color="#F4C09F"/>
<stop offset="0.2354" stop-color="#F3C7AB"/>
<stop offset="0.543" stop-color="#F0CEB8"/>
<stop offset="0.8086" stop-color="#F4DCCE"/>
<stop offset="1" stop-color="#F9E5DA"/>
</linearGradient>
<linearGradient id="paint22_linear_305_8055" x1="29.083" y1="48.1927" x2="122.336" y2="48.1927" gradientUnits="userSpaceOnUse">
<stop stop-color="#F4C09F"/>
<stop offset="0.2354" stop-color="#F3C7AB"/>
<stop offset="0.543" stop-color="#F0CEB8"/>
<stop offset="0.8086" stop-color="#F4DCCE"/>
<stop offset="1" stop-color="#F8E1D4"/>
</linearGradient>
<linearGradient id="paint23_linear_305_8055" x1="92.7314" y1="189.633" x2="214.848" y2="189.633" gradientUnits="userSpaceOnUse">
<stop stop-color="#F4C09F"/>
<stop offset="0.2354" stop-color="#F3C7AB"/>
<stop offset="0.543" stop-color="#F0CEB8"/>
<stop offset="0.8086" stop-color="#F4DCCE"/>
<stop offset="1" stop-color="#F9E5DA"/>
</linearGradient>
<linearGradient id="paint24_linear_305_8055" x1="84.5898" y1="200.741" x2="214.847" y2="200.741" gradientUnits="userSpaceOnUse">
<stop stop-color="#F4C09F"/>
<stop offset="0.2354" stop-color="#F3C7AB"/>
<stop offset="0.543" stop-color="#F0CEB8"/>
<stop offset="0.8086" stop-color="#F4DCCE"/>
<stop offset="1" stop-color="#F9E5DA"/>
</linearGradient>
<linearGradient id="paint25_linear_305_8055" x1="0.21875" y1="102.806" x2="94.9515" y2="102.806" gradientUnits="userSpaceOnUse">
<stop stop-color="#F4C09F"/>
<stop offset="0.2354" stop-color="#F3C7AB"/>
<stop offset="0.543" stop-color="#F0CEB8"/>
<stop offset="0.8086" stop-color="#F4DCCE"/>
<stop offset="1" stop-color="#F9E5DA"/>
</linearGradient>
</defs>
</svg>
