<svg width="245" height="270" viewBox="0 0 245 270" fill="none" xmlns="http://www.w3.org/2000/svg">
<path d="M152.561 112.865L149.289 106.971V99.7672L146.016 96.4927V87.9789L142.743 84.0495V75.5357L133.58 72.916V63.7473L122.453 59.163V49.9943L111.326 45.4099V36.2412L99.5443 31.6569V22.4882L90.3809 17.9038V33.6216L94.308 36.8961L136.853 89.2887L149.943 113.52L151.252 120.2L152.561 119.414V112.865Z" fill="url(#paint0_linear_305_7887)"/>
<path d="M111.325 36.2411L172.197 24.4528L161.724 18.5586L99.5439 31.6567L111.325 36.2411Z" fill="url(#paint1_linear_305_7887)"/>
<path d="M99.5439 31.6567L161.724 18.5586V10.6997L99.5439 22.488V31.6567Z" fill="url(#paint2_linear_305_7887)"/>
<path d="M225.214 123.998L152.561 119.414L151.252 120.2L146.016 123.344L212.778 131.857L225.214 123.998Z" fill="url(#paint3_linear_305_7887)"/>
<path d="M161.725 10.6998L149.943 4.80566L90.3809 17.9038L99.5443 22.4882L161.725 10.6998Z" fill="url(#paint4_linear_305_7887)"/>
<path d="M203.614 146.266L138.815 136.442V145.611L203.614 154.125V146.266Z" fill="url(#paint5_linear_305_7887)"/>
<path d="M203.615 154.124L138.816 145.61L131.616 149.54L193.142 161.328L203.615 154.124Z" fill="url(#paint6_linear_305_7887)"/>
<path d="M212.778 131.857L146.016 123.343V132.512L212.778 139.716V131.857Z" fill="url(#paint7_linear_305_7887)"/>
<path d="M212.777 139.716L146.015 132.512L138.815 136.442L203.614 146.265L212.777 139.716Z" fill="url(#paint8_linear_305_7887)"/>
<path d="M111.326 45.4097L172.197 32.3115V24.4526L111.326 36.241V45.4097Z" fill="url(#paint9_linear_305_7887)"/>
<path d="M146.016 96.493L220.632 89.2891V81.4302L146.016 87.9792V96.493Z" fill="url(#paint10_linear_305_7887)"/>
<path d="M193.142 161.329L131.616 149.541V158.709L193.142 169.188V161.329Z" fill="url(#paint11_linear_305_7887)"/>
<path d="M142.743 84.0493L206.887 73.5708V65.7119L142.743 75.5355V84.0493Z" fill="url(#paint12_linear_305_7887)"/>
<path d="M146.016 87.9783L220.632 81.4292L206.887 73.5703L142.743 84.0488L146.016 87.9783Z" fill="url(#paint13_linear_305_7887)"/>
<path d="M149.288 99.7666L238.959 98.4568L220.632 89.2881L146.016 96.4921L149.288 99.7666Z" fill="url(#paint14_linear_305_7887)"/>
<path d="M225.214 123.999V116.14L152.562 112.865V119.414L225.214 123.999Z" fill="url(#paint15_linear_305_7887)"/>
<path d="M133.58 63.7474L193.142 51.9591L183.324 46.0649L122.453 59.1631L133.58 63.7474Z" fill="url(#paint16_linear_305_7887)"/>
<path d="M122.453 49.994L183.324 38.2057L172.197 32.3115L111.326 45.4097L122.453 49.994Z" fill="url(#paint17_linear_305_7887)"/>
<path d="M122.453 59.1641L183.324 46.0659V38.207L122.453 49.9954V59.1641Z" fill="url(#paint18_linear_305_7887)"/>
<path d="M142.743 75.5356L206.887 65.712L193.142 59.8179L133.58 72.916L142.743 75.5356Z" fill="url(#paint19_linear_305_7887)"/>
<path d="M133.58 72.916L193.142 59.8179V51.959L133.58 63.7473V72.916Z" fill="url(#paint20_linear_305_7887)"/>
<path d="M165.652 202.588L119.835 181.631H108.708L132.271 202.588H165.652Z" fill="url(#paint21_linear_305_7887)"/>
<path d="M22.3097 257.6L19.037 235.333H0.0556641L3.32831 257.6H22.3097Z" fill="url(#paint22_linear_305_7887)"/>
<path d="M22.3098 247.122L19.0371 226.165V235.334L22.3098 257.601V247.122Z" fill="url(#paint23_linear_305_7887)"/>
<path d="M62.2359 239.261L58.9633 216.995H38.6729L42.6 239.261H62.2359Z" fill="url(#paint24_linear_305_7887)"/>
<path d="M0.0556641 235.333V246.466L3.32831 270.698V257.6L0.0556641 235.333Z" fill="url(#paint25_linear_305_7887)"/>
<path d="M42.6 239.261L38.6729 216.995V226.163L42.6 247.12V239.261Z" fill="url(#paint26_linear_305_7887)"/>
<path d="M42.6002 247.122L38.673 226.165H19.0371L22.3098 247.122H42.6002Z" fill="url(#paint27_linear_305_7887)"/>
<path d="M149.288 99.7673V106.971L238.959 106.316V98.4575L149.288 99.7673Z" fill="url(#paint28_linear_305_7887)"/>
<path d="M132.271 202.588V211.757H105.435V220.925H83.1808V230.094H62.2358V239.263H42.5999V247.122H22.3095V257.6H3.32812V270.698H23.6186L165.652 214.376V202.588H132.271Z" fill="url(#paint29_linear_305_7887)"/>
<path d="M152.561 112.866L225.214 116.141L238.959 106.317L149.288 106.972L152.561 112.866Z" fill="url(#paint30_linear_305_7887)"/>
<path d="M225.214 123.999L212.778 131.858V139.717L203.614 146.266V154.125L193.142 161.329V169.188C189.433 171.589 181.884 176.392 181.36 176.392V184.251L165.651 194.074V202.588V214.377L238.959 120.725V106.317L225.214 116.141V123.999Z" fill="url(#paint31_linear_305_7887)"/>
<path d="M193.142 169.187L131.617 158.708L125.071 161.328L181.361 176.391C181.884 176.391 189.434 171.588 193.142 169.187Z" fill="url(#paint32_linear_305_7887)"/>
<path d="M132.271 202.588L108.708 181.631V190.8L132.271 211.757V202.588Z" fill="url(#paint33_linear_305_7887)"/>
<path d="M165.652 194.074L119.835 172.462V181.631L165.652 202.588V194.074Z" fill="url(#paint34_linear_305_7887)"/>
<path d="M132.271 211.757L108.708 190.8H95.6172L105.435 211.757H132.271Z" fill="url(#paint35_linear_305_7887)"/>
<path d="M181.361 176.391L125.071 161.328V169.842L181.361 184.25V176.391Z" fill="url(#paint36_linear_305_7887)"/>
<path d="M181.361 184.251L125.071 169.843L119.835 172.462L165.652 194.074L181.361 184.251Z" fill="url(#paint37_linear_305_7887)"/>
<path d="M105.435 220.925L95.6172 199.968H79.2539L83.1811 220.925H105.435Z" fill="url(#paint38_linear_305_7887)"/>
<path d="M83.1811 220.925L79.2539 199.968V208.482L83.1811 230.093V220.925Z" fill="url(#paint39_linear_305_7887)"/>
<path d="M105.435 211.757L95.6172 190.8V199.969L105.435 220.926V211.757Z" fill="url(#paint40_linear_305_7887)"/>
<path d="M83.1805 230.094L79.2533 208.482H58.9629L62.2355 230.094H83.1805Z" fill="url(#paint41_linear_305_7887)"/>
<path d="M62.2355 230.094L58.9629 208.482V216.996L62.2355 239.263V230.094Z" fill="url(#paint42_linear_305_7887)"/>
<path d="M104.764 18.1434L166.944 6.3551M104.764 18.1434V27.3121M104.764 18.1434L95.6005 13.5591M166.944 6.3551V14.214M166.944 6.3551L155.163 0.460938L95.6005 13.5591M166.944 14.214L104.764 27.3121M166.944 14.214L177.417 20.1082M104.764 27.3121L116.545 31.8965M116.545 31.8965L177.417 20.1082M116.545 31.8965V41.0652M177.417 20.1082V27.9671M177.417 27.9671L116.545 41.0652M177.417 27.9671L188.544 33.8612M116.545 41.0652L127.673 45.6496M127.673 45.6496L188.544 33.8612M127.673 45.6496V54.8183M188.544 33.8612V41.7201M188.544 41.7201L127.673 54.8183M188.544 41.7201L198.362 47.6143M127.673 54.8183L138.8 59.4026M138.8 59.4026L198.362 47.6143M138.8 59.4026V68.5713M198.362 47.6143V55.4732M198.362 55.4732L138.8 68.5713M198.362 55.4732L212.107 61.3673M138.8 68.5713L147.963 71.1909M147.963 71.1909L212.107 61.3673M147.963 71.1909V79.7047M212.107 61.3673V69.2262M212.107 69.2262L147.963 79.7047M212.107 69.2262L225.852 77.0851M147.963 79.7047L151.236 83.6342M151.236 83.6342L225.852 77.0851M151.236 83.6342V92.148M225.852 77.0851V84.944M225.852 84.944L151.236 92.148M225.852 84.944L244.179 94.1127M151.236 92.148L154.508 95.4225M154.508 95.4225L244.179 94.1127M154.508 95.4225V102.627M244.179 94.1127V101.972M244.179 101.972L154.508 102.627M244.179 101.972L230.434 111.795M244.179 101.972V116.38L170.871 210.031M154.508 102.627L157.781 108.521M157.781 108.521L230.434 111.795M157.781 108.521V115.07M230.434 111.795V119.654M230.434 119.654L157.781 115.07M230.434 119.654L217.998 127.513M157.781 115.07L156.472 115.856M151.236 118.999L217.998 127.513M151.236 118.999V128.168M151.236 118.999L156.472 115.856M217.998 127.513V135.372M217.998 135.372L151.236 128.168M217.998 135.372L208.834 141.921M151.236 128.168L144.036 132.097M144.036 132.097L208.834 141.921M144.036 132.097V141.266M208.834 141.921V149.78M208.834 149.78L144.036 141.266M208.834 149.78L198.362 156.984M144.036 141.266L136.836 145.195M136.836 145.195L198.362 156.984M136.836 145.195V154.364M198.362 156.984V164.843M198.362 164.843L136.836 154.364M198.362 164.843C194.653 167.244 187.104 172.047 186.58 172.047M136.836 154.364L130.291 156.984M130.291 156.984L186.58 172.047M130.291 156.984V165.498M186.58 172.047V179.906M186.58 179.906L130.291 165.498M186.58 179.906L170.871 189.729M130.291 165.498L125.054 168.117M125.054 168.117L170.871 189.729M125.054 168.117V177.286M170.871 189.729V198.243M170.871 198.243L125.054 177.286M170.871 198.243H137.49M170.871 198.243V210.031M125.054 177.286H113.927M113.927 177.286L137.49 198.243M113.927 177.286V186.455M137.49 198.243V207.412M137.49 207.412L113.927 186.455M137.49 207.412H110.655M113.927 186.455H100.837M100.837 186.455L110.655 207.412M100.837 186.455V195.623M110.655 207.412V216.58M110.655 216.58L100.837 195.623M110.655 216.58H88.4007M100.837 195.623H84.4735M84.4735 195.623L88.4007 216.58M84.4735 195.623V204.137M88.4007 216.58V225.749M88.4007 225.749L84.4735 204.137M88.4007 225.749H67.4557M84.4735 204.137H64.1831M64.1831 204.137L67.4557 225.749M64.1831 204.137V212.651M67.4557 225.749V234.918M67.4557 234.918L64.1831 212.651M67.4557 234.918H47.8198M64.1831 212.651H43.8927M43.8927 212.651L47.8198 234.918M43.8927 212.651V221.82M47.8198 234.918V242.777M47.8198 242.777L43.8927 221.82M47.8198 242.777H27.5294M43.8927 221.82H24.2568M24.2568 221.82L27.5294 242.777M24.2568 221.82V230.988M27.5294 242.777V253.255M27.5294 253.255L24.2568 230.988M27.5294 253.255H8.54804M24.2568 230.988H5.27539M5.27539 230.988L8.54804 253.255M5.27539 230.988V242.122L8.54804 266.353M8.54804 253.255V266.353M8.54804 266.353H28.8385L170.871 210.031M95.6005 13.5591V29.2769L99.5277 32.5514L142.072 84.944L155.163 109.176L156.472 115.856" stroke="#202020" stroke-width="1.5"/>
<defs>
<linearGradient id="paint0_linear_305_7887" x1="152.561" y1="69.0525" x2="90.3815" y2="69.0525" gradientUnits="userSpaceOnUse">
<stop stop-color="#F4C09F"/>
<stop offset="0.1777" stop-color="#F3C7AB"/>
<stop offset="0.5163" stop-color="#F0CEB8"/>
<stop offset="0.8024" stop-color="#F4DCCE"/>
<stop offset="1" stop-color="#F9E5DA"/>
</linearGradient>
<linearGradient id="paint1_linear_305_7887" x1="172.197" y1="27.3998" x2="99.5446" y2="27.3998" gradientUnits="userSpaceOnUse">
<stop stop-color="#F4C09F"/>
<stop offset="0.1777" stop-color="#F3C7AB"/>
<stop offset="0.5163" stop-color="#F0CEB8"/>
<stop offset="0.8024" stop-color="#F4DCCE"/>
<stop offset="1" stop-color="#F9E5DA"/>
</linearGradient>
<linearGradient id="paint2_linear_305_7887" x1="131.143" y1="73.4269" x2="130.536" y2="11.2156" gradientUnits="userSpaceOnUse">
<stop stop-color="#F4C09F"/>
<stop offset="0.1777" stop-color="#F3C7AB"/>
<stop offset="0.5163" stop-color="#F0CEB8"/>
<stop offset="0.8024" stop-color="#F4DCCE"/>
<stop offset="1" stop-color="#F9E5DA"/>
</linearGradient>
<linearGradient id="paint3_linear_305_7887" x1="225.214" y1="125.636" x2="146.016" y2="125.636" gradientUnits="userSpaceOnUse">
<stop stop-color="#F4C09F"/>
<stop offset="0.1777" stop-color="#F3C7AB"/>
<stop offset="0.5163" stop-color="#F0CEB8"/>
<stop offset="0.8024" stop-color="#F4DCCE"/>
<stop offset="1" stop-color="#F9E5DA"/>
</linearGradient>
<linearGradient id="paint4_linear_305_7887" x1="161.725" y1="13.6469" x2="90.3815" y2="13.6469" gradientUnits="userSpaceOnUse">
<stop stop-color="#F4C09F"/>
<stop offset="0.1777" stop-color="#F3C7AB"/>
<stop offset="0.5163" stop-color="#F0CEB8"/>
<stop offset="0.8024" stop-color="#F4DCCE"/>
<stop offset="1" stop-color="#F9E5DA"/>
</linearGradient>
<linearGradient id="paint5_linear_305_7887" x1="171.215" y1="204.663" x2="171.215" y2="139.827" gradientUnits="userSpaceOnUse">
<stop stop-color="#F4C09F"/>
<stop offset="0.1777" stop-color="#F3C7AB"/>
<stop offset="0.5163" stop-color="#F0CEB8"/>
<stop offset="0.8024" stop-color="#F4DCCE"/>
<stop offset="1" stop-color="#F9E5DA"/>
</linearGradient>
<linearGradient id="paint6_linear_305_7887" x1="203.615" y1="153.469" x2="131.616" y2="153.469" gradientUnits="userSpaceOnUse">
<stop stop-color="#F4C09F"/>
<stop offset="0.1777" stop-color="#F3C7AB"/>
<stop offset="0.5163" stop-color="#F0CEB8"/>
<stop offset="0.8024" stop-color="#F4DCCE"/>
<stop offset="1" stop-color="#F9E5DA"/>
</linearGradient>
<linearGradient id="paint7_linear_305_7887" x1="179.397" y1="192.217" x2="179.397" y2="125.417" gradientUnits="userSpaceOnUse">
<stop stop-color="#F4C09F"/>
<stop offset="0.1777" stop-color="#F3C7AB"/>
<stop offset="0.5163" stop-color="#F0CEB8"/>
<stop offset="0.8024" stop-color="#F4DCCE"/>
<stop offset="1" stop-color="#F9E5DA"/>
</linearGradient>
<linearGradient id="paint8_linear_305_7887" x1="212.777" y1="139.389" x2="138.815" y2="139.389" gradientUnits="userSpaceOnUse">
<stop stop-color="#F4C09F"/>
<stop offset="0.1777" stop-color="#F3C7AB"/>
<stop offset="0.5163" stop-color="#F0CEB8"/>
<stop offset="0.8024" stop-color="#F4DCCE"/>
<stop offset="1" stop-color="#F9E5DA"/>
</linearGradient>
<linearGradient id="paint9_linear_305_7887" x1="141.762" y1="90.817" x2="141.762" y2="29.9106" gradientUnits="userSpaceOnUse">
<stop stop-color="#F4C09F"/>
<stop offset="0.1777" stop-color="#F3C7AB"/>
<stop offset="0.5163" stop-color="#F0CEB8"/>
<stop offset="0.8024" stop-color="#F4DCCE"/>
<stop offset="1" stop-color="#F9E5DA"/>
</linearGradient>
<linearGradient id="paint10_linear_305_7887" x1="183.324" y1="159.692" x2="183.324" y2="85.0322" gradientUnits="userSpaceOnUse">
<stop stop-color="#F4C09F"/>
<stop offset="0.1777" stop-color="#F3C7AB"/>
<stop offset="0.5163" stop-color="#F0CEB8"/>
<stop offset="0.8024" stop-color="#F4DCCE"/>
<stop offset="1" stop-color="#F9E5DA"/>
</linearGradient>
<linearGradient id="paint11_linear_305_7887" x1="162.379" y1="213.067" x2="162.379" y2="151.505" gradientUnits="userSpaceOnUse">
<stop stop-color="#F4C09F"/>
<stop offset="0.1777" stop-color="#F3C7AB"/>
<stop offset="0.5163" stop-color="#F0CEB8"/>
<stop offset="0.8024" stop-color="#F4DCCE"/>
<stop offset="1" stop-color="#F9E5DA"/>
</linearGradient>
<linearGradient id="paint12_linear_305_7887" x1="174.815" y1="132.949" x2="174.815" y2="68.7684" gradientUnits="userSpaceOnUse">
<stop stop-color="#F4C09F"/>
<stop offset="0.1777" stop-color="#F3C7AB"/>
<stop offset="0.5163" stop-color="#F0CEB8"/>
<stop offset="0.8024" stop-color="#F4DCCE"/>
<stop offset="1" stop-color="#F9E5DA"/>
</linearGradient>
<linearGradient id="paint13_linear_305_7887" x1="220.632" y1="80.7743" x2="142.743" y2="80.7743" gradientUnits="userSpaceOnUse">
<stop stop-color="#F4C09F"/>
<stop offset="0.1777" stop-color="#F3C7AB"/>
<stop offset="0.5163" stop-color="#F0CEB8"/>
<stop offset="0.8024" stop-color="#F4DCCE"/>
<stop offset="1" stop-color="#F9E5DA"/>
</linearGradient>
<linearGradient id="paint14_linear_305_7887" x1="238.959" y1="94.5273" x2="146.016" y2="94.5273" gradientUnits="userSpaceOnUse">
<stop stop-color="#F4C09F"/>
<stop offset="0.1777" stop-color="#F3C7AB"/>
<stop offset="0.5163" stop-color="#F0CEB8"/>
<stop offset="0.8024" stop-color="#F4DCCE"/>
<stop offset="1" stop-color="#F9E5DA"/>
</linearGradient>
<linearGradient id="paint15_linear_305_7887" x1="188.888" y1="186.105" x2="188.888" y2="113.41" gradientUnits="userSpaceOnUse">
<stop stop-color="#F4C09F"/>
<stop offset="0.1777" stop-color="#F3C7AB"/>
<stop offset="0.5163" stop-color="#F0CEB8"/>
<stop offset="0.8024" stop-color="#F4DCCE"/>
<stop offset="1" stop-color="#F9E5DA"/>
</linearGradient>
<linearGradient id="paint16_linear_305_7887" x1="193.142" y1="54.9062" x2="122.453" y2="54.9062" gradientUnits="userSpaceOnUse">
<stop stop-color="#F4C09F"/>
<stop offset="0.1777" stop-color="#F3C7AB"/>
<stop offset="0.5163" stop-color="#F0CEB8"/>
<stop offset="0.8024" stop-color="#F4DCCE"/>
<stop offset="1" stop-color="#F9E5DA"/>
</linearGradient>
<linearGradient id="paint17_linear_305_7887" x1="183.324" y1="41.1528" x2="111.327" y2="41.1528" gradientUnits="userSpaceOnUse">
<stop stop-color="#F4C09F"/>
<stop offset="0.1777" stop-color="#F3C7AB"/>
<stop offset="0.5163" stop-color="#F0CEB8"/>
<stop offset="0.8024" stop-color="#F4DCCE"/>
<stop offset="1" stop-color="#F9E5DA"/>
</linearGradient>
<linearGradient id="paint18_linear_305_7887" x1="152.889" y1="102.388" x2="152.889" y2="41.4816" gradientUnits="userSpaceOnUse">
<stop stop-color="#F4C09F"/>
<stop offset="0.1777" stop-color="#F3C7AB"/>
<stop offset="0.5163" stop-color="#F0CEB8"/>
<stop offset="0.8024" stop-color="#F4DCCE"/>
<stop offset="1" stop-color="#F9E5DA"/>
</linearGradient>
<linearGradient id="paint19_linear_305_7887" x1="206.887" y1="67.6768" x2="133.58" y2="67.6768" gradientUnits="userSpaceOnUse">
<stop stop-color="#F4C09F"/>
<stop offset="0.1777" stop-color="#F3C7AB"/>
<stop offset="0.5163" stop-color="#F0CEB8"/>
<stop offset="0.8024" stop-color="#F4DCCE"/>
<stop offset="1" stop-color="#F9E5DA"/>
</linearGradient>
<linearGradient id="paint20_linear_305_7887" x1="163.361" y1="118.323" x2="163.361" y2="58.7261" gradientUnits="userSpaceOnUse">
<stop stop-color="#F4C09F"/>
<stop offset="0.1777" stop-color="#F3C7AB"/>
<stop offset="0.5163" stop-color="#F0CEB8"/>
<stop offset="0.8024" stop-color="#F4DCCE"/>
<stop offset="1" stop-color="#F9E5DA"/>
</linearGradient>
<linearGradient id="paint21_linear_305_7887" x1="165.652" y1="192.11" x2="108.709" y2="192.11" gradientUnits="userSpaceOnUse">
<stop stop-color="#F4C09F"/>
<stop offset="0.1777" stop-color="#F3C7AB"/>
<stop offset="0.5163" stop-color="#F0CEB8"/>
<stop offset="0.8024" stop-color="#F4DCCE"/>
<stop offset="1" stop-color="#F9E5DA"/>
</linearGradient>
<linearGradient id="paint22_linear_305_7887" x1="22.3097" y1="246.466" x2="0.0556641" y2="246.466" gradientUnits="userSpaceOnUse">
<stop stop-color="#F4C09F"/>
<stop offset="0.1777" stop-color="#F3C7AB"/>
<stop offset="0.5163" stop-color="#F0CEB8"/>
<stop offset="0.8024" stop-color="#F4DCCE"/>
<stop offset="1" stop-color="#F9E5DA"/>
</linearGradient>
<linearGradient id="paint23_linear_305_7887" x1="20.6734" y1="267.752" x2="20.6734" y2="241.751" gradientUnits="userSpaceOnUse">
<stop stop-color="#F4C09F"/>
<stop offset="0.1777" stop-color="#F3C7AB"/>
<stop offset="0.5163" stop-color="#F0CEB8"/>
<stop offset="0.8024" stop-color="#F4DCCE"/>
<stop offset="1" stop-color="#F9E5DA"/>
</linearGradient>
<linearGradient id="paint24_linear_305_7887" x1="62.2359" y1="228.128" x2="38.6729" y2="228.128" gradientUnits="userSpaceOnUse">
<stop stop-color="#F4C09F"/>
<stop offset="0.1777" stop-color="#F3C7AB"/>
<stop offset="0.5163" stop-color="#F0CEB8"/>
<stop offset="0.8024" stop-color="#F4DCCE"/>
<stop offset="1" stop-color="#F9E5DA"/>
</linearGradient>
<linearGradient id="paint25_linear_305_7887" x1="1.69199" y1="278.557" x2="1.69199" y2="251.486" gradientUnits="userSpaceOnUse">
<stop stop-color="#F4C09F"/>
<stop offset="0.1777" stop-color="#F3C7AB"/>
<stop offset="0.5163" stop-color="#F0CEB8"/>
<stop offset="0.8024" stop-color="#F4DCCE"/>
<stop offset="1" stop-color="#F9E5DA"/>
</linearGradient>
<linearGradient id="paint26_linear_305_7887" x1="40.6364" y1="259.345" x2="40.6364" y2="232.481" gradientUnits="userSpaceOnUse">
<stop stop-color="#F4C09F"/>
<stop offset="0.1777" stop-color="#F3C7AB"/>
<stop offset="0.5163" stop-color="#F0CEB8"/>
<stop offset="0.8024" stop-color="#F4DCCE"/>
<stop offset="1" stop-color="#F9E5DA"/>
</linearGradient>
<linearGradient id="paint27_linear_305_7887" x1="42.6002" y1="236.644" x2="19.0371" y2="236.644" gradientUnits="userSpaceOnUse">
<stop stop-color="#F4C09F"/>
<stop offset="0.1777" stop-color="#F3C7AB"/>
<stop offset="0.5163" stop-color="#F0CEB8"/>
<stop offset="0.8024" stop-color="#F4DCCE"/>
<stop offset="1" stop-color="#F9E5DA"/>
</linearGradient>
<linearGradient id="paint28_linear_305_7887" x1="194.123" y1="188.726" x2="194.123" y2="99.0037" gradientUnits="userSpaceOnUse">
<stop stop-color="#F4C09F"/>
<stop offset="0.1777" stop-color="#F3C7AB"/>
<stop offset="0.5163" stop-color="#F0CEB8"/>
<stop offset="0.8024" stop-color="#F4DCCE"/>
<stop offset="1" stop-color="#F9E5DA"/>
</linearGradient>
<linearGradient id="paint29_linear_305_7887" x1="165.652" y1="236.643" x2="3.32878" y2="236.643" gradientUnits="userSpaceOnUse">
<stop stop-color="#F4C09F"/>
<stop offset="0.1777" stop-color="#F3C7AB"/>
<stop offset="0.5163" stop-color="#F0CEB8"/>
<stop offset="0.8024" stop-color="#F4DCCE"/>
<stop offset="1" stop-color="#F9E5DA"/>
</linearGradient>
<linearGradient id="paint30_linear_305_7887" x1="238.959" y1="111.229" x2="149.288" y2="111.229" gradientUnits="userSpaceOnUse">
<stop stop-color="#F4C09F"/>
<stop offset="0.1777" stop-color="#F3C7AB"/>
<stop offset="0.5163" stop-color="#F0CEB8"/>
<stop offset="0.8024" stop-color="#F4DCCE"/>
<stop offset="1" stop-color="#F9E5DA"/>
</linearGradient>
<linearGradient id="paint31_linear_305_7887" x1="238.959" y1="160.347" x2="165.651" y2="160.347" gradientUnits="userSpaceOnUse">
<stop stop-color="#F4C09F"/>
<stop offset="0.1777" stop-color="#F3C7AB"/>
<stop offset="0.5163" stop-color="#F0CEB8"/>
<stop offset="0.8024" stop-color="#F4DCCE"/>
<stop offset="1" stop-color="#F9E5DA"/>
</linearGradient>
<linearGradient id="paint32_linear_305_7887" x1="193.142" y1="167.55" x2="125.071" y2="167.55" gradientUnits="userSpaceOnUse">
<stop stop-color="#F4C09F"/>
<stop offset="0.1777" stop-color="#F3C7AB"/>
<stop offset="0.5163" stop-color="#F0CEB8"/>
<stop offset="0.8024" stop-color="#F4DCCE"/>
<stop offset="1" stop-color="#F9E5DA"/>
</linearGradient>
<linearGradient id="paint33_linear_305_7887" x1="120.49" y1="240.356" x2="120.49" y2="187.254" gradientUnits="userSpaceOnUse">
<stop stop-color="#F4C09F"/>
<stop offset="0.1777" stop-color="#F3C7AB"/>
<stop offset="0.5163" stop-color="#F0CEB8"/>
<stop offset="0.8024" stop-color="#F4DCCE"/>
<stop offset="1" stop-color="#F9E5DA"/>
</linearGradient>
<linearGradient id="paint34_linear_305_7887" x1="142.744" y1="226.382" x2="142.744" y2="180.538" gradientUnits="userSpaceOnUse">
<stop stop-color="#F4C09F"/>
<stop offset="0.1777" stop-color="#F3C7AB"/>
<stop offset="0.5163" stop-color="#F0CEB8"/>
<stop offset="0.8024" stop-color="#F4DCCE"/>
<stop offset="1" stop-color="#F9E5DA"/>
</linearGradient>
<linearGradient id="paint35_linear_305_7887" x1="132.271" y1="201.278" x2="95.6178" y2="201.278" gradientUnits="userSpaceOnUse">
<stop stop-color="#F4C09F"/>
<stop offset="0.1777" stop-color="#F3C7AB"/>
<stop offset="0.5163" stop-color="#F0CEB8"/>
<stop offset="0.8024" stop-color="#F4DCCE"/>
<stop offset="1" stop-color="#F9E5DA"/>
</linearGradient>
<linearGradient id="paint36_linear_305_7887" x1="153.216" y1="222.126" x2="153.216" y2="165.804" gradientUnits="userSpaceOnUse">
<stop stop-color="#F4C09F"/>
<stop offset="0.1777" stop-color="#F3C7AB"/>
<stop offset="0.5163" stop-color="#F0CEB8"/>
<stop offset="0.8024" stop-color="#F4DCCE"/>
<stop offset="1" stop-color="#F9E5DA"/>
</linearGradient>
<linearGradient id="paint37_linear_305_7887" x1="181.361" y1="181.959" x2="119.836" y2="181.959" gradientUnits="userSpaceOnUse">
<stop stop-color="#F4C09F"/>
<stop offset="0.1777" stop-color="#F3C7AB"/>
<stop offset="0.5163" stop-color="#F0CEB8"/>
<stop offset="0.8024" stop-color="#F4DCCE"/>
<stop offset="1" stop-color="#F9E5DA"/>
</linearGradient>
<linearGradient id="paint38_linear_305_7887" x1="105.435" y1="210.446" x2="79.2539" y2="210.446" gradientUnits="userSpaceOnUse">
<stop stop-color="#F4C09F"/>
<stop offset="0.1777" stop-color="#F3C7AB"/>
<stop offset="0.5163" stop-color="#F0CEB8"/>
<stop offset="0.8024" stop-color="#F4DCCE"/>
<stop offset="1" stop-color="#F9E5DA"/>
</linearGradient>
<linearGradient id="paint39_linear_305_7887" x1="81.2175" y1="235.004" x2="81.2175" y2="212.235" gradientUnits="userSpaceOnUse">
<stop stop-color="#F4C09F"/>
<stop offset="0.1777" stop-color="#F3C7AB"/>
<stop offset="0.5163" stop-color="#F0CEB8"/>
<stop offset="0.8024" stop-color="#F4DCCE"/>
<stop offset="1" stop-color="#F9E5DA"/>
</linearGradient>
<linearGradient id="paint40_linear_305_7887" x1="100.526" y1="240.79" x2="100.526" y2="201.448" gradientUnits="userSpaceOnUse">
<stop stop-color="#F4C09F"/>
<stop offset="0.1777" stop-color="#F3C7AB"/>
<stop offset="0.5163" stop-color="#F0CEB8"/>
<stop offset="0.8024" stop-color="#F4DCCE"/>
<stop offset="1" stop-color="#F9E5DA"/>
</linearGradient>
<linearGradient id="paint41_linear_305_7887" x1="83.1805" y1="219.288" x2="58.9629" y2="219.288" gradientUnits="userSpaceOnUse">
<stop stop-color="#F4C09F"/>
<stop offset="0.1777" stop-color="#F3C7AB"/>
<stop offset="0.5163" stop-color="#F0CEB8"/>
<stop offset="0.8024" stop-color="#F4DCCE"/>
<stop offset="1" stop-color="#F9E5DA"/>
</linearGradient>
<linearGradient id="paint42_linear_305_7887" x1="60.5992" y1="251.706" x2="60.5992" y2="218.957" gradientUnits="userSpaceOnUse">
<stop stop-color="#F4C09F"/>
<stop offset="0.1777" stop-color="#F3C7AB"/>
<stop offset="0.5163" stop-color="#F0CEB8"/>
<stop offset="0.8024" stop-color="#F4DCCE"/>
<stop offset="1" stop-color="#F9E5DA"/>
</linearGradient>
</defs>
</svg>
