<svg width="294" height="207" viewBox="0 0 294 207" fill="none" xmlns="http://www.w3.org/2000/svg">
<path d="M223.557 52.9192L287.886 43.7241L280.534 29.625L276.858 30.5997L220.494 45.5631L223.557 52.9192Z" fill="url(#paint0_linear_314_73)"/>
<path d="M215.594 46.1764L215.944 46.7894L220.495 54.7584V51.6934L215.594 43.1113V46.1764Z" fill="url(#paint1_linear_314_73)"/>
<path d="M220.494 48.6285L220.791 49.3396L223.557 55.9845V52.9195L220.494 45.5635V48.6285Z" fill="url(#paint2_linear_314_73)"/>
<path d="M199.664 44.9503L200.371 45.5633L208.854 52.9194V49.8543L199.664 41.8853V44.9503Z" fill="url(#paint3_linear_314_73)"/>
<path d="M208.241 44.9503L209.087 45.9384L215.593 53.5323V50.4673L208.241 41.8853V44.9503Z" fill="url(#paint4_linear_314_73)"/>
<path d="M208.854 49.8548L209.087 45.9389L208.241 44.9507V41.8857L252.965 17.5764L242.55 9.39648L237.036 13.5735L199.664 41.8857L208.854 49.8548Z" fill="url(#paint5_linear_314_73)"/>
<path d="M191.087 49.8545V46.5847L189.249 45.5635V42.4984L218.657 13.0742L203.953 8.7832L202.622 10.6222L178.222 44.3374L191.087 49.8545Z" fill="url(#paint6_linear_314_73)"/>
<path d="M180.06 51.6932V48.1905L178.222 47.4021V44.3371L202.622 10.6219L182.51 6.94385L181.285 9.89485L165.969 46.7891L180.06 51.6932Z" fill="url(#paint7_linear_314_73)"/>
<path d="M167.807 54.1455L167.834 50.503L165.969 49.8545V46.7895L181.285 9.89519L161.681 8.7832L160.577 14.3002L153.104 51.6935L167.807 54.1455Z" fill="url(#paint8_linear_314_73)"/>
<path d="M200.277 48.6284L200.371 45.5633L199.664 44.9503V41.8853L237.036 13.5731L225.395 6.33105L218.656 13.0741L189.249 42.4983L200.277 48.6284Z" fill="url(#paint9_linear_314_73)"/>
<path d="M215.593 50.4668L215.943 46.7888L215.593 46.1758V43.1108L265.83 23.3426L257.866 14.9126L252.965 17.5755L208.241 41.8848L215.593 50.4668Z" fill="url(#paint10_linear_314_73)"/>
<path d="M189.249 45.5631L191.087 46.5843L200.277 51.6931V48.6281L189.249 42.498V45.5631Z" fill="url(#paint11_linear_314_73)"/>
<path d="M220.495 51.693C220.448 51.6108 220.673 50.0894 220.791 49.3403L220.495 48.628V45.5629L276.859 30.6007L270.12 21.6558L265.831 23.3428L215.594 43.1109L220.495 51.693Z" fill="url(#paint12_linear_314_73)"/>
<path d="M85.0986 108.703L86.3239 107.763L95.5137 100.733V97.6685L94.901 98.1012L85.0986 105.024V108.703Z" fill="url(#paint13_linear_314_73)"/>
<path d="M93.6758 96.4428L94.9011 95.8004L106.541 89.6998V86.6348L105.929 86.9266L93.6758 92.7648V96.4428Z" fill="url(#paint14_linear_314_73)"/>
<path d="M77.1338 121.575L77.7869 120.962L86.9362 112.38V109.315L86.3236 109.852L77.1338 117.897V121.575Z" fill="url(#paint15_linear_314_73)"/>
<path d="M104.703 86.0213L105.928 85.575L118.181 81.1173V78.0522L117.569 78.2472L104.703 82.3433V86.0213Z" fill="url(#paint16_linear_314_73)"/>
<path d="M71.0078 134.45L71.7699 133.558L78.3596 125.867V122.189L77.7874 122.856L71.0078 130.772V134.45Z" fill="url(#paint17_linear_314_73)"/>
<path d="M66.1064 149.774L72.2329 138.74V134.449L71.7698 135.282L66.1064 145.483V149.774Z" fill="url(#paint18_linear_314_73)"/>
<path d="M178.222 47.4024L180.06 48.1907L191.087 52.9194V49.8544L178.222 44.3374V47.4024Z" fill="url(#paint19_linear_314_73)"/>
<path d="M153.104 54.7579L155.554 55.1662L167.807 57.2099V54.1449L153.104 51.6929V54.7579Z" fill="url(#paint20_linear_314_73)"/>
<path d="M165.969 49.8541L167.834 50.5026L180.06 54.7581V51.6931L165.969 46.7891V49.8541Z" fill="url(#paint21_linear_314_73)"/>
<path d="M140.85 60.2755L142.688 60.3515L155.553 60.8885V57.8235L140.85 57.2104V60.2755Z" fill="url(#paint22_linear_314_73)"/>
<path d="M116.957 76.2131L117.787 76.0328L131.048 73.148V70.083L116.957 72.535V76.2131Z" fill="url(#paint23_linear_314_73)"/>
<path d="M127.984 66.4058L131.048 66.5333L142.688 67.0188V63.9538L127.984 63.3408V66.4058Z" fill="url(#paint24_linear_314_73)"/>
<path d="M71.77 135.283V133.558L71.0078 134.449L12.1933 117.898L3.61621 133.223L66.1066 145.483L71.77 135.283Z" fill="url(#paint25_linear_314_73)"/>
<path d="M63.6555 158.356L-0.672852 153.452V158.356L63.6555 162.647V158.356Z" fill="url(#paint26_linear_314_73)"/>
<path d="M63.6558 162.647L-0.672505 158.356L-1.28516 176.133L63.6558 174.294V162.647Z" fill="url(#paint27_linear_314_73)"/>
<path d="M67.3322 154.065V149.161L63.6562 158.356V162.647L67.3322 154.065Z" fill="url(#paint28_linear_314_73)"/>
<path d="M66.1066 145.483L3.61621 133.223V138.127L66.1066 149.774V145.483Z" fill="url(#paint29_linear_314_73)"/>
<path d="M63.6558 174.294L-1.28516 176.133V181.038L63.6558 178.585V174.294Z" fill="url(#paint30_linear_314_73)"/>
<path d="M71.0078 130.771L12.1934 112.994V117.898L71.0078 134.449V130.771Z" fill="url(#paint31_linear_314_73)"/>
<path d="M155.554 57.8236V55.1668L153.103 54.7586V51.6935L160.576 14.3003H138.399L138.783 21.0433L140.85 57.2106L155.554 57.8236Z" fill="url(#paint32_linear_314_73)"/>
<path d="M220.791 49.3398C220.671 50.0902 220.448 51.6116 220.494 51.6925V54.7576L215.943 46.7885L215.593 50.4665V53.5316L209.087 45.9377L208.854 49.8535V52.9186L200.371 45.5625L200.277 48.6275V51.6925L191.087 46.5838V49.8535V52.9186L180.059 48.1898V51.6925V54.7576L167.833 50.5033L167.806 54.1446V57.2096L155.553 55.1658V57.8226V60.8876L142.687 60.3506C142.687 61.3474 142.687 63.4622 142.687 63.9526V67.0176L131.047 66.5321V70.0827V73.1477L117.786 76.0325L117.569 78.2467L118.181 78.0517V81.1167L105.928 85.5745V86.9256L106.541 86.6338V89.6988L94.9007 95.7994V98.1006L95.5134 97.6679V100.733L86.3236 107.763V109.851L86.9362 109.314V112.379L77.7869 120.961V122.854L78.3591 122.187V125.865L71.7694 133.556V135.279L72.2326 134.446V138.737L66.1061 149.771L3.61571 138.124L-0.672852 153.449L63.6555 158.353L67.3314 149.158V154.062L63.6555 162.644V174.291V178.582L64.8808 189.003L65.4935 165.709C67.1268 156.308 72.8453 134.568 82.6477 122.799C94.9007 108.086 116.343 81.1143 176.383 63.9502C196.601 59.0461 215.943 62.1112 223.557 62.1112V55.9811L220.791 49.3398Z" fill="url(#paint33_linear_314_73)"/>
<path d="M-1.28502 181.038C-1.36956 187.412 0.314002 200.857 1.16559 206.784V196.363L-1.28502 181.038Z" fill="url(#paint34_linear_314_73)"/>
<path d="M223.558 52.9192V55.9842V62.1143L287.886 53.5322V43.7241L223.558 52.9192Z" fill="url(#paint35_linear_314_73)"/>
<path d="M1.16602 206.784L64.8817 198.202V189.007L1.16602 196.363V206.784Z" fill="url(#paint36_linear_314_73)"/>
<path d="M77.7874 122.856V120.963L77.1344 121.576L23.8337 98.8945L12.1934 112.994L71.0078 130.771L77.7874 122.856Z" fill="url(#paint37_linear_314_73)"/>
<path d="M-1.28516 181.037L1.16545 196.363L64.8812 189.007L63.6558 178.585L-1.28516 181.037Z" fill="url(#paint38_linear_314_73)"/>
<path d="M116.957 72.5357L93.6758 32.6904V38.2075L116.957 76.2137V72.5357Z" fill="url(#paint39_linear_314_73)"/>
<path d="M117.569 78.2477L117.786 76.0336L116.956 76.2138L93.6755 38.2075L73.458 44.9506L104.703 82.3438L117.569 78.2477Z" fill="url(#paint40_linear_314_73)"/>
<path d="M131.048 70.0832V66.5327L127.984 66.4052L115.119 28.3989L93.6758 32.69L116.957 72.5352L131.048 70.0832Z" fill="url(#paint41_linear_314_73)"/>
<path d="M142.688 63.953C142.688 63.4626 142.688 61.3478 142.688 60.351L140.851 60.2738V57.2088L138.783 21.0415L115.119 22.8805L127.985 63.3388L142.688 63.953Z" fill="url(#paint42_linear_314_73)"/>
<path d="M127.985 63.3401L115.119 22.8818V28.3989L127.985 66.4051V63.3401Z" fill="url(#paint43_linear_314_73)"/>
<path d="M104.703 82.344L73.458 44.9507V49.8547L104.703 86.022V82.344Z" fill="url(#paint44_linear_314_73)"/>
<path d="M85.0989 105.025L37.9248 76.2139V81.1179L85.0989 108.703V105.025Z" fill="url(#paint45_linear_314_73)"/>
<path d="M86.3244 109.853V107.764L85.0991 108.703L37.925 81.1177L23.834 93.9908L77.1346 117.898L86.3244 109.853Z" fill="url(#paint46_linear_314_73)"/>
<path d="M77.1346 117.898L23.834 93.9907V98.8948L77.1346 121.576V117.898Z" fill="url(#paint47_linear_314_73)"/>
<path d="M105.928 86.9265V85.5755L104.703 86.0217L73.458 49.8545L54.4658 60.2756L93.6755 92.7648L105.928 86.9265Z" fill="url(#paint48_linear_314_73)"/>
<path d="M93.6755 92.7651L54.4658 60.2759V65.1799L93.6755 96.4431V92.7651Z" fill="url(#paint49_linear_314_73)"/>
<path d="M94.9014 98.1017V95.8005L93.6761 96.4429L54.4664 65.1797L37.9248 76.2138L85.0989 105.025L94.9014 98.1017Z" fill="url(#paint50_linear_314_73)"/>
<path d="M6.15972 201.767L69.8754 193.185V183.99M6.15972 201.767V191.346M6.15972 201.767C5.30765 195.841 3.62462 182.396 3.70912 176.021M69.8754 183.99L6.15972 191.346M69.8754 183.99L68.6501 173.569M69.8754 183.99L70.4881 160.696C72.1218 151.296 77.8399 129.555 87.6423 117.785C99.8953 103.073 121.338 76.101 181.378 58.9369C201.595 54.0328 220.938 57.0978 228.552 57.0978M6.15972 191.346L3.70912 176.021M3.70912 176.021L68.6501 173.569M3.70912 176.021V171.117M68.6501 173.569V169.278M3.70912 171.117L68.6501 169.278M3.70912 171.117L4.32177 153.34M68.6501 169.278V157.631M4.32177 153.34L68.6501 157.631M4.32177 153.34V148.435M68.6501 157.631V153.34M68.6501 157.631L72.326 149.048V144.144L68.6501 153.34M4.32177 148.435L68.6501 153.34M4.32177 148.435L8.61033 133.11M8.61033 133.11L71.1007 144.757M8.61033 133.11V128.206M71.1007 144.757V140.466M71.1007 144.757L77.2272 133.723V129.432L76.7643 130.266M8.61033 128.206L71.1007 140.466M8.61033 128.206L17.1874 112.881M71.1007 140.466L76.7643 130.266M17.1874 112.881L76.0019 129.432M17.1874 112.881V107.977M76.0019 129.432V125.754M76.0019 129.432L76.7643 128.542M17.1874 107.977L76.0019 125.754M17.1874 107.977L28.8278 93.8781M76.0019 125.754L82.7819 117.84M28.8278 93.8781L82.1284 116.559M28.8278 93.8781V88.9741M82.1284 116.559V112.881M82.1284 116.559L82.7819 115.946M28.8278 88.9741L82.1284 112.881M28.8278 88.9741L42.9188 76.101M82.1284 112.881L91.3182 104.836M42.9188 76.101L90.0929 103.686M42.9188 76.101V71.1969M90.0929 103.686V100.008M90.0929 103.686L91.3182 102.749M42.9188 71.1969L90.0929 100.008M42.9188 71.1969L59.4604 60.1629M90.0929 100.008L99.8953 93.0848M59.4604 60.1629L98.67 91.4261M59.4604 60.1629V55.2588M98.67 91.4261V87.7481M98.67 91.4261L99.8953 90.7839M59.4604 55.2588L98.67 87.7481M59.4604 55.2588L78.4525 44.8378M98.67 87.7481L110.923 81.9099M78.4525 44.8378L109.698 81.005M78.4525 44.8378V39.9337M109.698 81.005V77.327M109.698 81.005L110.923 80.5592M78.4525 39.9337L109.698 77.327M78.4525 39.9337L98.67 33.1907M109.698 77.327L122.563 73.231M121.951 71.1969V67.5189M121.951 71.1969L98.67 33.1907M121.951 71.1969L122.78 71.0166M136.042 65.0669V68.1319L122.78 71.0166M136.042 65.0669L121.951 67.5189M136.042 65.0669V61.5166M121.951 67.5189L98.67 27.6736M132.978 61.3889V58.3238M132.978 61.3889L120.113 23.3826M132.978 61.3889L136.042 61.5166M147.682 58.9369V62.0019L136.042 61.5166M147.682 58.9369L132.978 58.3238M147.682 58.9369C147.682 58.4465 147.682 56.3316 147.682 55.3355M132.978 58.3238L120.113 17.8656M160.548 52.8068V55.8718L147.682 55.3355M160.548 52.8068L145.844 52.1938M160.548 52.8068V50.1505M145.844 52.1938V55.2588L147.682 55.3355M145.844 52.1938L143.779 16.0266M172.801 49.1288V52.1938L160.548 50.1505M172.801 49.1288L158.097 46.6768M172.801 49.1288L172.829 45.4871M158.097 46.6768V49.7418L160.548 50.1505M158.097 46.6768L165.572 9.28351M185.054 46.6768V49.7418L172.829 45.4871M185.054 46.6768L170.963 41.7727M185.054 46.6768V43.1739M170.963 41.7727V44.8378L172.829 45.4871M170.963 41.7727L186.279 4.87896M196.082 44.8378V47.9028L185.054 43.1739M196.082 44.8378L183.216 39.3207M196.082 44.8378V41.5684M183.216 39.3207V42.3857L185.054 43.1739M183.216 39.3207L207.616 5.60548M205.271 43.6117V46.6768L196.082 41.5684M205.271 43.6117L194.244 37.4817M205.271 43.6117L205.366 40.5467M194.244 37.4817V40.5467L196.082 41.5684M194.244 37.4817L223.651 8.0575M213.848 44.8378V47.9028L205.366 40.5467M213.848 44.8378L204.659 36.8687M213.848 44.8378L214.083 40.9223M204.659 36.8687V39.9337L205.366 40.5467M204.659 36.8687L242.03 8.55666M220.588 45.4508V48.5158L214.083 40.9223M220.588 45.4508L213.236 36.8687M220.588 45.4508L220.938 41.7727M213.236 36.8687V39.9337L214.083 40.9223M213.236 36.8687L257.959 12.5604M225.489 46.6768V49.7418L220.938 41.7727M225.489 46.6768L220.588 38.0947M225.489 46.6768C225.442 46.5945 225.667 45.0737 225.785 44.3235M220.588 38.0947V41.1597L220.938 41.7727M220.588 38.0947L270.825 18.327M228.552 50.9678V47.9028M228.552 50.9678V57.0978M228.552 50.9678L225.785 44.3235M228.552 47.9028L225.489 40.5467M228.552 47.9028L292.88 38.7077M225.489 40.5467V43.6117L225.785 44.3235M225.489 40.5467L281.853 25.5844M228.552 57.0978L292.88 48.5158V38.7077M292.88 38.7077L285.529 24.6086L281.853 25.5844M281.853 25.5844L275.113 16.6396L270.825 18.327M270.825 18.327L262.86 9.89651L257.959 12.5604M257.959 12.5604L247.544 4.37947L242.03 8.55666M242.03 8.55666L230.39 1.31445L223.651 8.0575M223.651 8.0575L208.947 3.76647L207.616 5.60548M207.616 5.60548L187.504 1.92746L186.279 4.87896M186.279 4.87896L166.674 3.76647L165.572 9.28351M165.572 9.28351H143.394L143.779 16.0266M120.113 17.8656L143.779 16.0266M120.113 17.8656V23.3826M98.67 27.6736L120.113 23.3826M98.67 27.6736V33.1907M76.7643 128.542L83.3537 120.85V117.172L82.7819 117.84M76.7643 128.542V130.266M82.7819 115.946L91.9309 107.364V104.299L91.3182 104.836M82.7819 115.946V117.84M91.3182 104.836V102.749M91.3182 102.749L100.508 95.7171V92.6521L99.8953 93.0848M99.8953 93.0848V90.7839M99.8953 90.7839L111.536 84.683V81.618L110.923 81.9099M110.923 81.9099V80.5592M110.923 80.5592L123.176 76.101V73.036L122.563 73.231M122.563 73.231L122.78 71.0166" stroke="#202020" stroke-width="1.5"/>
<defs>
<linearGradient id="paint0_linear_314_73" x1="254.19" y1="52.9186" x2="254.19" y2="29.6244" gradientUnits="userSpaceOnUse">
<stop stop-color="#F2E0D5"/>
<stop offset="0.2168" stop-color="#F4DCCE"/>
<stop offset="0.4523" stop-color="#F2D5C1"/>
<stop offset="0.6966" stop-color="#F0CEB8"/>
<stop offset="0.9455" stop-color="#F1C1A3"/>
<stop offset="1" stop-color="#F3BD9A"/>
</linearGradient>
<linearGradient id="paint1_linear_314_73" x1="211.924" y1="61.2986" x2="219.686" y2="45.6387" gradientUnits="userSpaceOnUse">
<stop stop-color="#F2E0D5"/>
<stop offset="0.2168" stop-color="#F4DCCE"/>
<stop offset="0.4523" stop-color="#F2D5C1"/>
<stop offset="0.6966" stop-color="#F0CEB8"/>
<stop offset="0.9455" stop-color="#F1C1A3"/>
<stop offset="1" stop-color="#F3BD9A"/>
</linearGradient>
<linearGradient id="paint2_linear_314_73" x1="212.771" y1="55.5374" x2="222.037" y2="50.7725" gradientUnits="userSpaceOnUse">
<stop stop-color="#F2E0D5"/>
<stop offset="0.2168" stop-color="#F4DCCE"/>
<stop offset="0.4523" stop-color="#F2D5C1"/>
<stop offset="0.6966" stop-color="#F0CEB8"/>
<stop offset="0.9455" stop-color="#F1C1A3"/>
<stop offset="1" stop-color="#F3BD9A"/>
</linearGradient>
<linearGradient id="paint3_linear_314_73" x1="194.1" y1="61.2524" x2="205.529" y2="45.6856" gradientUnits="userSpaceOnUse">
<stop stop-color="#F2E0D5"/>
<stop offset="0.2168" stop-color="#F4DCCE"/>
<stop offset="0.4523" stop-color="#F2D5C1"/>
<stop offset="0.6966" stop-color="#F0CEB8"/>
<stop offset="0.9455" stop-color="#F1C1A3"/>
<stop offset="1" stop-color="#F3BD9A"/>
</linearGradient>
<linearGradient id="paint4_linear_314_73" x1="201.473" y1="59.1895" x2="214.004" y2="45.4283" gradientUnits="userSpaceOnUse">
<stop stop-color="#F2E0D5"/>
<stop offset="0.2168" stop-color="#F4DCCE"/>
<stop offset="0.4523" stop-color="#F2D5C1"/>
<stop offset="0.6966" stop-color="#F0CEB8"/>
<stop offset="0.9455" stop-color="#F1C1A3"/>
<stop offset="1" stop-color="#F3BD9A"/>
</linearGradient>
<linearGradient id="paint5_linear_314_73" x1="226.314" y1="49.8542" x2="226.314" y2="9.39587" gradientUnits="userSpaceOnUse">
<stop stop-color="#F2E0D5"/>
<stop offset="0.2168" stop-color="#F4DCCE"/>
<stop offset="0.4523" stop-color="#F2D5C1"/>
<stop offset="0.6966" stop-color="#F0CEB8"/>
<stop offset="0.9455" stop-color="#F1C1A3"/>
<stop offset="1" stop-color="#F3BD9A"/>
</linearGradient>
<linearGradient id="paint6_linear_314_73" x1="198.439" y1="49.8539" x2="198.439" y2="8.78259" gradientUnits="userSpaceOnUse">
<stop stop-color="#F2E0D5"/>
<stop offset="0.2168" stop-color="#F4DCCE"/>
<stop offset="0.4523" stop-color="#F2D5C1"/>
<stop offset="0.6966" stop-color="#F0CEB8"/>
<stop offset="0.9455" stop-color="#F1C1A3"/>
<stop offset="1" stop-color="#F3BD9A"/>
</linearGradient>
<linearGradient id="paint7_linear_314_73" x1="184.295" y1="51.6925" x2="184.295" y2="6.94323" gradientUnits="userSpaceOnUse">
<stop stop-color="#F2E0D5"/>
<stop offset="0.2168" stop-color="#F4DCCE"/>
<stop offset="0.4523" stop-color="#F2D5C1"/>
<stop offset="0.6966" stop-color="#F0CEB8"/>
<stop offset="0.9455" stop-color="#F1C1A3"/>
<stop offset="1" stop-color="#F3BD9A"/>
</linearGradient>
<linearGradient id="paint8_linear_314_73" x1="167.194" y1="54.1449" x2="167.194" y2="8.78259" gradientUnits="userSpaceOnUse">
<stop stop-color="#F2E0D5"/>
<stop offset="0.2168" stop-color="#F4DCCE"/>
<stop offset="0.4523" stop-color="#F2D5C1"/>
<stop offset="0.6966" stop-color="#F0CEB8"/>
<stop offset="0.9455" stop-color="#F1C1A3"/>
<stop offset="1" stop-color="#F3BD9A"/>
</linearGradient>
<linearGradient id="paint9_linear_314_73" x1="213.142" y1="48.6277" x2="213.142" y2="6.33044" gradientUnits="userSpaceOnUse">
<stop stop-color="#F2E0D5"/>
<stop offset="0.2168" stop-color="#F4DCCE"/>
<stop offset="0.4523" stop-color="#F2D5C1"/>
<stop offset="0.6966" stop-color="#F0CEB8"/>
<stop offset="0.9455" stop-color="#F1C1A3"/>
<stop offset="1" stop-color="#F3BD9A"/>
</linearGradient>
<linearGradient id="paint10_linear_314_73" x1="237.036" y1="50.4662" x2="237.036" y2="14.912" gradientUnits="userSpaceOnUse">
<stop stop-color="#F2E0D5"/>
<stop offset="0.2168" stop-color="#F4DCCE"/>
<stop offset="0.4523" stop-color="#F2D5C1"/>
<stop offset="0.6966" stop-color="#F0CEB8"/>
<stop offset="0.9455" stop-color="#F1C1A3"/>
<stop offset="1" stop-color="#F3BD9A"/>
</linearGradient>
<linearGradient id="paint11_linear_314_73" x1="186.144" y1="59.9267" x2="196.746" y2="44.1597" gradientUnits="userSpaceOnUse">
<stop stop-color="#F2E0D5"/>
<stop offset="0.2168" stop-color="#F4DCCE"/>
<stop offset="0.4523" stop-color="#F2D5C1"/>
<stop offset="0.6966" stop-color="#F0CEB8"/>
<stop offset="0.9455" stop-color="#F1C1A3"/>
<stop offset="1" stop-color="#F3BD9A"/>
</linearGradient>
<linearGradient id="paint12_linear_314_73" x1="246.226" y1="51.6924" x2="246.226" y2="21.6551" gradientUnits="userSpaceOnUse">
<stop stop-color="#F2E0D5"/>
<stop offset="0.2168" stop-color="#F4DCCE"/>
<stop offset="0.4523" stop-color="#F2D5C1"/>
<stop offset="0.6966" stop-color="#F0CEB8"/>
<stop offset="0.9455" stop-color="#F1C1A3"/>
<stop offset="1" stop-color="#78B1B6"/>
<stop offset="1" stop-color="#F3BD9A"/>
</linearGradient>
<linearGradient id="paint13_linear_314_73" x1="95.6111" y1="114.088" x2="88.7611" y2="100.025" gradientUnits="userSpaceOnUse">
<stop stop-color="#F2E0D5"/>
<stop offset="0.2168" stop-color="#F4DCCE"/>
<stop offset="0.4523" stop-color="#F2D5C1"/>
<stop offset="0.6966" stop-color="#F0CEB8"/>
<stop offset="0.9455" stop-color="#F1C1A3"/>
<stop offset="1" stop-color="#F3BD9A"/>
</linearGradient>
<linearGradient id="paint14_linear_314_73" x1="104.219" y1="104.393" x2="99.1187" y2="88.4642" gradientUnits="userSpaceOnUse">
<stop stop-color="#F2E0D5"/>
<stop offset="0.2168" stop-color="#F4DCCE"/>
<stop offset="0.4523" stop-color="#F2D5C1"/>
<stop offset="0.6966" stop-color="#F0CEB8"/>
<stop offset="0.9455" stop-color="#F1C1A3"/>
<stop offset="1" stop-color="#F3BD9A"/>
</linearGradient>
<linearGradient id="paint15_linear_314_73" x1="90.0651" y1="129.531" x2="81.1627" y2="113.933" gradientUnits="userSpaceOnUse">
<stop stop-color="#F2E0D5"/>
<stop offset="0.2168" stop-color="#F4DCCE"/>
<stop offset="0.4523" stop-color="#F2D5C1"/>
<stop offset="0.6966" stop-color="#F0CEB8"/>
<stop offset="0.9455" stop-color="#F1C1A3"/>
<stop offset="1" stop-color="#F3BD9A"/>
</linearGradient>
<linearGradient id="paint16_linear_314_73" x1="113.26" y1="93.5641" x2="111.189" y2="80.4389" gradientUnits="userSpaceOnUse">
<stop stop-color="#F2E0D5"/>
<stop offset="0.2168" stop-color="#F4DCCE"/>
<stop offset="0.4523" stop-color="#F2D5C1"/>
<stop offset="0.6966" stop-color="#F0CEB8"/>
<stop offset="0.9455" stop-color="#F1C1A3"/>
<stop offset="1" stop-color="#F3BD9A"/>
</linearGradient>
<linearGradient id="paint17_linear_314_73" x1="83.5855" y1="139.544" x2="72.9148" y2="126.105" gradientUnits="userSpaceOnUse">
<stop stop-color="#F2E0D5"/>
<stop offset="0.2168" stop-color="#F4DCCE"/>
<stop offset="0.4523" stop-color="#F2D5C1"/>
<stop offset="0.6966" stop-color="#F0CEB8"/>
<stop offset="0.9455" stop-color="#F1C1A3"/>
<stop offset="1" stop-color="#F3BD9A"/>
</linearGradient>
<linearGradient id="paint18_linear_314_73" x1="78.6004" y1="150.659" x2="67.2432" y2="140.376" gradientUnits="userSpaceOnUse">
<stop stop-color="#F2E0D5"/>
<stop offset="0.2168" stop-color="#F4DCCE"/>
<stop offset="0.4523" stop-color="#F2D5C1"/>
<stop offset="0.6966" stop-color="#F0CEB8"/>
<stop offset="0.9455" stop-color="#F1C1A3"/>
<stop offset="1" stop-color="#F3BD9A"/>
</linearGradient>
<linearGradient id="paint19_linear_314_73" x1="178.534" y1="60.8933" x2="185.896" y2="46.1561" gradientUnits="userSpaceOnUse">
<stop stop-color="#F2E0D5"/>
<stop offset="0.2168" stop-color="#F4DCCE"/>
<stop offset="0.4523" stop-color="#F2D5C1"/>
<stop offset="0.6966" stop-color="#F0CEB8"/>
<stop offset="0.9455" stop-color="#F1C1A3"/>
<stop offset="1" stop-color="#F3BD9A"/>
</linearGradient>
<linearGradient id="paint20_linear_314_73" x1="157.879" y1="65.504" x2="161.119" y2="51.6209" gradientUnits="userSpaceOnUse">
<stop stop-color="#F2E0D5"/>
<stop offset="0.2168" stop-color="#F4DCCE"/>
<stop offset="0.4523" stop-color="#F2D5C1"/>
<stop offset="0.6966" stop-color="#F0CEB8"/>
<stop offset="0.9455" stop-color="#F1C1A3"/>
<stop offset="1" stop-color="#F3BD9A"/>
</linearGradient>
<linearGradient id="paint21_linear_314_73" x1="169.655" y1="65.6305" x2="173.57" y2="48.3349" gradientUnits="userSpaceOnUse">
<stop stop-color="#F2E0D5"/>
<stop offset="0.2168" stop-color="#F4DCCE"/>
<stop offset="0.4523" stop-color="#F2D5C1"/>
<stop offset="0.6966" stop-color="#F0CEB8"/>
<stop offset="0.9455" stop-color="#F1C1A3"/>
<stop offset="1" stop-color="#F3BD9A"/>
</linearGradient>
<linearGradient id="paint22_linear_314_73" x1="147.796" y1="70.2272" x2="148.308" y2="56.1297" gradientUnits="userSpaceOnUse">
<stop stop-color="#F2E0D5"/>
<stop offset="0.2168" stop-color="#F4DCCE"/>
<stop offset="0.4523" stop-color="#F2D5C1"/>
<stop offset="0.6966" stop-color="#F0CEB8"/>
<stop offset="0.9455" stop-color="#F1C1A3"/>
<stop offset="1" stop-color="#F3BD9A"/>
</linearGradient>
<linearGradient id="paint23_linear_314_73" x1="124.002" y1="84.9478" x2="124.002" y2="71.448" gradientUnits="userSpaceOnUse">
<stop stop-color="#F2E0D5"/>
<stop offset="0.2168" stop-color="#F4DCCE"/>
<stop offset="0.4523" stop-color="#F2D5C1"/>
<stop offset="0.6966" stop-color="#F0CEB8"/>
<stop offset="0.9455" stop-color="#F1C1A3"/>
<stop offset="1" stop-color="#F3BD9A"/>
</linearGradient>
<linearGradient id="paint24_linear_314_73" x1="135.336" y1="78.3588" x2="135.336" y2="63.3281" gradientUnits="userSpaceOnUse">
<stop stop-color="#F2E0D5"/>
<stop offset="0.2168" stop-color="#F4DCCE"/>
<stop offset="0.4523" stop-color="#F2D5C1"/>
<stop offset="0.6966" stop-color="#F0CEB8"/>
<stop offset="0.9455" stop-color="#F1C1A3"/>
<stop offset="1" stop-color="#F3BD9A"/>
</linearGradient>
<linearGradient id="paint25_linear_314_73" x1="37.693" y1="145.483" x2="37.693" y2="117.898" gradientUnits="userSpaceOnUse">
<stop stop-color="#F2E0D5"/>
<stop offset="0.2168" stop-color="#F4DCCE"/>
<stop offset="0.4523" stop-color="#F2D5C1"/>
<stop offset="0.6966" stop-color="#F0CEB8"/>
<stop offset="0.9455" stop-color="#F1C1A3"/>
<stop offset="1" stop-color="#F3BD9A"/>
</linearGradient>
<linearGradient id="paint26_linear_314_73" x1="30.2211" y1="176.581" x2="31.7049" y2="154.961" gradientUnits="userSpaceOnUse">
<stop stop-color="#F2E0D5"/>
<stop offset="0.2168" stop-color="#F4DCCE"/>
<stop offset="0.4523" stop-color="#F2D5C1"/>
<stop offset="0.6966" stop-color="#F0CEB8"/>
<stop offset="0.9455" stop-color="#F1C1A3"/>
<stop offset="1" stop-color="#F3BD9A"/>
</linearGradient>
<linearGradient id="paint27_linear_314_73" x1="31.1852" y1="176.133" x2="31.1852" y2="158.356" gradientUnits="userSpaceOnUse">
<stop stop-color="#F2E0D5"/>
<stop offset="0.2168" stop-color="#F4DCCE"/>
<stop offset="0.4523" stop-color="#F2D5C1"/>
<stop offset="0.6966" stop-color="#F0CEB8"/>
<stop offset="0.9455" stop-color="#F1C1A3"/>
<stop offset="1" stop-color="#F3BD9A"/>
</linearGradient>
<linearGradient id="paint28_linear_314_73" x1="74.0042" y1="166.276" x2="63.9803" y2="154.074" gradientUnits="userSpaceOnUse">
<stop stop-color="#F2E0D5"/>
<stop offset="0.2168" stop-color="#F4DCCE"/>
<stop offset="0.4523" stop-color="#F2D5C1"/>
<stop offset="0.6966" stop-color="#F0CEB8"/>
<stop offset="0.9455" stop-color="#F1C1A3"/>
<stop offset="1" stop-color="#F3BD9A"/>
</linearGradient>
<linearGradient id="paint29_linear_314_73" x1="32.492" y1="160.87" x2="35.3359" y2="137.638" gradientUnits="userSpaceOnUse">
<stop stop-color="#F2E0D5"/>
<stop offset="0.2168" stop-color="#F4DCCE"/>
<stop offset="0.4523" stop-color="#F2D5C1"/>
<stop offset="0.6966" stop-color="#F0CEB8"/>
<stop offset="0.9455" stop-color="#F1C1A3"/>
<stop offset="1" stop-color="#F3BD9A"/>
</linearGradient>
<linearGradient id="paint30_linear_314_73" x1="32.8161" y1="202.089" x2="30.9122" y2="173.602" gradientUnits="userSpaceOnUse">
<stop stop-color="#F2E0D5"/>
<stop offset="0.2167" stop-color="#F4DCCE"/>
<stop offset="0.2168" stop-color="#F4DCCE"/>
<stop offset="0.4523" stop-color="#F2D5C1"/>
<stop offset="0.6966" stop-color="#F0CEB8"/>
<stop offset="0.9455" stop-color="#F1C1A3"/>
<stop offset="1" stop-color="#F3BD9A"/>
</linearGradient>
<linearGradient id="paint31_linear_314_73" x1="37.0834" y1="145.095" x2="42.5894" y2="119.073" gradientUnits="userSpaceOnUse">
<stop stop-color="#F2E0D5"/>
<stop offset="0.2168" stop-color="#F4DCCE"/>
<stop offset="0.4523" stop-color="#F2D5C1"/>
<stop offset="0.6966" stop-color="#F0CEB8"/>
<stop offset="0.9455" stop-color="#F1C1A3"/>
<stop offset="1" stop-color="#F3BD9A"/>
</linearGradient>
<linearGradient id="paint32_linear_314_73" x1="149.488" y1="57.823" x2="149.488" y2="14.2997" gradientUnits="userSpaceOnUse">
<stop stop-color="#F2E0D5"/>
<stop offset="0.2168" stop-color="#F4DCCE"/>
<stop offset="0.4523" stop-color="#F2D5C1"/>
<stop offset="0.6966" stop-color="#F0CEB8"/>
<stop offset="0.9455" stop-color="#F1C1A3"/>
<stop offset="1" stop-color="#F3BD9A"/>
</linearGradient>
<linearGradient id="paint33_linear_314_73" x1="142.711" y1="179.389" x2="77.5493" y2="23.9232" gradientUnits="userSpaceOnUse">
<stop stop-color="#F2E0D5"/>
<stop offset="0.2168" stop-color="#F4DCCE"/>
<stop offset="0.4523" stop-color="#F2D5C1"/>
<stop offset="0.6966" stop-color="#F0CEB8"/>
<stop offset="0.9455" stop-color="#F1C1A3"/>
<stop offset="1" stop-color="#F3BD9A"/>
</linearGradient>
<linearGradient id="paint34_linear_314_73" x1="-0.0616759" y1="206.784" x2="-0.0616759" y2="181.038" gradientUnits="userSpaceOnUse">
<stop stop-color="#F2E0D5"/>
<stop offset="0.2168" stop-color="#F4DCCE"/>
<stop offset="0.4523" stop-color="#F2D5C1"/>
<stop offset="0.6966" stop-color="#F0CEB8"/>
<stop offset="0.9455" stop-color="#F1C1A3"/>
<stop offset="1" stop-color="#F3BD9A"/>
</linearGradient>
<linearGradient id="paint35_linear_314_73" x1="257.606" y1="61.7072" x2="248.513" y2="19.3427" gradientUnits="userSpaceOnUse">
<stop stop-color="#F2E0D5"/>
<stop offset="0.2168" stop-color="#F4DCCE"/>
<stop offset="0.4523" stop-color="#F2D5C1"/>
<stop offset="0.6966" stop-color="#F0CEB8"/>
<stop offset="0.9455" stop-color="#F1C1A3"/>
<stop offset="1" stop-color="#F3BD9A"/>
</linearGradient>
<linearGradient id="paint36_linear_314_73" x1="34.7235" y1="217.643" x2="32.4049" y2="190.737" gradientUnits="userSpaceOnUse">
<stop stop-color="#F2E0D5"/>
<stop offset="0.2168" stop-color="#F4DCCE"/>
<stop offset="0.4523" stop-color="#F2D5C1"/>
<stop offset="0.6966" stop-color="#F0CEB8"/>
<stop offset="0.9455" stop-color="#F1C1A3"/>
<stop offset="1" stop-color="#F3BD9A"/>
</linearGradient>
<linearGradient id="paint37_linear_314_73" x1="44.9904" y1="130.771" x2="44.9904" y2="98.8951" gradientUnits="userSpaceOnUse">
<stop stop-color="#F2E0D5"/>
<stop offset="0.2168" stop-color="#F4DCCE"/>
<stop offset="0.4523" stop-color="#F2D5C1"/>
<stop offset="0.6966" stop-color="#F0CEB8"/>
<stop offset="0.9455" stop-color="#F1C1A3"/>
<stop offset="1" stop-color="#F3BD9A"/>
</linearGradient>
<linearGradient id="paint38_linear_314_73" x1="31.7979" y1="196.363" x2="31.7979" y2="178.585" gradientUnits="userSpaceOnUse">
<stop stop-color="#F2E0D5"/>
<stop offset="0.2168" stop-color="#F4DCCE"/>
<stop offset="0.4523" stop-color="#F2D5C1"/>
<stop offset="0.6966" stop-color="#F0CEB8"/>
<stop offset="0.9455" stop-color="#F1C1A3"/>
<stop offset="1" stop-color="#F3BD9A"/>
</linearGradient>
<linearGradient id="paint39_linear_314_73" x1="76.592" y1="83.2549" x2="107.333" y2="52.4628" gradientUnits="userSpaceOnUse">
<stop stop-color="#F2E0D5"/>
<stop offset="0.2168" stop-color="#F4DCCE"/>
<stop offset="0.4523" stop-color="#F2D5C1"/>
<stop offset="0.6966" stop-color="#F0CEB8"/>
<stop offset="0.9455" stop-color="#F1C1A3"/>
<stop offset="1" stop-color="#F3BD9A"/>
</linearGradient>
<linearGradient id="paint40_linear_314_73" x1="95.6216" y1="82.3432" x2="95.6216" y2="38.2069" gradientUnits="userSpaceOnUse">
<stop stop-color="#F2E0D5"/>
<stop offset="0.2168" stop-color="#F4DCCE"/>
<stop offset="0.4523" stop-color="#F2D5C1"/>
<stop offset="0.6966" stop-color="#F0CEB8"/>
<stop offset="0.9455" stop-color="#F1C1A3"/>
<stop offset="1" stop-color="#F3BD9A"/>
</linearGradient>
<linearGradient id="paint41_linear_314_73" x1="112.362" y1="72.5346" x2="112.362" y2="28.3983" gradientUnits="userSpaceOnUse">
<stop stop-color="#F2E0D5"/>
<stop offset="0.2168" stop-color="#F4DCCE"/>
<stop offset="0.4523" stop-color="#F2D5C1"/>
<stop offset="0.6966" stop-color="#F0CEB8"/>
<stop offset="0.9455" stop-color="#F1C1A3"/>
<stop offset="1" stop-color="#F3BD9A"/>
</linearGradient>
<linearGradient id="paint42_linear_314_73" x1="128.904" y1="63.9524" x2="128.904" y2="21.0421" gradientUnits="userSpaceOnUse">
<stop stop-color="#F2E0D5"/>
<stop offset="0.2168" stop-color="#F4DCCE"/>
<stop offset="0.4523" stop-color="#F2D5C1"/>
<stop offset="0.6966" stop-color="#F0CEB8"/>
<stop offset="0.9455" stop-color="#F1C1A3"/>
<stop offset="1" stop-color="#F3BD9A"/>
</linearGradient>
<linearGradient id="paint43_linear_314_73" x1="93.2191" y1="70.2933" x2="125.49" y2="41.1097" gradientUnits="userSpaceOnUse">
<stop stop-color="#F2E0D5"/>
<stop offset="0.2168" stop-color="#F4DCCE"/>
<stop offset="0.4523" stop-color="#F2D5C1"/>
<stop offset="0.6966" stop-color="#F0CEB8"/>
<stop offset="0.9455" stop-color="#F1C1A3"/>
<stop offset="1" stop-color="#F3BD9A"/>
</linearGradient>
<linearGradient id="paint44_linear_314_73" x1="66.2551" y1="95.9073" x2="90.9174" y2="63.0779" gradientUnits="userSpaceOnUse">
<stop stop-color="#F2E0D5"/>
<stop offset="0.2168" stop-color="#F4DCCE"/>
<stop offset="0.4523" stop-color="#F2D5C1"/>
<stop offset="0.6966" stop-color="#F0CEB8"/>
<stop offset="0.9455" stop-color="#F1C1A3"/>
<stop offset="1" stop-color="#F3BD9A"/>
</linearGradient>
<linearGradient id="paint45_linear_314_73" x1="50.7831" y1="121.24" x2="62.1432" y2="90.8022" gradientUnits="userSpaceOnUse">
<stop stop-color="#F2E0D5"/>
<stop offset="0.2168" stop-color="#F4DCCE"/>
<stop offset="0.4523" stop-color="#F2D5C1"/>
<stop offset="0.6966" stop-color="#F0CEB8"/>
<stop offset="0.9455" stop-color="#F1C1A3"/>
<stop offset="1" stop-color="#F3BD9A"/>
</linearGradient>
<linearGradient id="paint46_linear_314_73" x1="55.0791" y1="117.898" x2="55.0791" y2="81.1177" gradientUnits="userSpaceOnUse">
<stop stop-color="#F2E0D5"/>
<stop offset="0.2168" stop-color="#F4DCCE"/>
<stop offset="0.4523" stop-color="#F2D5C1"/>
<stop offset="0.6966" stop-color="#F0CEB8"/>
<stop offset="0.9455" stop-color="#F1C1A3"/>
<stop offset="1" stop-color="#F3BD9A"/>
</linearGradient>
<linearGradient id="paint47_linear_314_73" x1="44.3182" y1="131.955" x2="51.143" y2="105.23" gradientUnits="userSpaceOnUse">
<stop stop-color="#F2E0D5"/>
<stop offset="0.2168" stop-color="#F4DCCE"/>
<stop offset="0.4523" stop-color="#F2D5C1"/>
<stop offset="0.6966" stop-color="#F0CEB8"/>
<stop offset="0.9455" stop-color="#F1C1A3"/>
<stop offset="1" stop-color="#F3BD9A"/>
</linearGradient>
<linearGradient id="paint48_linear_314_73" x1="80.197" y1="92.7642" x2="80.197" y2="49.8539" gradientUnits="userSpaceOnUse">
<stop stop-color="#F2E0D5"/>
<stop offset="0.2168" stop-color="#F4DCCE"/>
<stop offset="0.4523" stop-color="#F2D5C1"/>
<stop offset="0.6966" stop-color="#F0CEB8"/>
<stop offset="0.9455" stop-color="#F1C1A3"/>
<stop offset="1" stop-color="#F3BD9A"/>
</linearGradient>
<linearGradient id="paint49_linear_314_73" x1="57.5379" y1="107.306" x2="75.4881" y2="75.9146" gradientUnits="userSpaceOnUse">
<stop stop-color="#F2E0D5"/>
<stop offset="0.2168" stop-color="#F4DCCE"/>
<stop offset="0.4523" stop-color="#F2D5C1"/>
<stop offset="0.6966" stop-color="#F0CEB8"/>
<stop offset="0.9455" stop-color="#F1C1A3"/>
<stop offset="1" stop-color="#F3BD9A"/>
</linearGradient>
<linearGradient id="paint50_linear_314_73" x1="66.413" y1="105.025" x2="66.413" y2="65.1791" gradientUnits="userSpaceOnUse">
<stop stop-color="#F2E0D5"/>
<stop offset="0.2168" stop-color="#F4DCCE"/>
<stop offset="0.4523" stop-color="#F2D5C1"/>
<stop offset="0.6966" stop-color="#F0CEB8"/>
<stop offset="0.9455" stop-color="#F1C1A3"/>
<stop offset="1" stop-color="#F3BD9A"/>
</linearGradient>
</defs>
</svg>
