<svg width="60" height="60" viewBox="0 0 60 60" fill="none" xmlns="http://www.w3.org/2000/svg">
<g id="telephone" clip-path="url(#clip0_1_11607)">
<path id="Union" fill-rule="evenodd" clip-rule="evenodd" d="M10.5813 2.81448C11.3616 2.25705 11.9661 2.04509 12.4473 2.01398C12.9107 1.98402 13.3686 2.11448 13.8829 2.45728C14.4152 2.81213 14.9809 3.37767 15.6183 4.17257C16.2523 4.9632 16.9187 5.93081 17.668 7.05476C18.0832 7.67759 18.4905 8.26944 18.8805 8.83605L18.8806 8.83608C20.0403 10.521 21.0464 11.9828 21.649 13.3726C22.0388 14.2716 22.2143 15.0505 22.1678 15.7528C22.1227 16.4333 21.8643 17.1222 21.2407 17.8498C20.9151 18.2298 20.5653 18.5803 20.2008 18.9152L9.83661 3.37485C10.1103 3.15974 10.361 2.97192 10.5813 2.81448ZM8.29902 4.67396L18.6674 20.2206C18.2297 20.5816 17.7898 20.9496 17.4018 21.3181C16.7955 21.8938 16.2235 22.5524 15.8664 23.3566C15.1028 25.0767 15.4876 27.0347 17.168 29.5552C21.2477 35.6748 26.3721 40.3046 31.5528 42.895C33.7328 43.985 35.3098 44.4979 36.8162 43.8597C37.523 43.5603 38.1203 43.0438 38.702 42.4543C39.065 42.0864 39.4701 41.6379 39.9176 41.1424L40.1209 40.9174L55.3965 52.6027C55.2606 52.7271 55.1173 52.8532 54.9662 52.9809C52.7589 54.8464 50.1353 56.8433 47.2867 57.5233C43.2261 58.3294 38.2217 57.1813 32.9515 54.573C27.6963 51.9722 22.2964 47.9776 17.5127 43.2865C12.7292 38.5956 8.59569 33.2413 5.84869 27.9462C3.09206 22.6326 1.7859 17.4854 2.48726 13.1606C2.74791 11.5533 3.71971 9.80918 5.02421 8.14418C6.04217 6.84489 7.21882 5.64898 8.29902 4.67396ZM56.7422 51.114L41.4865 39.444C41.7134 39.2072 41.953 38.9617 42.2071 38.7076C43.1554 37.7593 43.8831 37.2979 44.4754 37.1148C45.024 36.9452 45.5424 36.9876 46.1654 37.2581C46.8281 37.5459 47.5746 38.0777 48.525 38.8701C49.051 39.3088 49.5926 39.786 50.1924 40.3146L50.1926 40.3147C50.6954 40.7578 51.2392 41.237 51.8492 41.7598C52.2052 42.065 52.5905 42.3801 52.9779 42.697L52.9781 42.6972L53.1738 42.8574C53.6312 43.232 54.0915 43.6123 54.5384 44.0053C55.4387 44.797 56.2405 45.6035 56.8025 46.4421C57.3596 47.2734 57.6445 48.0809 57.6041 48.8995C57.5727 49.5369 57.3397 50.272 56.7422 51.114ZM19.3321 5.94535C18.5814 4.8193 17.8727 3.78693 17.1786 2.92136C16.4879 2.06005 15.7723 1.31316 14.9922 0.79312C14.1939 0.261038 13.308 -0.0458491 12.3183 0.0181425C11.3464 0.0809809 10.3885 0.49427 9.41867 1.18716C8.97537 1.50388 8.44061 1.91718 7.85701 2.40715C6.50268 3.5442 4.84957 5.12418 3.44986 6.91071C2.06348 8.68024 0.85309 10.7435 0.513046 12.8404C-0.28566 17.7655 1.22064 23.3684 4.07337 28.8672C6.93571 34.3846 11.2084 39.9054 16.1124 44.7145C21.0163 49.5234 26.5851 53.6538 32.0643 56.3655C37.521 59.066 43.0099 60.4183 47.6962 59.4811L47.7134 59.4776L47.7305 59.4736C51.0985 58.676 54.0514 56.3727 56.2572 54.5085C56.7893 54.0588 57.253 53.6124 57.652 53.1684C58.9045 51.7746 59.5334 50.3844 59.6017 48.9979C59.6697 47.6178 59.1747 46.3892 58.4638 45.3286C57.7578 44.2752 56.8034 43.3338 55.8592 42.5035C55.3839 42.0855 54.9001 41.6861 54.4411 41.3102L54.2417 41.1469C53.8531 40.829 53.488 40.5303 53.1508 40.2413C52.5954 39.7652 52.0595 39.2935 51.5514 38.8462L51.5513 38.8462C50.9214 38.2916 50.3342 37.7747 49.8059 37.3341C48.8346 36.5242 47.9038 35.8326 46.962 35.4236C45.9805 34.9974 44.967 34.8695 43.8848 35.204C42.8465 35.5249 41.8446 36.2418 40.7929 37.2934C40.216 37.8703 39.7122 38.403 39.2649 38.888C38.9375 39.243 38.6488 39.5629 38.3864 39.8536C37.9665 40.3188 37.6141 40.7093 37.2784 41.0495C36.742 41.5931 36.3698 41.8768 36.036 42.0182C35.4614 42.2616 34.6733 42.2192 32.4472 41.1061C27.6279 38.6964 22.7523 34.3262 18.8321 28.4458C17.3127 26.1668 17.3379 24.971 17.6944 24.1682C17.8974 23.7109 18.2554 23.2656 18.779 22.7684C19.1649 22.4019 19.5915 22.0507 20.068 21.6585C20.2517 21.5073 20.4429 21.3499 20.6419 21.1833C21.3346 20.6033 22.0801 19.9439 22.7593 19.1513C23.6357 18.1286 24.087 17.038 24.1634 15.885C24.2383 14.7537 23.947 13.6448 23.484 12.577C22.7967 10.9919 21.6293 9.29741 20.4359 7.56516C20.0659 7.02813 19.6935 6.48748 19.3321 5.94535ZM13.1643 30.143C12.8442 29.6929 12.2199 29.5874 11.7698 29.9074C11.3197 30.2275 11.2142 30.8518 11.5342 31.3019C14.9449 36.0991 19.2309 40.6879 23.8576 44.5661C24.2809 44.9209 24.9116 44.8654 25.2664 44.4421C25.6212 44.0189 25.5657 43.3882 25.1424 43.0334C20.6385 39.258 16.4705 34.7933 13.1643 30.143ZM28.7069 47.207C28.521 47.393 28.263 47.5 28 47.5C27.737 47.5 27.479 47.393 27.293 47.207C27.1069 47.021 27 46.763 27 46.5C27 46.236 27.107 45.979 27.293 45.793C27.479 45.606 27.737 45.5 28 45.5C28.263 45.5 28.521 45.606 28.7069 45.793C28.893 45.979 29 46.236 29 46.5C29 46.763 28.8929 47.021 28.7069 47.207Z" fill="#202020"/>
</g>
<defs>
<clipPath id="clip0_1_11607">
<rect width="60" height="60" fill="white"/>
</clipPath>
</defs>
</svg>
